STARTFONT 2.3
FONT -FontForge-Roboto Condensed-Book-R-Condensed---36-360-72-72-P-177-ISO10646-1
SIZE 36 72 72  2
FONTBOUNDINGBOX 63 47 -27 -9
COMMENT "Generated by fontforge, http://fontforge.sourceforge.net"
COMMENT "Copyright 2011 Google Inc. All Rights Reserved."
STARTPROPERTIES 42
FOUNDRY "FontForge"
FAMILY_NAME "Roboto Condensed"
WEIGHT_NAME "Book"
SLANT "R"
SETWIDTH_NAME "Condensed"
ADD_STYLE_NAME ""
PIXEL_SIZE 36
POINT_SIZE 360
RESOLUTION_X 72
RESOLUTION_Y 72
SPACING "P"
AVERAGE_WIDTH 177
CHARSET_REGISTRY "ISO10646"
CHARSET_ENCODING "1"
FONTNAME_REGISTRY ""
CHARSET_COLLECTIONS "ISO8859-2 ISO8859-5 ISO8859-7 ISO8859-9 ISO8859-4 ISO10646-1"
BITS_PER_PIXEL 2
FONT_NAME "RobotoCondensed-Regular"
FACE_NAME "Roboto Condensed"
COPYRIGHT "Copyright 2011 Google Inc. All Rights Reserved."
FONT_VERSION "2.137; 2017"
FONT_ASCENT 27
FONT_DESCENT 9
UNDERLINE_POSITION -4
UNDERLINE_THICKNESS 2
X_HEIGHT 18
CAP_HEIGHT 25
DEFAULT_CHAR 1
RAW_ASCENT 750
RAW_DESCENT 250
NORM_SPACE 8
RELATIVE_WEIGHT 40
RELATIVE_SETWIDTH 50
SUPERSCRIPT_X 0
SUPERSCRIPT_Y 17
SUPERSCRIPT_SIZE 23
SUBSCRIPT_X 0
SUBSCRIPT_Y 5
SUBSCRIPT_SIZE 23
FIGURE_WIDTH 18
AVG_LOWERCASE_WIDTH 172
AVG_UPPERCASE_WIDTH 207
ENDPROPERTIES
CHARS 1296
STARTCHAR uni0000
ENCODING 0
SWIDTH 0 0
DWIDTH 0 0
BBX 1 1 0 0
BITMAP
00
ENDCHAR
STARTCHAR uni0002
ENCODING 2
SWIDTH 0 0
DWIDTH 0 0
BBX 1 1 0 0
BITMAP
00
ENDCHAR
STARTCHAR uni000D
ENCODING 13
SWIDTH 229 0
DWIDTH 8 0
BBX 1 1 0 0
BITMAP
00
ENDCHAR
STARTCHAR space
ENCODING 32
SWIDTH 229 0
DWIDTH 8 0
BBX 1 1 0 0
BITMAP
00
ENDCHAR
STARTCHAR exclam
ENCODING 33
SWIDTH 245 0
DWIDTH 9 0
BBX 5 26 2 0
BITMAP
7F00
7F00
3F00
3F00
3F00
3F00
3F00
3F00
3F00
3F00
3F00
3F00
3F00
3F00
3F00
3F00
3F00
3F00
2900
0000
0000
0000
1900
3F00
7F40
2E00
ENDCHAR
STARTCHAR quotedbl
ENCODING 34
SWIDTH 319 0
DWIDTH 12 0
BBX 8 9 2 18
BITMAP
BC3E
BC3E
BC3E
B83E
B83D
B83D
B83D
B43D
B43C
ENDCHAR
STARTCHAR numbersign
ENCODING 35
SWIDTH 547 0
DWIDTH 20 0
BBX 17 26 2 0
BITMAP
0007C07C00
0007C07C00
000B80B800
000B80F800
000F40F400
000F41F400
001F01F000
2FFFFFFF80
2FFFFFFF80
157E57E540
003D03D000
003D07D000
007C07C000
007C07C000
00B80B8000
00B80B8000
BFFFFFFE00
BFFFFFFE00
56F56F5500
01F01F0000
02E02E0000
02E02E0000
03D03D0000
03D03D0000
07C07C0000
07C07C0000
ENDCHAR
STARTCHAR dollar
ENCODING 36
SWIDTH 493 0
DWIDTH 18 0
BBX 14 34 2 -4
BITMAP
000F4000
000F4000
000F4000
000F4000
00BFE400
07FFFD00
0FFEFF40
2FD03F80
3F401FC0
3F000FD0
7F000BE0
3F000BE0
3F400000
2F800000
1FE00000
0BFE4000
02FFE400
007FFD00
0006FF40
00007FC0
00001FD0
00000BE0
A80007E0
FC0007E0
BD0007E0
BE000BE0
7F802FC0
2FFAFF80
0BFFFE00
01BFE400
001F0000
001F0000
001F0000
00050000
ENDCHAR
STARTCHAR percent
ENCODING 37
SWIDTH 632 0
DWIDTH 23 0
BBX 20 26 2 0
BITMAP
0BE4000000
2FFE000000
7D6F400000
F80F801800
F40B803D00
F00780B800
F00780F400
F40B82E000
F80B83D000
7D6F4B8000
2FFE1F4000
0BF42E0000
00007C0000
0000B80000
0001F06F80
0002E1FFF0
0007C3E5F8
000F4BC07C
001F0B807C
003D0B403D
007C0B403D
00F40B807C
01E00BC07C
009003E5F8
000001FFF0
0000006F80
ENDCHAR
STARTCHAR ampersand
ENCODING 38
SWIDTH 543 0
DWIDTH 20 0
BBX 17 26 2 0
BITMAP
006F900000
02FFF80000
0BFAFE0000
0FD07F0000
1FC02F4000
1F802F4000
1F802F4000
1FC03F0000
0FD0BE0000
0BF7F80000
03FFE00000
01FF800000
02FF000000
0BFF800000
2FDFD03F00
7F47F03F00
BE02F83E00
FC00FE7E00
FC007FBD00
FC002FFC00
FC000FF800
BE000BF400
7F402FFC00
2FFAFFFE00
0BFFFD7F40
01BFA02FC0
ENDCHAR
STARTCHAR quotesingle
ENCODING 39
SWIDTH 174 0
DWIDTH 6 0
BBX 4 8 1 19
BITMAP
7D
7D
7D
7D
7D
7D
7D
7C
ENDCHAR
STARTCHAR parenleft
ENCODING 40
SWIDTH 313 0
DWIDTH 11 0
BBX 9 37 2 -8
BITMAP
000200
000F00
002F00
007D00
00F800
02F000
07E000
0BC000
0F8000
1F4000
2F4000
3F0000
3E0000
7E0000
7E0000
BD0000
BD0000
BD0000
BD0000
BD0000
BD0000
BD0000
7E0000
7E0000
7F0000
3F0000
2F4000
1F4000
0F8000
0BC000
07E000
02F000
00F800
007C00
002F00
000F40
000200
ENDCHAR
STARTCHAR parenright
ENCODING 41
SWIDTH 318 0
DWIDTH 11 0
BBX 8 37 1 -8
BITMAP
9000
F400
BC00
3E00
1F40
0BC0
07D0
03F0
02F4
01F8
00FC
00BD
00BD
007E
007E
007E
007F
003F
003F
003F
003F
007F
007E
007E
00BD
00BD
00FC
01F8
01F4
02F0
07D0
0BC0
1F40
2E00
BC00
F400
9000
ENDCHAR
STARTCHAR asterisk
ENCODING 42
SWIDTH 430 0
DWIDTH 16 0
BBX 15 15 0 11
BITMAP
000BC000
000BC000
0007C000
0007C000
2407C024
3F97C6F8
7FFFFFFC
16FFFF90
002FF400
003FF400
00BDFC00
01F87E00
07F02F80
07D00F80
00400500
ENDCHAR
STARTCHAR plus
ENCODING 43
SWIDTH 496 0
DWIDTH 18 0
BBX 16 20 1 2
BITMAP
00055000
000BD000
000BD000
000BD000
000BD000
000BD000
000BD000
000BD000
7FFFFFFD
7FFFFFFD
7FFFFFFD
000BE000
000BD000
000BD000
000BD000
000BD000
000BD000
000BD000
000BD000
00014000
ENDCHAR
STARTCHAR comma
ENCODING 44
SWIDTH 196 0
DWIDTH 7 0
BBX 6 9 0 -5
BITMAP
0BD0
0BD0
0BD0
0BD0
0FC0
1F80
2F40
7E00
1800
ENDCHAR
STARTCHAR hyphen
ENCODING 45
SWIDTH 248 0
DWIDTH 9 0
BBX 8 3 0 9
BITMAP
7FFF
7FFF
2AAA
ENDCHAR
STARTCHAR period
ENCODING 46
SWIDTH 263 0
DWIDTH 9 0
BBX 5 4 2 0
BITMAP
2E00
7F40
7F40
2E00
ENDCHAR
STARTCHAR slash
ENCODING 47
SWIDTH 370 0
DWIDTH 13 0
BBX 12 28 0 -2
BITMAP
00002F
00003E
00007D
0000BC
0000F8
0001F4
0002F0
0003E0
0007D0
000BC0
000F80
000F40
001F00
002E00
003E00
007D00
00BC00
00F800
01F400
02F000
03E000
07D000
0BC000
0F8000
1F4000
2F0000
3E0000
7D0000
ENDCHAR
STARTCHAR zero
ENCODING 48
SWIDTH 493 0
DWIDTH 18 0
BBX 14 26 2 0
BITMAP
00BF9000
07FFFC00
1FFAFF00
2F807F40
3F001FC0
7E000FC0
BD000BD0
BD000BE0
FD0007E0
FC0007E0
FC0007E0
FC0007E0
FC0007E0
FC0007E0
FC0007E0
FC0007E0
FC0007E0
FD0007E0
BD000BD0
BD000BD0
7E000FC0
3F001FC0
2F807F40
0FFAFE00
07FFFC00
00BF9000
ENDCHAR
STARTCHAR one
ENCODING 49
SWIDTH 493 0
DWIDTH 18 0
BBX 10 26 2 0
BITMAP
000190
001BD0
01BFD0
1FFFD0
7FEFD0
7E4BD0
600BD0
000BD0
000BD0
000BD0
000BD0
000BD0
000BD0
000BD0
000BD0
000BD0
000BD0
000BD0
000BD0
000BD0
000BD0
000BD0
000BD0
000BD0
000BD0
000BD0
ENDCHAR
STARTCHAR two
ENCODING 50
SWIDTH 493 0
DWIDTH 18 0
BBX 16 26 1 0
BITMAP
006FE800
02FFFF40
0BFEBFD0
1FD01FE0
2F8007F0
3F0003F4
7F0002F4
7E0002F4
000003F4
000003F0
000007E0
00000FD0
00002F80
00007F00
0000FD00
0002F800
000BF000
001FD000
003F4000
00BE0000
02FC0000
07F40000
0FD00000
2FEAAAA9
3FFFFFFD
3FFFFFFD
ENDCHAR
STARTCHAR three
ENCODING 51
SWIDTH 493 0
DWIDTH 18 0
BBX 15 26 1 0
BITMAP
006FE400
02FFFE00
0BFEBF80
1FD01FD0
2F8007E0
3F4003F0
3F0003F0
000003F0
000007F0
00000BD0
00006F80
003FFE00
003FFD00
002AFF80
00001FD0
000007F0
000003F4
000002F4
000002F4
7F0002F4
3F0003F4
3F4007F0
1FD01FD0
0BFABF80
02FFFE00
006FE400
ENDCHAR
STARTCHAR four
ENCODING 52
SWIDTH 493 0
DWIDTH 18 0
BBX 16 26 1 0
BITMAP
00002F80
00007F80
0000BF80
0001FF80
0003FF80
0007EF80
000FDF80
001F5F80
003F1F80
00BD1F80
00F81F80
02F41F80
03E01F80
0BD01F80
1F801F80
2F401F80
7E001F80
BFFFFFFE
FFFFFFFE
AAAAAFE9
00001F80
00001F80
00001F80
00001F80
00001F80
00001F80
ENDCHAR
STARTCHAR five
ENCODING 53
SWIDTH 493 0
DWIDTH 18 0
BBX 15 26 2 0
BITMAP
0BFFFFE0
0BFFFFE0
0BFFFFE0
0FC00000
0FC00000
0FC00000
0F800000
1F800000
1F800000
1F9BE400
1FFFFE00
2FFFFF80
2F906FD0
05000FE0
000007F0
000003F0
000003F4
000003F4
000003F4
7E0003F0
7E0007F0
3F400BE0
1FC02FD0
0BFAFF80
02FFFE00
006FE400
ENDCHAR
STARTCHAR six
ENCODING 54
SWIDTH 493 0
DWIDTH 18 0
BBX 14 26 2 0
BITMAP
0006BC00
006FFC00
01FFF800
03FD0000
0BE00000
1FC00000
2F800000
3F000000
3F000000
7E2BE400
7EFFFE00
BFFEFF40
BFD02FC0
BF400FD0
BE000BE0
BD0007F0
BD0007F0
BD0003F0
7E0003F0
7E0007E0
3F000BE0
2F800FD0
1FD02FC0
0BFEFF40
02FFFD00
006FE000
ENDCHAR
STARTCHAR seven
ENCODING 55
SWIDTH 493 0
DWIDTH 18 0
BBX 16 26 1 0
BITMAP
BFFFFFFD
BFFFFFFC
6AAAAAFC
000001F8
000002F4
000003E0
00000BD0
00000FC0
00001F80
00002F40
00003F00
00007E00
0000BD00
0001FC00
0002F800
0003F400
0007E000
000BD000
000FC000
001F8000
002F4000
007F0000
00BE0000
00FD0000
01FC0000
02F80000
ENDCHAR
STARTCHAR eight
ENCODING 56
SWIDTH 493 0
DWIDTH 18 0
BBX 14 26 2 0
BITMAP
00BF9000
07FFFD00
1FFAFF00
2F807F80
7F401FC0
7E000FC0
7E000FD0
7E000FC0
7F000FC0
3F402F80
1FD07F00
07FFFD00
02FFF400
0FFAFE00
2F803F40
7F000FC0
BD000BD0
BD0007E0
FD0007E0
FD000BE0
BD000BE0
BE000FD0
3F802FC0
1FFAFF40
0BFFFD00
01BFA000
ENDCHAR
STARTCHAR nine
ENCODING 57
SWIDTH 493 0
DWIDTH 18 0
BBX 14 26 2 0
BITMAP
01BF9000
07FFF400
1FFBFD00
3F80BF00
7E003F40
BD001F80
FC000FC0
FC000FD0
FC000BD0
FC000BD0
FC000BD0
FD000BD0
BE001FD0
7F002FD0
3F91FFD0
1FFFEBD0
07FF8FC0
00690FC0
00001F80
00002F40
00003F00
0000BE00
0007FC00
02FFF400
03FF8000
03E90000
ENDCHAR
STARTCHAR colon
ENCODING 58
SWIDTH 233 0
DWIDTH 8 0
BBX 5 20 2 0
BITMAP
2E00
7F40
7F40
2E00
0000
0000
0000
0000
0000
0000
0000
0000
0000
0000
0000
0000
2E00
7F40
BF40
2E00
ENDCHAR
STARTCHAR semicolon
ENCODING 59
SWIDTH 202 0
DWIDTH 7 0
BBX 5 25 1 -5
BITMAP
1A40
3FC0
3FC0
1F40
0000
0000
0000
0000
0000
0000
0000
0000
0000
0000
0000
0000
1F80
2F80
2F80
2F80
2F40
3F00
7E00
FC00
6400
ENDCHAR
STARTCHAR less
ENCODING 60
SWIDTH 445 0
DWIDTH 16 0
BBX 13 16 1 3
BITMAP
00000140
00001F40
0001BF40
000BFF40
00BFF400
07FF4000
7FF40000
BF800000
BF400000
7FF40000
07FF4000
00BFF400
000BFF40
0001BF40
00001F40
00000140
ENDCHAR
STARTCHAR equal
ENCODING 61
SWIDTH 479 0
DWIDTH 17 0
BBX 13 10 2 7
BITMAP
7FFFFFC0
7FFFFFC0
6AAAAA80
00000000
00000000
00000000
00000000
7FFFFFC0
7FFFFFC0
6AAAAA80
ENDCHAR
STARTCHAR greater
ENCODING 62
SWIDTH 459 0
DWIDTH 17 0
BBX 13 16 2 3
BITMAP
90000000
BD000000
BF900000
7FF90000
07FF9000
006FF800
0006FF80
00006FC0
00007FC0
0007FF80
007FF800
07FF9000
7FF90000
BF900000
BD000000
90000000
ENDCHAR
STARTCHAR question
ENCODING 63
SWIDTH 421 0
DWIDTH 15 0
BBX 13 26 1 0
BITMAP
01BF9000
0BFFF800
1FFFFE00
3F80BF00
7F003F40
BE002F80
54001F80
00002F80
00002F40
00007F00
0000BE00
0002FC00
0007F400
000FD000
002F8000
003F0000
007E0000
007E0000
00690000
00000000
00000000
00000000
00290000
007F0000
007F0000
003D0000
ENDCHAR
STARTCHAR at
ENCODING 64
SWIDTH 769 0
DWIDTH 28 0
BBX 24 33 2 -8
BITMAP
00002BFE4000
0002FFFFF400
001FF95AFE00
007F40002F40
00F800000BD0
02F0000002F0
07D0000000F4
0F8000000078
1F0006F9003C
2E001FFF802D
3D007E5BC02E
7C00BC07C01E
7C01F40BC01E
B802F00BC01F
B803E00B801F
F807D00B801F
F407D00B801F
F40BC00F801E
F40BC00F401E
F40BC00F402D
B80BD02F403C
B807E07F80B8
BC03FAFBD2F4
7C01FFD7FFD0
3D007E41BE40
2E0000000000
1F4000000000
0BC000000000
07E000000000
01FD00004000
007F955B8000
001FFFFF8000
0001AFE90000
ENDCHAR
STARTCHAR A
ENCODING 65
SWIDTH 576 0
DWIDTH 21 0
BBX 19 26 1 0
BITMAP
0000FC0000
0001FD0000
0002FE0000
0003FF0000
0007FF4000
000BDF8000
000F8F8000
001F4BC000
002F47D000
003F03E000
007E02F000
00BD02F400
00FC01F800
01F800FC00
02F400BD00
03F0007E00
07FFFFFF00
0BFFFFFF40
0FEAAABF80
1FC0000FC0
2F80000BD0
2F40000BE0
3F000007F0
7E000003F4
BD000002F8
FD000001FC
ENDCHAR
STARTCHAR B
ENCODING 66
SWIDTH 545 0
DWIDTH 20 0
BBX 16 26 2 0
BITMAP
7FFFF900
7FFFFFC0
7FAAFFF0
7F000BF4
7F0002F8
7F0001FC
7F0001FC
7F0001FC
7F0001FC
7F0003F4
7F001BE0
7FFFFF80
7FFFFF40
7FAABFE0
7F0007F8
7F0001FC
7F0000FD
7F0000BE
7F0000BE
7F0000BE
7F0000FD
7F0001FC
7F0007F8
7FAABFF0
7FFFFFD0
7FFFF900
ENDCHAR
STARTCHAR C
ENCODING 67
SWIDTH 566 0
DWIDTH 20 0
BBX 17 26 2 0
BITMAP
001BFE4000
01BFFFE000
07FFBFF800
0FF402FD00
2FD000BF00
3F40003F40
7F00002F80
7E00002F80
BE00001A40
BD00000000
BD00000000
BD00000000
BD00000000
BD00000000
BD00000000
BD00000000
BD00000000
BE00001540
7E00002F80
7F00002F80
3F40003F40
2FC0007F00
0FF401FD00
07FFAFF800
01FFFFE000
001BFA4000
ENDCHAR
STARTCHAR D
ENCODING 68
SWIDTH 570 0
DWIDTH 21 0
BBX 17 26 2 0
BITMAP
7FFFE40000
7FFFFF4000
7FABFFD000
7F001BF400
7F0002FC00
7F0000FD00
7F0000BE00
7F00007F00
7F00003F00
7F00003F40
7F00003F40
7F00003F40
7F00003F40
7F00003F40
7F00003F40
7F00003F40
7F00003F40
7F00003F00
7F00007F00
7F0000BE00
7F0000FD00
7F0002FC00
7F001BF400
7FABFFD000
7FFFFF4000
7FFFE40000
ENDCHAR
STARTCHAR E
ENCODING 69
SWIDTH 496 0
DWIDTH 18 0
BBX 15 26 2 0
BITMAP
7FFFFFF4
7FFFFFF4
7FAAAAA4
7F000000
7F000000
7F000000
7F000000
7F000000
7F000000
7F000000
7F000000
7FFFFFC0
7FFFFFC0
7FAAAA80
7F000000
7F000000
7F000000
7F000000
7F000000
7F000000
7F000000
7F000000
7F000000
7FAAAAA4
7FFFFFF8
7FFFFFF8
ENDCHAR
STARTCHAR F
ENCODING 70
SWIDTH 480 0
DWIDTH 17 0
BBX 14 26 2 0
BITMAP
7FFFFFF0
7FFFFFF0
7FAAAAA0
7F000000
7F000000
7F000000
7F000000
7F000000
7F000000
7F000000
7F000000
7F000000
7FFFFF80
7FFFFF80
7FAAAA40
7F000000
7F000000
7F000000
7F000000
7F000000
7F000000
7F000000
7F000000
7F000000
7F000000
7F000000
ENDCHAR
STARTCHAR G
ENCODING 71
SWIDTH 590 0
DWIDTH 21 0
BBX 17 26 2 0
BITMAP
001BFE4000
01FFFFE000
07FFBFF800
1FE402FE00
2F8000BF00
3F40003F40
7F00002F80
BE00001F80
BE00000000
BD00000000
BD00000000
BD00000000
BD00000000
BD003FFF80
BD003FFF80
BD002ABF80
BD00001F80
BE00001F80
BE00001F80
7F00001F80
3F40001F80
2FD0002F80
0FF400BF80
07FFAFFE00
01BFFFF800
001BFE4000
ENDCHAR
STARTCHAR H
ENCODING 72
SWIDTH 620 0
DWIDTH 22 0
BBX 18 26 2 0
BITMAP
7F00000BE0
7F00000BE0
7F00000BE0
7F00000BE0
7F00000BE0
7F00000BE0
7F00000BE0
7F00000BE0
7F00000BE0
7F00000BE0
7F00000BE0
7FFFFFFFE0
7FFFFFFFE0
7FAAAAAFE0
7F00000BE0
7F00000BE0
7F00000BE0
7F00000BE0
7F00000BE0
7F00000BE0
7F00000BE0
7F00000BE0
7F00000BE0
7F00000BE0
7F00000BE0
7F00000BE0
ENDCHAR
STARTCHAR I
ENCODING 73
SWIDTH 250 0
DWIDTH 9 0
BBX 3 26 3 0
BITMAP
FC
FC
FC
FC
FC
FC
FC
FC
FC
FC
FC
FC
FC
FC
FC
FC
FC
FC
FC
FC
FC
FC
FC
FC
FC
FC
ENDCHAR
STARTCHAR J
ENCODING 74
SWIDTH 483 0
DWIDTH 17 0
BBX 14 26 1 0
BITMAP
000007E0
000007E0
000007E0
000007E0
000007E0
000007E0
000007E0
000007E0
000007E0
000007E0
000007E0
000007E0
000007E0
000007E0
000007E0
000007E0
000007E0
000007E0
540007E0
FD000BE0
BE000BE0
BF001FD0
3F807FC0
2FFBFF40
0BFFFD00
01BFA000
ENDCHAR
STARTCHAR K
ENCODING 75
SWIDTH 544 0
DWIDTH 20 0
BBX 18 26 2 0
BITMAP
7F00007F40
7F0000FE00
7F0002FC00
7F000BF400
7F001FE000
7F003F8000
7F00BF0000
7F01FD0000
7F03F80000
7F0BF00000
7F2FD00000
7F7F800000
7FFFD00000
7FFFE00000
7FF7F40000
7FD2FC0000
7F40FE0000
7F007F4000
7F002FC000
7F001FD000
7F000BF000
7F0003F800
7F0001FD00
7F0000FF00
7F00007F80
7F00002FD0
ENDCHAR
STARTCHAR L
ENCODING 76
SWIDTH 475 0
DWIDTH 17 0
BBX 14 26 2 0
BITMAP
7F000000
7F000000
7F000000
7F000000
7F000000
7F000000
7F000000
7F000000
7F000000
7F000000
7F000000
7F000000
7F000000
7F000000
7F000000
7F000000
7F000000
7F000000
7F000000
7F000000
7F000000
7F000000
7F000000
7FAAAAA0
7FFFFFF0
7FFFFFF0
ENDCHAR
STARTCHAR M
ENCODING 77
SWIDTH 755 0
DWIDTH 27 0
BBX 23 26 2 0
BITMAP
7FC000000FF4
7FD000001FF4
7FE000002FF4
7FF000003FF4
7FF400003FF4
7FF800007FF4
7EFC0000BEF4
7EBD0000FEF4
7E7E0001FAF4
7E3F0002F6F4
7E2F4003F2F4
7F1F8007E2F4
7F0FC00BD2F4
7F0BC00FC2F4
7F07D01F82F4
7F03E02F42F4
7F02F03F02F4
7F01F47E02F4
7F00F8BD02F4
7F00BCFC02F4
7F007EF802F4
7F003FF402F4
7F002FF002F4
7F001FE002F4
7F000FD002F4
7F000BC002F4
ENDCHAR
STARTCHAR N
ENCODING 78
SWIDTH 619 0
DWIDTH 22 0
BBX 18 26 2 0
BITMAP
7F40000BD0
7F80000BD0
7FD0000BD0
7FE0000BD0
7FF4000BD0
7FF8000BD0
7FBD000BD0
7F7E000BD0
7F2F400BD0
7F1FC00BD0
7F0BD00BD0
7F07F00BD0
7F02F40BD0
7F00FC0BD0
7F00BD0BD0
7F003F0BD0
7F002F4BD0
7F000FCBD0
7F000BDBD0
7F0003FBD0
7F0002FFD0
7F0000FFD0
7F0000BFD0
7F00003FD0
7F00002FD0
7F00000FD0
ENDCHAR
STARTCHAR O
ENCODING 79
SWIDTH 600 0
DWIDTH 22 0
BBX 18 26 2 0
BITMAP
001BFE4000
01FFFFE000
07FFFFF800
0FF406FE00
2FD0007F00
3F40002F80
7F00001FC0
7E00000FC0
BE00000FD0
BD00000FD0
BD00000BD0
BD00000BD0
BD00000BD0
BD00000BD0
BD00000BD0
BD00000BD0
BD00000FD0
BE00000FD0
7E00000FC0
7F00001FC0
3F40002F80
2FC0007F40
0FF402FE00
07FFFFF800
01FFFFE000
001BFE4000
ENDCHAR
STARTCHAR P
ENCODING 80
SWIDTH 554 0
DWIDTH 20 0
BBX 17 26 2 0
BITMAP
7FFFFE4000
7FFFFFE000
7FAABFF800
7F0002FD00
7F0000BF00
7F00003F40
7F00002F40
7F00002F80
7F00002F80
7F00002F40
7F00003F40
7F0000BF00
7F0006FD00
7FFFFFF800
7FFFFFE000
7FAAA90000
7F00000000
7F00000000
7F00000000
7F00000000
7F00000000
7F00000000
7F00000000
7F00000000
7F00000000
7F00000000
ENDCHAR
STARTCHAR Q
ENCODING 81
SWIDTH 600 0
DWIDTH 22 0
BBX 18 30 2 -4
BITMAP
001BFA4000
01FFFFE000
07FFFFF800
0FF406FD00
2FC000BF00
3F40003F40
7F00002F80
BE00001FC0
BD00000FC0
FD00000FD0
FD00000FD0
FD00000FD0
FD00000FD0
FD00000FD0
FD00000FD0
FD00000FD0
FD00000FD0
BD00000FC0
BE00001FC0
7F00002F80
3F40003F40
2FC000BF00
0FF402FE00
07FFFFF800
01FFFFF000
001BFFFC00
000001FF40
0000007FD0
0000001F80
0000000600
ENDCHAR
STARTCHAR R
ENCODING 82
SWIDTH 530 0
DWIDTH 19 0
BBX 17 26 2 0
BITMAP
7FFFF90000
7FFFFF8000
7FAAFFF000
7F000BF800
7F0002FC00
7F0000FD00
7F0000BD00
7F0000BE00
7F0000BE00
7F0000FD00
7F0001FD00
7F0002FC00
7F001BF400
7FFFFFE000
7FFFFF4000
7FAAFE0000
7F007F4000
7F002F8000
7F001FC000
7F000FE000
7F0007F000
7F0003F800
7F0002FC00
7F0000FD00
7F0000BF00
7F00007F40
ENDCHAR
STARTCHAR S
ENCODING 83
SWIDTH 518 0
DWIDTH 19 0
BBX 16 26 1 0
BITMAP
001BF900
01FFFFD0
07FFBFF4
0FE406FC
1FC000FD
2F80007F
2F40007F
2F40002A
2F800000
1FE00000
0BF90000
03FF9000
00BFFE00
001BFFD0
0000BFF8
000007FD
000000FE
0000007F
6A00003F
7F00003F
7F00007F
2F8000BE
1FE402FD
07FFAFF8
01FFFFE0
001BFE40
ENDCHAR
STARTCHAR T
ENCODING 84
SWIDTH 520 0
DWIDTH 19 0
BBX 17 26 1 0
BITMAP
FFFFFFFF80
FFFFFFFF80
AAAFFAAA80
0007F00000
0007F00000
0007F00000
0007F00000
0007F00000
0007F00000
0007F00000
0007F00000
0007F00000
0007F00000
0007F00000
0007F00000
0007F00000
0007F00000
0007F00000
0007F00000
0007F00000
0007F00000
0007F00000
0007F00000
0007F00000
0007F00000
0007F00000
ENDCHAR
STARTCHAR U
ENCODING 85
SWIDTH 561 0
DWIDTH 20 0
BBX 16 26 2 0
BITMAP
BD00007F
BD00007F
BD00007F
BD00007F
BD00007F
BD00007F
BD00007F
BD00007F
BD00007F
BD00007F
BD00007F
BD00007F
BD00007F
BD00007F
BD00007F
BD00007F
BD00007F
BD00007F
BE00007F
BE00007F
7E0000BE
7F4000FD
2FD006FC
0FFEBFF4
07FFFFD0
006FF900
ENDCHAR
STARTCHAR V
ENCODING 86
SWIDTH 560 0
DWIDTH 20 0
BBX 19 26 1 0
BITMAP
FD000007F4
BE000007F0
BF00000BE0
7F40000FD0
3F40001FC0
2F80002F80
1FC0003F40
0FD0007F00
0BE0007F00
07F000BE00
03F000FD00
02F401FC00
01F802F800
00FC03F400
00FD03F000
00BE07E000
007E0BD000
003F0FC000
002F5F8000
001FAF4000
000FEF4000
000BFF0000
0007FE0000
0003FD0000
0002FC0000
0001F80000
ENDCHAR
STARTCHAR W
ENCODING 87
SWIDTH 761 0
DWIDTH 27 0
BBX 26 26 1 0
BITMAP
BE0002F4000FD0
7E0002F8000FD0
7F0003F8001FC0
3F0007FC001F80
3F4007FD002F80
2F400BFD002F40
1F800FBE003F40
1F800FAF003F00
0FC01F5F007E00
0FC02F1F407E00
0BD02F0F80BD00
0BE03E0B80BD00
07E07D0BC0FC00
03F07C07D0F800
03F0BC03D1F800
02F4F803E1F400
02F4F402F2F400
01F9F401F2F000
00FAF001F7F000
00FEE000FBE000
00BFE000BFD000
00BFD000BFD000
007FC0007FC000
003FC0003FC000
003F80003F8000
002F40002F4000
ENDCHAR
STARTCHAR X
ENCODING 88
SWIDTH 550 0
DWIDTH 20 0
BBX 18 26 1 0
BITMAP
7F40001FD0
3F80003F80
1FD0007F40
0FE000FE00
07F401FD00
02F803F800
01FD07F400
00BE0FE000
007F5FC000
002FAF8000
001FFF0000
000BFE0000
0007FC0000
0007FD0000
000BFE0000
001FFF4000
003FAF8000
007F1FD000
00FE0BE000
01FD07F400
03F802F800
07F401FD00
0FE000BF00
1FD0007F40
3F80003FC0
BF40001FD0
ENDCHAR
STARTCHAR Y
ENCODING 89
SWIDTH 524 0
DWIDTH 19 0
BBX 18 26 0 0
BITMAP
7F40000BF0
2F80000FE0
1FD0001FD0
0FE0002F80
07F0003F40
03F400BF00
02F800FD00
00FD01FC00
00BE02F400
007F03F000
002F4BE000
001F8FC000
000FEF8000
0007FF4000
0003FE0000
0002FD0000
0001FC0000
0001FC0000
0001FC0000
0001FC0000
0001FC0000
0001FC0000
0001FC0000
0001FC0000
0001FC0000
0001FC0000
ENDCHAR
STARTCHAR Z
ENCODING 90
SWIDTH 522 0
DWIDTH 19 0
BBX 17 26 1 0
BITMAP
7FFFFFFF00
7FFFFFFF00
6AAAAAFE00
000001FD00
000002F800
000007F000
00000FE000
00001FC000
00003F4000
0000BF0000
0000FD0000
0002F80000
0007F40000
000BE00000
001FC00000
003F800000
007F000000
00FD000000
02F8000000
07F4000000
0BE0000000
1FC0000000
3F80000000
7FAAAAAA40
7FFFFFFF40
7FFFFFFF40
ENDCHAR
STARTCHAR bracketleft
ENCODING 91
SWIDTH 250 0
DWIDTH 9 0
BBX 7 34 2 -5
BITMAP
BFF4
BFF4
BFA4
BE00
BE00
BE00
BE00
BE00
BE00
BE00
BE00
BE00
BE00
BE00
BE00
BE00
BE00
BE00
BE00
BE00
BE00
BE00
BE00
BE00
BE00
BE00
BE00
BE00
BE00
BE00
BE00
BFA4
BFF4
BFF4
ENDCHAR
STARTCHAR backslash
ENCODING 92
SWIDTH 369 0
DWIDTH 13 0
BBX 12 28 1 -2
BITMAP
FC0000
BD0000
7E0000
3F0000
2F4000
1F8000
0FC000
0BD000
07E000
03F000
02F400
01F800
00FC00
00BC00
007D00
003E00
002F00
001F40
001F80
000FC0
000BD0
0007E0
0003F0
0002F4
0001F8
0000FC
0000BD
00007E
ENDCHAR
STARTCHAR bracketright
ENCODING 93
SWIDTH 250 0
DWIDTH 9 0
BBX 7 34 0 -5
BITMAP
7FF4
7FF4
6BF4
02F4
02F4
02F4
02F4
02F4
02F4
02F4
02F4
02F4
02F4
02F4
02F4
02F4
02F4
02F4
02F4
02F4
02F4
02F4
02F4
02F4
02F4
02F4
02F4
02F4
02F4
02F4
02F4
6BF4
7FF4
7FF4
ENDCHAR
STARTCHAR asciicircum
ENCODING 94
SWIDTH 371 0
DWIDTH 13 0
BBX 11 13 1 13
BITMAP
00BC00
00FD00
01FE00
02FF00
03FF40
07DF80
0BCBC0
0F87D0
1F43E0
2F02F0
3E01F4
7E01F8
BD00FC
ENDCHAR
STARTCHAR underscore
ENCODING 95
SWIDTH 404 0
DWIDTH 15 0
BBX 14 3 0 -3
BITMAP
BFFFFFF0
BFFFFFF0
6AAAAAA0
ENDCHAR
STARTCHAR grave
ENCODING 96
SWIDTH 309 0
DWIDTH 11 0
BBX 7 5 1 22
BITMAP
BF40
2FC0
0BE0
02F8
00A8
ENDCHAR
STARTCHAR a
ENCODING 97
SWIDTH 479 0
DWIDTH 17 0
BBX 14 19 2 0
BITMAP
01BFA000
0BFFFD00
1FFAFF00
3F407F40
7E002F80
69001F80
00001F80
00001F80
01AFFF80
0BFFFF80
2FE56F80
7F001F80
BD001F80
FC001F80
FD002F80
BE00BF80
7FFFFFC0
2FFFDFC0
06FE0FD0
ENDCHAR
STARTCHAR b
ENCODING 98
SWIDTH 493 0
DWIDTH 18 0
BBX 14 27 2 0
BITMAP
BD000000
BD000000
BD000000
BD000000
BD000000
BD000000
BD000000
BD000000
BD1BE400
BDBFFE00
BFFEFF80
BF802FD0
BF000BE0
BD0007E0
BD0003F0
BD0003F0
BD0003F0
BD0003F0
BD0003F0
BD0003F0
BD0003F0
BD0007E0
BF000BE0
BF802FD0
BFFAFF80
BDBFFE00
BD1BE400
ENDCHAR
STARTCHAR c
ENCODING 99
SWIDTH 461 0
DWIDTH 17 0
BBX 15 19 1 0
BITMAP
006FE800
02FFFF40
0BFEBFC0
1FD00BE0
2F8003F0
3F0002F4
7F0001A4
7F000000
7E000000
7E000000
7E000000
7F000000
7F000000
3F0002F4
2F4003F0
1FD00BE0
0BFEBFC0
02FFFF40
006FE400
ENDCHAR
STARTCHAR d
ENCODING 100
SWIDTH 496 0
DWIDTH 18 0
BBX 15 27 1 0
BITMAP
000002F4
000002F4
000002F4
000002F4
000002F4
000002F4
000002F4
000002F4
006F92F4
03FFFAF4
0BFEFFF4
1FD01BF4
2F8003F4
3F4002F4
7F0002F4
7F0002F4
7E0002F4
7E0002F4
7E0002F4
7E0002F4
7F0002F4
3F0002F4
2F8003F4
1FD00BF4
0BFEFFF4
03FFFAF4
006F91F4
ENDCHAR
STARTCHAR e
ENCODING 101
SWIDTH 468 0
DWIDTH 17 0
BBX 15 19 1 0
BITMAP
006FE800
02FFFF40
07FEBFC0
0FD00FE0
2F8007F0
3F4003F0
3F0002F4
7F0002F4
7FFFFFF4
7FFFFFF4
7FAAAAA4
7F000000
3F000000
3F000000
2F800040
1FD002E0
0BFEAFF0
02FFFF90
006FF900
ENDCHAR
STARTCHAR f
ENCODING 102
SWIDTH 316 0
DWIDTH 11 0
BBX 10 27 1 0
BITMAP
001BE0
00BFF0
01FFA0
03F800
03F000
07F000
07E000
07E000
BFFFC0
BFFFC0
6BFA80
07E000
07E000
07E000
07E000
07E000
07E000
07E000
07E000
07E000
07E000
07E000
07E000
07E000
07E000
07E000
07E000
ENDCHAR
STARTCHAR g
ENCODING 103
SWIDTH 492 0
DWIDTH 18 0
BBX 15 26 1 -7
BITMAP
006F91F4
03FFF9F4
0FFEFFF4
1FD01BF4
2F8003F4
3F4002F4
3F0002F4
7F0002F4
7E0002F4
7E0002F4
7E0002F4
7F0002F4
3F0002F4
3F4002F4
2F8003F4
1FD00BF4
0BFEFFF4
03FFFAF4
006F92F4
000002F4
000003F4
000007F0
0B400FE0
0FFABFD0
07FFFF40
006FE400
ENDCHAR
STARTCHAR h
ENCODING 104
SWIDTH 482 0
DWIDTH 17 0
BBX 13 27 2 0
BITMAP
BD000000
BD000000
BD000000
BD000000
BD000000
BD000000
BD000000
BD000000
BD1BE400
BDBFFE00
BFFFFF40
BFD07F80
BF001FC0
BE000FC0
BD000FC0
BD000FC0
BD000FC0
BD000FC0
BD000FC0
BD000FC0
BD000FC0
BD000FC0
BD000FC0
BD000FC0
BD000FC0
BD000FC0
BD000FC0
ENDCHAR
STARTCHAR i
ENCODING 105
SWIDTH 229 0
DWIDTH 8 0
BBX 4 26 2 0
BITMAP
29
7E
BF
3D
00
00
00
7E
7E
7E
7E
7E
7E
7E
7E
7E
7E
7E
7E
7E
7E
7E
7E
7E
7E
7E
ENDCHAR
STARTCHAR j
ENCODING 106
SWIDTH 223 0
DWIDTH 8 0
BBX 7 33 -1 -7
BITMAP
01A0
02F4
02F8
01F4
0000
0000
0000
02F8
02F8
02F8
02F8
02F8
02F8
02F8
02F8
02F8
02F8
02F8
02F8
02F8
02F8
02F8
02F8
02F8
02F8
02F8
02F8
02F4
02F4
03F4
6FF0
7FE0
7F40
ENDCHAR
STARTCHAR k
ENCODING 107
SWIDTH 450 0
DWIDTH 16 0
BBX 14 27 2 0
BITMAP
BD000000
BD000000
BD000000
BD000000
BD000000
BD000000
BD000000
BD000000
BD003F80
BD00BF00
BD01FD00
BD07F400
BD0FE000
BD2FC000
BD7F4000
BEFD0000
BFFD0000
BFFF0000
BFEF8000
BF1FD000
BD0BF000
BD03F400
BD01FC00
BD00BE00
BD007F40
BD002FC0
BD000FE0
ENDCHAR
STARTCHAR l
ENCODING 108
SWIDTH 229 0
DWIDTH 8 0
BBX 4 27 2 0
BITMAP
7E
7E
7E
7E
7E
7E
7E
7E
7E
7E
7E
7E
7E
7E
7E
7E
7E
7E
7E
7E
7E
7E
7E
7E
7E
7E
7E
ENDCHAR
STARTCHAR m
ENCODING 109
SWIDTH 752 0
DWIDTH 27 0
BBX 23 19 2 0
BITMAP
BD2BE406FE00
BDFFFE2FFFD0
BFFBFFBFBFF0
BF807FF407F4
BE001FE002F8
BD001FD001F8
BD000FC001F8
BD000FC001F8
BD000FC001F8
BD000FC001F8
BD000FC001F8
BD000FC001F8
BD000FC001F8
BD000FC001F8
BD000FC001F8
BD000FC001F8
BD000FC001F8
BD000FC001F8
BD000FC001F8
ENDCHAR
STARTCHAR n
ENCODING 110
SWIDTH 483 0
DWIDTH 17 0
BBX 13 19 2 0
BITMAP
BD1BE400
BDBFFE00
BFFFFF40
BFD07F80
BF001FC0
BE000FC0
BD000FC0
BD000FC0
BD000FC0
BD000FC0
BD000FC0
BD000FC0
BD000FC0
BD000FC0
BD000FC0
BD000FC0
BD000FC0
BD000FC0
BD000FC0
ENDCHAR
STARTCHAR o
ENCODING 111
SWIDTH 501 0
DWIDTH 18 0
BBX 16 19 1 0
BITMAP
002FF800
01FFFF40
07FEBFD0
0FE00BF4
2F8002F8
3F4001FC
3F0000FD
7F0000BD
7E0000BD
7E0000BD
7E0000BD
7F0000BD
3F0000FD
3F4000FC
2F8002F8
0FE007F4
07FEBFD0
01FFFF40
002FF900
ENDCHAR
STARTCHAR p
ENCODING 112
SWIDTH 493 0
DWIDTH 18 0
BBX 14 26 2 -7
BITMAP
BD2FE400
BDFFFE00
BFFBFF80
BF802FD0
BE000FE0
BD0007E0
BD0007F0
BD0003F0
BD0003F0
BD0003F0
BD0003F0
BD0003F0
BD0007F0
BD0007E0
BE000BE0
BF402FD0
BFFAFF80
BEFFFE00
BD2FE400
BD000000
BD000000
BD000000
BD000000
BD000000
BD000000
BD000000
ENDCHAR
STARTCHAR q
ENCODING 113
SWIDTH 500 0
DWIDTH 18 0
BBX 15 26 1 -7
BITMAP
006F92F4
03FFFAF4
0FFEBFF4
1FD00BF4
2F8003F4
3F4002F4
7F0002F4
7F0002F4
7E0002F4
7E0002F4
7E0002F4
7E0002F4
7F0002F4
3F4002F4
2F8003F4
1FD00BF4
0BFEBFF4
03FFFAF4
006F92F4
000002F4
000002F4
000002F4
000002F4
000002F4
000002F4
000002F4
ENDCHAR
STARTCHAR r
ENCODING 114
SWIDTH 304 0
DWIDTH 11 0
BBX 8 19 2 0
BITMAP
BD2F
BEFF
BFFF
BFD5
BF00
BE00
BD00
BD00
BD00
BD00
BD00
BD00
BD00
BD00
BD00
BD00
BD00
BD00
BD00
ENDCHAR
STARTCHAR s
ENCODING 115
SWIDTH 455 0
DWIDTH 16 0
BBX 14 19 1 0
BITMAP
006FE400
03FFFE00
0FFAFF80
1FD02FC0
2F800FD0
2F400690
2FC00000
0FF80000
07FF9000
00BFF900
000BFF40
00007FC0
00000FE0
6A000BE0
3F400BE0
2F801FD0
1FFABFC0
07FFFF00
006FE400
ENDCHAR
STARTCHAR t
ENCODING 116
SWIDTH 295 0
DWIDTH 11 0
BBX 10 24 0 0
BITMAP
02F400
02F400
02F400
02F400
02F400
BFFFD0
BFFFD0
6BFA80
02F400
02F400
02F400
02F400
02F400
02F400
02F400
02F400
02F400
02F400
02F400
02F400
02F800
01FFD0
00BFD0
002F90
ENDCHAR
STARTCHAR u
ENCODING 117
SWIDTH 483 0
DWIDTH 17 0
BBX 13 19 2 0
BITMAP
BD000FC0
BD000FC0
BD000FC0
BD000FC0
BD000FC0
BD000FC0
BD000FC0
BD000FC0
BD000FC0
BD000FC0
BD000FC0
BD000FC0
BD000FC0
BD000FC0
BE002FC0
7F407FC0
3FFBFFC0
1FFFEFC0
02FE4FC0
ENDCHAR
STARTCHAR v
ENCODING 118
SWIDTH 427 0
DWIDTH 15 0
BBX 14 19 1 0
BITMAP
FC000BD0
BD000FC0
7E001F80
3F002F40
3F002F00
2F403F00
1F807E00
0FC0BD00
0BD0BC00
07D0F800
03E1F400
02F2F000
01F7E000
00FBD000
00FFD000
00BFC000
007F8000
003F4000
002F0000
ENDCHAR
STARTCHAR w
ENCODING 119
SWIDTH 649 0
DWIDTH 23 0
BBX 22 19 1 0
BITMAP
FC002F000BD0
BD003F400FC0
BD007F800FC0
7E00BF801F80
3F00BFC02F40
2F00FFD02F00
2F41F7E03F00
1F82F2F07E00
0FC3E2F07D00
0BC3E1F4BC00
0BD7D0F8FC00
07EBC0BCF800
03EF807EF400
03FF407FF000
02FF403FF000
01FF002FE000
00FE001FD000
00FD000FD000
00BC000BC000
ENDCHAR
STARTCHAR x
ENCODING 120
SWIDTH 438 0
DWIDTH 16 0
BBX 14 19 1 0
BITMAP
BF000FD0
3F402FC0
2F803F40
0FD0BE00
07E0FD00
03F2F800
01FBF000
00BFE000
007FC000
003F8000
007FC000
00FFE000
02FBF400
03F1F800
0BE0FD00
1FC07F00
2F803F40
7F401FC0
BE000FE0
ENDCHAR
STARTCHAR y
ENCODING 121
SWIDTH 416 0
DWIDTH 15 0
BBX 14 26 0 -7
BITMAP
7F0003F0
3F4007F0
2F800BE0
1FC00FD0
0FD01FC0
0BD01F80
07E02F40
03F03F00
02F47E00
01F47D00
01F8BD00
00FCFC00
00BDF800
007FF400
003FF000
002FE000
001FD000
000FC000
000FC000
000F8000
001F4000
003F0000
00BE0000
1FFC0000
1FF40000
1F900000
ENDCHAR
STARTCHAR z
ENCODING 122
SWIDTH 438 0
DWIDTH 16 0
BBX 14 19 1 0
BITMAP
7FFFFFC0
7FFFFFC0
6AAABFC0
00003F40
0000BE00
0001FC00
0003F400
000BE000
001FC000
003F8000
00BF0000
01FD0000
02F80000
07F00000
0FD00000
2F800000
7FAAAA90
7FFFFFD0
7FFFFFD0
ENDCHAR
STARTCHAR braceleft
ENCODING 123
SWIDTH 306 0
DWIDTH 11 0
BBX 9 34 1 -6
BITMAP
000280
001FC0
003F80
00BE00
00FC00
01F800
02F800
02F400
02F400
02F400
02F400
02F400
02F400
03F400
07F000
1FD000
BF8000
BF4000
6FD000
0BE000
03F000
02F400
02F400
02F400
02F400
02F400
02F400
02F800
01F800
01FC00
00BD00
003F40
001FC0
000280
ENDCHAR
STARTCHAR bar
ENCODING 124
SWIDTH 243 0
DWIDTH 9 0
BBX 3 31 3 -5
BITMAP
F8
F8
F8
F8
F8
F8
F8
F8
F8
F8
F8
F8
F8
F8
F8
F8
F8
F8
F8
F8
F8
F8
F8
F8
F8
F8
F8
F8
F8
F8
F8
ENDCHAR
STARTCHAR braceright
ENCODING 125
SWIDTH 306 0
DWIDTH 11 0
BBX 9 34 1 -6
BITMAP
A00000
FD0000
BF0000
2F8000
0FC000
0BD000
0BE000
07E000
07E000
07E000
07E000
07E000
07E000
07F000
03F400
01FD00
00BF80
003F80
00FE40
02F800
03F000
07E000
07E000
07E000
07E000
07E000
07E000
0BE000
0BD000
0FC000
1F8000
7F0000
FD0000
A00000
ENDCHAR
STARTCHAR asciitilde
ENCODING 126
SWIDTH 589 0
DWIDTH 21 0
BBX 17 7 2 7
BITMAP
02A9000540
0FFF400BC0
3FFFE00F80
7E0BF82F80
BC01FFFF00
BC007FFD00
00001BE400
ENDCHAR
STARTCHAR uni00A0
ENCODING 160
SWIDTH 229 0
DWIDTH 8 0
BBX 1 1 0 0
BITMAP
00
ENDCHAR
STARTCHAR exclamdown
ENCODING 161
SWIDTH 231 0
DWIDTH 8 0
BBX 4 25 2 -6
BITMAP
3D
BF
7E
29
00
00
00
2A
7E
7E
7E
7E
7E
7E
7E
7E
7E
7E
7E
7E
7E
7E
7F
7F
7F
ENDCHAR
STARTCHAR cent
ENCODING 162
SWIDTH 479 0
DWIDTH 17 0
BBX 15 28 1 -5
BITMAP
000BD000
000BD000
000BD000
000BD000
002FF800
01FFFF40
07FEBFC0
0FE00BE0
1FC003F0
2F4002F4
3F4001A4
3F000000
3F000000
7F000000
3F000000
3F000000
3F000000
2F4002F4
1F8003F4
0FE00BE0
07FAAFD0
01FFFF40
006FF800
000BD000
000BD000
000BD000
000BD000
00014000
ENDCHAR
STARTCHAR sterling
ENCODING 163
SWIDTH 510 0
DWIDTH 18 0
BBX 17 26 1 0
BITMAP
0006FE4000
002FFFE000
00BFEFF800
01FE02FC00
02F800FD00
03F400BE00
03F0007E00
07F0000000
07F0000000
03F0000000
03F0000000
03F0000000
7FFFF80000
7FFFF80000
6BFAA80000
03F4000000
03F4000000
03F4000000
03F4000000
03F4000000
03F4000000
07F0000000
0BE0000000
6FFAAAAA00
7FFFFFFF40
7FFFFFFF40
ENDCHAR
STARTCHAR currency
ENCODING 164
SWIDTH 712 0
DWIDTH 26 0
BBX 22 23 2 0
BITMAP
040000000100
2D01BFE40780
BF5FFFFF5FE0
BFFFFFFFFFD0
2FFF506FFF40
0BF80002FE00
0FE00000BF00
2F8000003F40
3F4000001FC0
7F0000000FC0
7E0000000FD0
7E0000000BD0
7E0000000BD0
7E0000000FD0
7F0000000FC0
3F4000001FC0
2F8000003F40
0FE00000BF00
0FF80002FF00
3FFF406FFF80
BFFFFFFFFFE0
7E1FFFFF4BD0
1801BFE40240
ENDCHAR
STARTCHAR yen
ENCODING 165
SWIDTH 463 0
DWIDTH 17 0
BBX 16 26 0 0
BITMAP
7F4000BF
3F8000FE
1FC001FC
0FD002F8
0BF003F4
07F407F0
02F80FD0
01FC1FC0
00FD2F80
00BE3F40
003FBF00
002FFD00
001FFC00
0FFFFFF4
0FFFFFF4
0557F550
0007F000
0007F000
0FFFFFF4
0FFFFFF4
0157F550
0007F000
0007F000
0007F000
0007F000
0007F000
ENDCHAR
STARTCHAR brokenbar
ENCODING 166
SWIDTH 239 0
DWIDTH 9 0
BBX 4 31 2 -5
BITMAP
7F
7F
7F
7F
7F
7F
7F
7F
7F
7F
7F
7F
7F
7F
00
00
00
7F
7F
7F
7F
7F
7F
7F
7F
7F
7F
7F
7F
7F
7F
ENDCHAR
STARTCHAR section
ENCODING 167
SWIDTH 537 0
DWIDTH 19 0
BBX 17 35 1 -9
BITMAP
001BFA0000
01FFFFD000
07FEAFF400
0FE002FC00
1FC000FE00
2F80007E00
2F80003F00
2F80002A00
1FC0000000
0FE4000000
07FE400000
03FFF90000
0BFFFF9000
2FD6FFF400
3F401FFD00
7F0001FE00
7F00007F00
7F00003F40
3F40002F40
2FD0002F40
1FF9007F00
07FFE5FE00
00BFFFF800
001BFFF000
00006FF800
000007FC00
000000FD00
6A0000BE00
7F00007E00
3F0000BE00
3F8000FD00
1FE002FC00
0BFEAFF400
02FFFFD000
006BFA0000
ENDCHAR
STARTCHAR dieresis
ENCODING 168
SWIDTH 417 0
DWIDTH 15 0
BBX 11 4 2 22
BITMAP
6800A4
FD02FC
FE02FC
B801F8
ENDCHAR
STARTCHAR copyright
ENCODING 169
SWIDTH 785 0
DWIDTH 28 0
BBX 26 26 1 0
BITMAP
00001BFE400000
0002FFFFF90000
001FE505BF4000
007E40000BE000
01F8000001F800
07D00BFA007D00
0B807FFFD02F00
1F00FE5BF00F40
2E02F401F40780
3D03E000F803C0
7C03D000A402D0
7807D0000002D0
7807D0000002E0
7807D0000002E0
7807D0000002D0
3C03D000A402D0
3D03E000F803C0
2E02F401F40780
1F00FE5BF00F40
0B807FFFD02F00
03D00BFA007D00
01F8000001F800
007E40000BE000
001FE505BF4000
0002FFFFF90000
00001BFE800000
ENDCHAR
STARTCHAR ordfeminine
ENCODING 170
SWIDTH 395 0
DWIDTH 14 0
BBX 10 14 2 12
BITMAP
06FD00
1FFF80
3FAFD0
7E07D0
1503E0
0003E0
06FFE0
2FFFE0
7E43E0
7D03E0
7D03E0
7F6FE0
2FFFE0
0BE6F0
ENDCHAR
STARTCHAR guillemotleft
ENCODING 171
SWIDTH 417 0
DWIDTH 15 0
BBX 11 14 2 3
BITMAP
01F07C
03E0F8
0BC2F0
0F83E0
2F0BC0
7D1F40
FC3F00
FC3F00
7D1F40
2F0BC0
0F83E0
0BC2F0
03E0F8
01F07C
ENDCHAR
STARTCHAR logicalnot
ENCODING 172
SWIDTH 487 0
DWIDTH 18 0
BBX 13 7 2 7
BITMAP
BFFFFF80
BFFFFF80
AAAABF80
00002F80
00002F80
00002F80
00002F80
ENDCHAR
STARTCHAR uni00AD
ENCODING 173
SWIDTH 248 0
DWIDTH 9 0
BBX 8 3 0 9
BITMAP
7FFF
7FFF
2AAA
ENDCHAR
STARTCHAR registered
ENCODING 174
SWIDTH 786 0
DWIDTH 28 0
BBX 26 26 1 0
BITMAP
00001BFE400000
0002FFFFF80000
001FE505BF4000
00BE40000BE000
01F8000001F800
07D0FFFE007D00
0B80FFFFD02F00
1F00F957F00F40
2E00F401F40780
3C00F400F403C0
7C00F401F402D0
7800F407F002D0
7800FFFFD002E0
7800FFFF8002D0
7800F957F002D0
7C00F401F402D0
3D00F400F403C0
2E00F400F40780
1F00F400F40F40
0B80F400F82F00
07D00000007D00
01F4000001F800
007E40000BE000
001FE505BF4000
0002FFFFF80000
00001BFE400000
ENDCHAR
STARTCHAR macron
ENCODING 175
SWIDTH 414 0
DWIDTH 15 0
BBX 11 3 2 22
BITMAP
BFFFF8
BFFFF8
6AAAA4
ENDCHAR
STARTCHAR degree
ENCODING 176
SWIDTH 373 0
DWIDTH 13 0
BBX 9 10 2 16
BITMAP
06F800
1FFF00
7E5F80
B807C0
B803C0
B807C0
7D0B80
2FFF40
0BFD00
005000
ENDCHAR
STARTCHAR plusminus
ENCODING 177
SWIDTH 469 0
DWIDTH 17 0
BBX 14 23 2 0
BITMAP
00050000
002F0000
002F0000
002F0000
002F0000
002F0000
002F0000
002F0000
FFFFFFD0
FFFFFFD0
AABFAA90
002F0000
002F0000
002F0000
002F0000
002F0000
002F0000
002F0000
00000000
00000000
6AAAAA40
BFFFFF80
BFFFFF80
ENDCHAR
STARTCHAR uni00B2
ENCODING 178
SWIDTH 329 0
DWIDTH 12 0
BBX 10 14 1 12
BITMAP
06F900
2FFF40
7E5F80
BC0BC0
680BC0
000FC0
002F40
007E00
01F800
07F000
0FC000
3F5540
7FFFE0
7FFFE0
ENDCHAR
STARTCHAR uni00B3
ENCODING 179
SWIDTH 329 0
DWIDTH 12 0
BBX 10 14 1 12
BITMAP
0BF900
3FFF80
7E5FC0
540BC0
001F80
02FE00
02FF40
001FC0
0007D0
5407D0
BC0BC0
7E5F80
2FFF40
0BF800
ENDCHAR
STARTCHAR acute
ENCODING 180
SWIDTH 313 0
DWIDTH 11 0
BBX 7 5 2 22
BITMAP
02FC
0BF0
1FD0
3F40
6D00
ENDCHAR
STARTCHAR mu
ENCODING 181
SWIDTH 498 0
DWIDTH 18 0
BBX 14 26 2 -7
BITMAP
7E000BD0
7E000BD0
7E000BD0
7E000BD0
7E000BD0
7E000BD0
7E000BD0
7E000BD0
7E000BD0
7E000BD0
7E000BD0
7E000BD0
7E000BD0
7F000BD0
7F400FD0
7F802FD0
7FFAFFD0
7FFFFBD0
7E6F87D0
7E000000
7E000000
7E000000
7E000000
7E000000
7E000000
7E000000
ENDCHAR
STARTCHAR paragraph
ENCODING 182
SWIDTH 434 0
DWIDTH 16 0
BBX 12 26 1 0
BITMAP
001AA9
01FFFE
0BFFFE
1FFFFE
3FFFFE
7FFFFE
BFFFFE
BFFFFE
BFFFFE
BFFFFE
BFFFFE
7FFFFE
3FFFFE
2FFFFE
0BFFFE
02FFFE
006BFE
00007E
00007E
00007E
00007E
00007E
00007E
00007E
00007E
00007E
ENDCHAR
STARTCHAR periodcentered
ENCODING 183
SWIDTH 243 0
DWIDTH 9 0
BBX 4 4 2 11
BITMAP
2E
7F
7F
2D
ENDCHAR
STARTCHAR cedilla
ENCODING 184
SWIDTH 229 0
DWIDTH 8 0
BBX 5 7 2 -7
BITMAP
B800
BE00
1F80
0B80
0F80
BF40
B900
ENDCHAR
STARTCHAR uni00B9
ENCODING 185
SWIDTH 329 0
DWIDTH 12 0
BBX 6 14 2 12
BITMAP
01A0
2FF0
FFF0
E7F0
02F0
02F0
02F0
02F0
02F0
02F0
02F0
02F0
02F0
02F0
ENDCHAR
STARTCHAR ordmasculine
ENCODING 186
SWIDTH 402 0
DWIDTH 15 0
BBX 11 14 2 12
BITMAP
06F900
1FFF80
3FAFD0
7E03F0
BC02F4
FC01F4
F801F4
F801F4
FC01F4
BC02F4
7D03F0
3F9FD0
1FFF80
06FD00
ENDCHAR
STARTCHAR guillemotright
ENCODING 187
SWIDTH 417 0
DWIDTH 15 0
BBX 12 14 2 3
BITMAP
F42E00
7C0F40
3E0BC0
1F43E0
0FC2F4
07E0FC
02F47E
02F47E
07E0FC
0BC2F4
1F43E0
3E0BC0
7C0F40
F42E00
ENDCHAR
STARTCHAR onequarter
ENCODING 188
SWIDTH 637 0
DWIDTH 23 0
BBX 21 26 1 0
BITMAP
007000000000
1BF000000000
BFF000000000
BAF000060000
01F0000F4000
01F0001F0000
01F0003D0000
01F000B80000
01F000F40000
01F002E00000
01F003D00000
01F00B800000
01F01F00FC00
01F02E01FC00
00007C03FC00
0000B80BFC00
0001F01FBC00
0002E02EBC00
0007C07CBC00
000F40F4BC00
001F01E0BC00
003D03FFFF80
007C03FFFF80
00240155BD00
00000000BC00
00000000BC00
ENDCHAR
STARTCHAR onehalf
ENCODING 189
SWIDTH 677 0
DWIDTH 24 0
BBX 22 26 1 0
BITMAP
00B000000000
1BF000000000
BFF000000000
BAF000080000
01F0002E0000
01F0003D0000
01F000B80000
01F001F00000
01F002E00000
01F007C00000
01F00B800000
01F01F000000
01F02D07F900
01F07C2FFF40
0000F47E5F80
0001F0BC0BC0
0003D0640BC0
0007C0000F80
000F40002F40
002E00007E00
003D0001F800
00B80007E000
00F4000FC000
0060003F5540
000000BFFFD0
000000BFFFD0
ENDCHAR
STARTCHAR threequarters
ENCODING 190
SWIDTH 673 0
DWIDTH 24 0
BBX 21 26 2 0
BITMAP
1BF800000000
7FFF40000000
BD6F80000000
540F80024000
001F8007C000
03FE000B8000
03FE001F0000
001F802E0000
000BC07C0000
000BC0B40000
F80BC1F00000
BE6F83D00000
7FFF07C0BD00
1BF80F41FD00
00001F02FD00
00003D07FD00
0000B80FBD00
0000F42E7D00
0002E03D7D00
0003D0B87D00
000B81F07D00
000F02FFFF80
002E02FFFF80
00080155BD40
000000007D00
000000007D00
ENDCHAR
STARTCHAR questiondown
ENCODING 191
SWIDTH 421 0
DWIDTH 15 0
BBX 13 26 1 -7
BITMAP
002E0000
003F4000
003F4000
00190000
00000000
00000000
00000000
002A0000
003F4000
003F0000
007E0000
00FD0000
02F80000
0BF00000
1FD00000
2F800000
7F000000
7E000000
BD000000
BD000000
BD002F80
BE002F40
7F80BF00
2FFFFE00
0BFFF800
01BF9000
ENDCHAR
STARTCHAR Agrave
ENCODING 192
SWIDTH 576 0
DWIDTH 21 0
BBX 19 33 1 0
BITMAP
00BF400000
002FC00000
000BE00000
0002F80000
0000E80000
0000000000
0000000000
0000FC0000
0001FD0000
0002FE0000
0003FF0000
0007FF4000
000BDF8000
000F8F8000
001F4BC000
002F47D000
003F03E000
007E02F000
00BD02F400
00FC01F800
01F800FC00
02F400BD00
03F0007E00
07FFFFFF00
0BFFFFFF40
0FEAAABF80
1FC0000FC0
2F80000BD0
2F40000BE0
3F000007F0
7E000003F4
BD000002F8
FD000001FC
ENDCHAR
STARTCHAR Aacute
ENCODING 193
SWIDTH 576 0
DWIDTH 21 0
BBX 19 33 1 0
BITMAP
000007F800
00000FE000
00002F8000
0000BE0000
0000B80000
0000000000
0000000000
0000FC0000
0001FD0000
0002FE0000
0003FF0000
0007FF4000
000BDF8000
000F8F8000
001F4BC000
002F47D000
003F03E000
007E02F000
00BD02F400
00FC01F800
01F800FC00
02F400BD00
03F0007E00
07FFFFFF00
0BFFFFFF40
0FEAAABF80
1FC0000FC0
2F80000BD0
2F40000BE0
3F000007F0
7E000003F4
BD000002F8
FD000001FC
ENDCHAR
STARTCHAR Acircumflex
ENCODING 194
SWIDTH 576 0
DWIDTH 21 0
BBX 19 33 1 0
BITMAP
0000F80000
0002FE0000
000BDF4000
001F4BD000
002E02A000
0000000000
0000000000
0000FC0000
0001FD0000
0002FE0000
0003FF0000
0007FF4000
000BDF8000
000F8F8000
001F4BC000
002F47D000
003F03E000
007E02F000
00BD02F400
00FC01F800
01F800FC00
02F400BD00
03F0007E00
07FFFFFF00
0BFFFFFF40
0FEAAABF80
1FC0000FC0
2F80000BD0
2F40000BE0
3F000007F0
7E000003F4
BD000002F8
FD000001FC
ENDCHAR
STARTCHAR Atilde
ENCODING 195
SWIDTH 576 0
DWIDTH 21 0
BBX 19 33 1 0
BITMAP
0005006400
002FD0B800
007FFAF400
00B87FF000
00B40B8000
0000000000
0000000000
0000FC0000
0001FD0000
0002FE0000
0003FF0000
0007FF4000
000BDF8000
000F8F8000
001F4BC000
002F47D000
003F03E000
007E02F000
00BD02F400
00FC01F800
01F800FC00
02F400BD00
03F0007E00
07FFFFFF00
0BFFFFFF40
0FEAAABF80
1FC0000FC0
2F80000BD0
2F40000BE0
3F000007F0
7E000003F4
BD000002F8
FD000001FC
ENDCHAR
STARTCHAR Adieresis
ENCODING 196
SWIDTH 576 0
DWIDTH 21 0
BBX 19 32 1 0
BITMAP
006800A400
00FD02FC00
00FE02FC00
00B801F800
0000000000
0000000000
0000FC0000
0001FD0000
0002FE0000
0003FF0000
0007FF4000
000BDF8000
000F8F8000
001F4BC000
002F47D000
003F03E000
007E02F000
00BD02F400
00FC01F800
01F800FC00
02F400BD00
03F0007E00
07FFFFFF00
0BFFFFFF40
0FEAAABF80
1FC0000FC0
2F80000BD0
2F40000BE0
3F000007F0
7E000003F4
BD000002F8
FD000001FC
ENDCHAR
STARTCHAR Aring
ENCODING 197
SWIDTH 576 0
DWIDTH 21 0
BBX 19 35 1 0
BITMAP
0001FD0000
000BAF8000
000E03C000
001D02D000
001E02C000
000BAF8000
0001F90000
0000000000
0000000000
0000FC0000
0001FD0000
0002FE0000
0003FF0000
0007FF4000
000BDF8000
000F8F8000
001F4BC000
002F47D000
003F03E000
007E02F000
00BD02F400
00FC01F800
01F800FC00
02F400BD00
03F0007E00
07FFFFFF00
0BFFFFFF40
0FEAAABF80
1FC0000FC0
2F80000BD0
2F40000BE0
3F000007F0
7E000003F4
BD000002F8
FD000001FC
ENDCHAR
STARTCHAR AE
ENCODING 198
SWIDTH 812 0
DWIDTH 29 0
BBX 29 26 0 0
BITMAP
0000007FFFFFFE00
000000BFFFFFFE00
000001FFEAAAA900
000002FFD0000000
000007FBD0000000
00000BDBD0000000
00001FCBD0000000
00002F4BD0000000
00007F0BE0000000
0000BE0BE0000000
0001FC0BE0000000
0002F80BFFFFF400
0007F407FFFFF400
000BE007FAAAA400
001FD007E0000000
002FC007E0000000
007F4007E0000000
00BFFFFFE0000000
01FFFFFFF0000000
02FFFFFFF0000000
07F80007F0000000
0BF00007F0000000
1FE00003F0000000
2FC00003FAAAAA40
7F800003FFFFFF40
BF000003FFFFFF40
ENDCHAR
STARTCHAR Ccedilla
ENCODING 199
SWIDTH 566 0
DWIDTH 20 0
BBX 17 33 2 -7
BITMAP
001BFE4000
01BFFFE000
07FFBFF800
0FF402FD00
2FD000BF00
3F40003F40
7F00002F80
7E00002F80
BE00001A40
BD00000000
BD00000000
BD00000000
BD00000000
BD00000000
BD00000000
BD00000000
BD00000000
BE00001540
7E00002F80
7F00002F80
3F40003F40
2FC0007F00
0FF401FD00
07FFAFF800
01FFFFE000
001BFA4000
0002D00000
0003F80000
00017D0000
00003E0000
00007D0000
0003FC0000
0003E00000
ENDCHAR
STARTCHAR Egrave
ENCODING 200
SWIDTH 496 0
DWIDTH 18 0
BBX 15 33 2 0
BITMAP
0BF40000
02FC0000
00BE0000
002F8000
000B8000
00000000
00000000
7FFFFFF4
7FFFFFF4
7FAAAAA4
7F000000
7F000000
7F000000
7F000000
7F000000
7F000000
7F000000
7F000000
7FFFFFC0
7FFFFFC0
7FAAAA80
7F000000
7F000000
7F000000
7F000000
7F000000
7F000000
7F000000
7F000000
7F000000
7FAAAAA4
7FFFFFF8
7FFFFFF8
ENDCHAR
STARTCHAR Eacute
ENCODING 201
SWIDTH 496 0
DWIDTH 18 0
BBX 15 33 2 0
BITMAP
00007F80
0000FE00
0002F800
000BE000
000B8000
00000000
00000000
7FFFFFF4
7FFFFFF4
7FAAAAA4
7F000000
7F000000
7F000000
7F000000
7F000000
7F000000
7F000000
7F000000
7FFFFFC0
7FFFFFC0
7FAAAA80
7F000000
7F000000
7F000000
7F000000
7F000000
7F000000
7F000000
7F000000
7F000000
7FAAAAA4
7FFFFFF8
7FFFFFF8
ENDCHAR
STARTCHAR Ecircumflex
ENCODING 202
SWIDTH 496 0
DWIDTH 18 0
BBX 15 33 2 0
BITMAP
000B8000
002FE000
00BDF800
01F47D00
02A02A00
00000000
00000000
7FFFFFF4
7FFFFFF4
7FAAAAA4
7F000000
7F000000
7F000000
7F000000
7F000000
7F000000
7F000000
7F000000
7FFFFFC0
7FFFFFC0
7FAAAA80
7F000000
7F000000
7F000000
7F000000
7F000000
7F000000
7F000000
7F000000
7F000000
7FAAAAA4
7FFFFFF8
7FFFFFF8
ENDCHAR
STARTCHAR Edieresis
ENCODING 203
SWIDTH 496 0
DWIDTH 18 0
BBX 15 32 2 0
BITMAP
06800640
0FE01FC0
0FE02FD0
0BD00B80
00000000
00000000
7FFFFFF4
7FFFFFF4
7FAAAAA4
7F000000
7F000000
7F000000
7F000000
7F000000
7F000000
7F000000
7F000000
7FFFFFC0
7FFFFFC0
7FAAAA80
7F000000
7F000000
7F000000
7F000000
7F000000
7F000000
7F000000
7F000000
7F000000
7FAAAAA4
7FFFFFF8
7FFFFFF8
ENDCHAR
STARTCHAR Igrave
ENCODING 204
SWIDTH 250 0
DWIDTH 9 0
BBX 7 33 -1 0
BITMAP
BF40
2FC0
0BE0
02F8
00B8
0000
0000
00FC
00FC
00FC
00FC
00FC
00FC
00FC
00FC
00FC
00FC
00FC
00FC
00FC
00FC
00FC
00FC
00FC
00FC
00FC
00FC
00FC
00FC
00FC
00FC
00FC
00FC
ENDCHAR
STARTCHAR Iacute
ENCODING 205
SWIDTH 250 0
DWIDTH 9 0
BBX 7 33 3 0
BITMAP
07F8
0FE0
2F80
BE00
B800
0000
0000
FC00
FC00
FC00
FC00
FC00
FC00
FC00
FC00
FC00
FC00
FC00
FC00
FC00
FC00
FC00
FC00
FC00
FC00
FC00
FC00
FC00
FC00
FC00
FC00
FC00
FC00
ENDCHAR
STARTCHAR Icircumflex
ENCODING 206
SWIDTH 250 0
DWIDTH 9 0
BBX 9 33 0 0
BITMAP
02E000
0BF800
2F7E00
7D1F40
A80A80
000000
000000
03F000
03F000
03F000
03F000
03F000
03F000
03F000
03F000
03F000
03F000
03F000
03F000
03F000
03F000
03F000
03F000
03F000
03F000
03F000
03F000
03F000
03F000
03F000
03F000
03F000
03F000
ENDCHAR
STARTCHAR Idieresis
ENCODING 207
SWIDTH 250 0
DWIDTH 9 0
BBX 12 32 -1 0
BITMAP
680064
FE01FC
FE02FD
BD00B8
000000
000000
00FC00
00FC00
00FC00
00FC00
00FC00
00FC00
00FC00
00FC00
00FC00
00FC00
00FC00
00FC00
00FC00
00FC00
00FC00
00FC00
00FC00
00FC00
00FC00
00FC00
00FC00
00FC00
00FC00
00FC00
00FC00
00FC00
ENDCHAR
STARTCHAR Eth
ENCODING 208
SWIDTH 585 0
DWIDTH 21 0
BBX 19 26 0 0
BITMAP
02FFFE9000
02FFFFF800
02FEAFFF00
02F8007F80
02F8001FD0
02F80007F0
02F80003F4
02F80002F4
02F80002F8
02F80001F8
02F80001F8
BFFFF001F8
BFFFF001F8
6BFAA001F8
02F80001F8
02F80001F8
02F80001F8
02F80002F8
02F80002F4
02F80003F4
02F80007F0
02F8001FD0
02F800BF80
02FEAFFF00
02FFFFF800
02FFFE4000
ENDCHAR
STARTCHAR Ntilde
ENCODING 209
SWIDTH 619 0
DWIDTH 22 0
BBX 18 33 2 0
BITMAP
000500A400
003FC0F400
00BFFAF000
00F4BFE000
00F01F8000
0000000000
0000000000
7F40000BD0
7F80000BD0
7FD0000BD0
7FE0000BD0
7FF4000BD0
7FF8000BD0
7FBD000BD0
7F7E000BD0
7F2F400BD0
7F1FC00BD0
7F0BD00BD0
7F07F00BD0
7F02F40BD0
7F00FC0BD0
7F00BD0BD0
7F003F0BD0
7F002F4BD0
7F000FCBD0
7F000BDBD0
7F0003FBD0
7F0002FFD0
7F0000FFD0
7F0000BFD0
7F00003FD0
7F00002FD0
7F00000FD0
ENDCHAR
STARTCHAR Ograve
ENCODING 210
SWIDTH 600 0
DWIDTH 22 0
BBX 18 33 2 0
BITMAP
01FE000000
007F400000
001FD00000
0007F00000
0002E40000
0000000000
0000000000
001BFE4000
01FFFFE000
07FFFFF800
0FF406FE00
2FD0007F00
3F40002F80
7F00001FC0
7E00000FC0
BE00000FD0
BD00000FD0
BD00000BD0
BD00000BD0
BD00000BD0
BD00000BD0
BD00000BD0
BD00000BD0
BD00000FD0
BE00000FD0
7E00000FC0
7F00001FC0
3F40002F80
2FC0007F40
0FF402FE00
07FFFFF800
01FFFFE000
001BFE4000
ENDCHAR
STARTCHAR Oacute
ENCODING 211
SWIDTH 600 0
DWIDTH 22 0
BBX 18 33 2 0
BITMAP
00000FF000
00002FC000
00007F0000
0001FD0000
0001B40000
0000000000
0000000000
001BFE4000
01FFFFE000
07FFFFF800
0FF406FE00
2FD0007F00
3F40002F80
7F00001FC0
7E00000FC0
BE00000FD0
BD00000FD0
BD00000BD0
BD00000BD0
BD00000BD0
BD00000BD0
BD00000BD0
BD00000BD0
BD00000FD0
BE00000FD0
7E00000FC0
7F00001FC0
3F40002F80
2FC0007F40
0FF402FE00
07FFFFF800
01FFFFE000
001BFE4000
ENDCHAR
STARTCHAR Ocircumflex
ENCODING 212
SWIDTH 600 0
DWIDTH 22 0
BBX 18 33 2 0
BITMAP
0001F40000
0007FC0000
001FAF0000
003E0F8000
006C079000
0000000000
0000000000
001BFE4000
01FFFFE000
07FFFFF800
0FF406FE00
2FD0007F00
3F40002F80
7F00001FC0
7E00000FC0
BE00000FD0
BD00000FD0
BD00000BD0
BD00000BD0
BD00000BD0
BD00000BD0
BD00000BD0
BD00000BD0
BD00000FD0
BE00000FD0
7E00000FC0
7F00001FC0
3F40002F80
2FC0007F40
0FF402FE00
07FFFFF800
01FFFFE000
001BFE4000
ENDCHAR
STARTCHAR Otilde
ENCODING 213
SWIDTH 600 0
DWIDTH 22 0
BBX 18 33 2 0
BITMAP
000500A000
007F80F000
00FFFAE000
01F4BFD000
01E02F4000
0000000000
0000000000
001BFE4000
01FFFFE000
07FFFFF800
0FF406FE00
2FD0007F00
3F40002F80
7F00001FC0
7E00000FC0
BE00000FD0
BD00000FD0
BD00000BD0
BD00000BD0
BD00000BD0
BD00000BD0
BD00000BD0
BD00000BD0
BD00000FD0
BE00000FD0
7E00000FC0
7F00001FC0
3F40002F80
2FC0007F40
0FF402FE00
07FFFFF800
01FFFFE000
001BFE4000
ENDCHAR
STARTCHAR Odieresis
ENCODING 214
SWIDTH 600 0
DWIDTH 22 0
BBX 18 32 2 0
BITMAP
00A4019000
02FC03F400
02FC07F800
01F402E000
0000000000
0000000000
001BFE4000
01FFFFE000
07FFFFF800
0FF406FE00
2FD0007F00
3F40002F80
7F00001FC0
7E00000FC0
BE00000FD0
BD00000FD0
BD00000BD0
BD00000BD0
BD00000BD0
BD00000BD0
BD00000BD0
BD00000BD0
BD00000FD0
BE00000FD0
7E00000FC0
7F00001FC0
3F40002F80
2FC0007F40
0FF402FE00
07FFFFF800
01FFFFE000
001BFE4000
ENDCHAR
STARTCHAR multiply
ENCODING 215
SWIDTH 470 0
DWIDTH 17 0
BBX 13 16 2 4
BITMAP
20000600
B8000F80
FE003F80
7F40BF00
1FD2FD00
0BFBF400
02FFE000
00FF8000
00FF8000
02FFD000
0BFBF400
1FD2FD00
7F80BF00
FE003F80
B8001F40
20000600
ENDCHAR
STARTCHAR Oslash
ENCODING 216
SWIDTH 600 0
DWIDTH 22 0
BBX 18 29 2 -2
BITMAP
0000000190
001BFA03D0
00BFFFDB80
02FFFFFF40
0BF806FE00
1FD000BF00
2F8000BF40
3F4001FF80
7F0002EFC0
BE0007CFD0
BD000B4BD0
FD001F0BD0
FD003D0BE0
FD007C0BE0
FD00F40BE0
FD01E00BE0
BD03D00BD0
BD0B800BD0
BE0F400FD0
7F2E001FC0
3F7D002F80
2FF8003F40
1FF000BF00
0BF406FD00
07FFFFF400
0BFFFFD000
1F1BFA0000
2D00000000
1400000000
ENDCHAR
STARTCHAR Ugrave
ENCODING 217
SWIDTH 561 0
DWIDTH 20 0
BBX 16 33 2 0
BITMAP
03FC0000
00FE0000
003F4000
001FD000
00079000
00000000
00000000
BD00007F
BD00007F
BD00007F
BD00007F
BD00007F
BD00007F
BD00007F
BD00007F
BD00007F
BD00007F
BD00007F
BD00007F
BD00007F
BD00007F
BD00007F
BD00007F
BD00007F
BD00007F
BE00007F
BE00007F
7E0000BE
7F4000FD
2FD006FC
0FFEBFF4
07FFFFD0
006FF900
ENDCHAR
STARTCHAR Uacute
ENCODING 218
SWIDTH 561 0
DWIDTH 20 0
BBX 16 33 2 0
BITMAP
00002FD0
00007F40
0001FD00
0003F400
0006D000
00000000
00000000
BD00007F
BD00007F
BD00007F
BD00007F
BD00007F
BD00007F
BD00007F
BD00007F
BD00007F
BD00007F
BD00007F
BD00007F
BD00007F
BD00007F
BD00007F
BD00007F
BD00007F
BD00007F
BE00007F
BE00007F
7E0000BE
7F4000FD
2FD006FC
0FFEBFF4
07FFFFD0
006FF900
ENDCHAR
STARTCHAR Ucircumflex
ENCODING 219
SWIDTH 561 0
DWIDTH 20 0
BBX 16 33 2 0
BITMAP
0007D000
000FF400
003EBD00
00BC2F00
01B40E40
00000000
00000000
BD00007F
BD00007F
BD00007F
BD00007F
BD00007F
BD00007F
BD00007F
BD00007F
BD00007F
BD00007F
BD00007F
BD00007F
BD00007F
BD00007F
BD00007F
BD00007F
BD00007F
BD00007F
BE00007F
BE00007F
7E0000BE
7F4000FD
2FD006FC
0FFEBFF4
07FFFFD0
006FF900
ENDCHAR
STARTCHAR Udieresis
ENCODING 220
SWIDTH 561 0
DWIDTH 20 0
BBX 16 32 2 0
BITMAP
01900680
07F00FE0
07F40FE0
02E007D0
00000000
00000000
BD00007F
BD00007F
BD00007F
BD00007F
BD00007F
BD00007F
BD00007F
BD00007F
BD00007F
BD00007F
BD00007F
BD00007F
BD00007F
BD00007F
BD00007F
BD00007F
BD00007F
BD00007F
BE00007F
BE00007F
7E0000BE
7F4000FD
2FD006FC
0FFEBFF4
07FFFFD0
006FF900
ENDCHAR
STARTCHAR Yacute
ENCODING 221
SWIDTH 524 0
DWIDTH 19 0
BBX 18 33 0 0
BITMAP
000007F800
00000FE000
00002F8000
0000BE0000
0000B80000
0000000000
0000000000
7F40000BF0
2F80000FE0
1FD0001FD0
0FE0002F80
07F0003F40
03F400BF00
02F800FD00
00FD01FC00
00BE02F400
007F03F000
002F4BE000
001F8FC000
000FEF8000
0007FF4000
0003FE0000
0002FD0000
0001FC0000
0001FC0000
0001FC0000
0001FC0000
0001FC0000
0001FC0000
0001FC0000
0001FC0000
0001FC0000
0001FC0000
ENDCHAR
STARTCHAR Thorn
ENCODING 222
SWIDTH 515 0
DWIDTH 19 0
BBX 15 26 2 0
BITMAP
7E000000
7E000000
7E000000
7E000000
7E000000
7FFFE400
7FFFFF40
7FAABFD0
7E000BF0
7E0003F4
7E0002F8
7E0001FC
7E0000FC
7E0001FC
7E0001F8
7E0002F8
7E0007F4
7E001FE0
7FFFFFC0
7FFFFE00
7FAA9400
7E000000
7E000000
7E000000
7E000000
7E000000
ENDCHAR
STARTCHAR germandbls
ENCODING 223
SWIDTH 521 0
DWIDTH 19 0
BBX 16 27 2 0
BITMAP
01BF9000
0BFFF400
1FFBFD00
3F80BE00
7F003F00
7E003F00
BD003F00
BD003F00
BD00BE00
BD00FC00
BD01F800
BD03F400
BD03F400
BD03F400
BD02F800
BD00FE00
BD007F80
BD001FE0
BD0007F4
BD0002FC
BD0000FC
BD0000FD
BD0000FC
BD1802FC
BD2FAFF4
BD2FFFE0
BD06FE40
ENDCHAR
STARTCHAR agrave
ENCODING 224
SWIDTH 479 0
DWIDTH 17 0
BBX 14 26 2 0
BITMAP
0FE00000
07F80000
01FD0000
007F0000
001E4000
00000000
00000000
01BFA000
0BFFFD00
1FFAFF00
3F407F40
7E002F80
69001F80
00001F80
00001F80
01AFFF80
0BFFFF80
2FE56F80
7F001F80
BD001F80
FC001F80
FD002F80
BE00BF80
7FFFFFC0
2FFFDFC0
06FE0FD0
ENDCHAR
STARTCHAR aacute
ENCODING 225
SWIDTH 479 0
DWIDTH 17 0
BBX 14 26 2 0
BITMAP
0000BF00
0002FC00
0007F400
000FD000
001B4000
00000000
00000000
01BFA000
0BFFFD00
1FFAFF00
3F407F40
7E002F80
69001F80
00001F80
00001F80
01AFFF80
0BFFFF80
2FE56F80
7F001F80
BD001F80
FC001F80
FD002F80
BE00BF80
7FFFFFC0
2FFFDFC0
06FE0FD0
ENDCHAR
STARTCHAR acircumflex
ENCODING 226
SWIDTH 479 0
DWIDTH 17 0
BBX 14 27 2 0
BITMAP
001F4000
007FD000
01FAF000
03F0F800
06D07900
00000000
00000000
00000000
01BFA000
0BFFFD00
1FFAFF00
3F407F40
7E002F80
69001F80
00001F80
00001F80
01AFFF80
0BFFFF80
2FE56F80
7F001F80
BD001F80
FC001F80
FD002F80
BE00BF80
7FFFFFC0
2FFFDFC0
06FE0FD0
ENDCHAR
STARTCHAR atilde
ENCODING 227
SWIDTH 479 0
DWIDTH 17 0
BBX 14 27 2 0
BITMAP
00500A00
07F80F00
0BFFAF00
1F4BFD00
1E01F800
00000000
00000000
00000000
01BFA000
0BFFFD00
1FFAFF00
3F407F40
7E002F80
69001F80
00001F80
00001F80
01AFFF80
0BFFFF80
2FE56F80
7F001F80
BD001F80
FC001F80
FD002F80
BE00BF80
7FFFFFC0
2FFFDFC0
06FE0FD0
ENDCHAR
STARTCHAR adieresis
ENCODING 228
SWIDTH 479 0
DWIDTH 17 0
BBX 14 26 2 0
BITMAP
0A401A00
2FC03F80
2FC03F80
1F802F40
00000000
00000000
00000000
01BFA000
0BFFFD00
1FFAFF00
3F407F40
7E002F80
69001F80
00001F80
00001F80
01AFFF80
0BFFFF80
2FE56F80
7F001F80
BD001F80
FC001F80
FD002F80
BE00BF80
7FFFFFC0
2FFFDFC0
06FE0FD0
ENDCHAR
STARTCHAR aring
ENCODING 229
SWIDTH 479 0
DWIDTH 17 0
BBX 14 28 2 0
BITMAP
006F8000
00FAF000
02D07800
02C03800
02D07800
01FAF000
006F8000
00000000
00000000
01BFA000
0BFFFD00
1FFAFF00
3F407F40
7E002F80
69001F80
00001F80
00001F80
01AFFF80
0BFFFF80
2FE56F80
7F001F80
BD001F80
FC001F80
FD002F80
BE00BF80
7FFFFFC0
2FFFDFC0
06FE0FD0
ENDCHAR
STARTCHAR ae
ENCODING 230
SWIDTH 728 0
DWIDTH 26 0
BBX 24 19 1 0
BITMAP
006FE406FE40
07FFFD2FFFD0
1FFAFFBFAFF4
2FD02FFD02FC
3F401FF400BD
2B000FF0007E
00000BE0007E
00000BD0007E
01AFFFFFFFFF
0BFFFFFFFFFF
2FFAAFEAAAA9
7F800BD00000
7F000BE00000
BE000BF00000
7E000FF40000
7F407FFD002C
3FEBFEBFEAFD
1FFFF82FFFF8
02FE9006FF90
ENDCHAR
STARTCHAR ccedilla
ENCODING 231
SWIDTH 461 0
DWIDTH 17 0
BBX 15 26 1 -7
BITMAP
006FE800
02FFFF40
0BFEBFC0
1FD00BE0
2F8003F0
3F0002F4
7F0001A4
7F000000
7E000000
7E000000
7E000000
7F000000
7F000000
3F0002F4
2F4003F0
1FD00BE0
0BFEBFC0
02FFFF40
006FE400
000F4000
001FD000
0006F000
0000F400
0001F400
001FE000
001E4000
ENDCHAR
STARTCHAR egrave
ENCODING 232
SWIDTH 468 0
DWIDTH 17 0
BBX 15 26 1 0
BITMAP
07F80000
01FD0000
00BF0000
002F8000
000B9000
00000000
00000000
006FE800
02FFFF40
07FEBFC0
0FD00FE0
2F8007F0
3F4003F0
3F0002F4
7F0002F4
7FFFFFF4
7FFFFFF4
7FAAAAA4
7F000000
3F000000
3F000000
2F800040
1FD002E0
0BFEAFF0
02FFFF90
006FF900
ENDCHAR
STARTCHAR eacute
ENCODING 233
SWIDTH 468 0
DWIDTH 17 0
BBX 15 26 1 0
BITMAP
00003F80
0000BE00
0002F800
0007F000
000AC000
00000000
00000000
006FE800
02FFFF40
07FEBFC0
0FD00FE0
2F8007F0
3F4003F0
3F0002F4
7F0002F4
7FFFFFF4
7FFFFFF4
7FAAAAA4
7F000000
3F000000
3F000000
2F800040
1FD002E0
0BFEAFF0
02FFFF90
006FF900
ENDCHAR
STARTCHAR ecircumflex
ENCODING 234
SWIDTH 468 0
DWIDTH 17 0
BBX 15 27 1 0
BITMAP
000BC000
002FE000
007DF800
01F87E00
02B02E00
00000000
00000000
00000000
006FE800
02FFFF40
07FEBFC0
0FD00FE0
2F8007F0
3F4003F0
3F0002F4
7F0002F4
7FFFFFF4
7FFFFFF4
7FAAAAA4
7F000000
3F000000
3F000000
2F800040
1FD002E0
0BFEAFF0
02FFFF90
006FF900
ENDCHAR
STARTCHAR edieresis
ENCODING 235
SWIDTH 468 0
DWIDTH 17 0
BBX 15 26 1 0
BITMAP
02800640
0BE01FD0
0FE01FD0
07D00B80
00000000
00000000
00000000
006FE800
02FFFF40
07FEBFC0
0FD00FE0
2F8007F0
3F4003F0
3F0002F4
7F0002F4
7FFFFFF4
7FFFFFF4
7FAAAAA4
7F000000
3F000000
3F000000
2F800040
1FD002E0
0BFEAFF0
02FFFF90
006FF900
ENDCHAR
STARTCHAR igrave
ENCODING 236
SWIDTH 234 0
DWIDTH 8 0
BBX 7 26 -1 0
BITMAP
BF00
2F80
0FE0
03F4
01E8
0000
0000
01F8
01F8
01F8
01F8
01F8
01F8
01F8
01F8
01F8
01F8
01F8
01F8
01F8
01F8
01F8
01F8
01F8
01F8
01F8
ENDCHAR
STARTCHAR iacute
ENCODING 237
SWIDTH 234 0
DWIDTH 8 0
BBX 8 26 2 0
BITMAP
02FD
07F4
0FD0
2F40
6E00
0000
0000
7E00
7E00
7E00
7E00
7E00
7E00
7E00
7E00
7E00
7E00
7E00
7E00
7E00
7E00
7E00
7E00
7E00
7E00
7E00
ENDCHAR
STARTCHAR icircumflex
ENCODING 238
SWIDTH 234 0
DWIDTH 8 0
BBX 9 27 0 0
BITMAP
07E000
0FF400
2F7D00
BD2F00
B40E40
000000
000000
000000
07E000
07E000
07E000
07E000
07E000
07E000
07E000
07E000
07E000
07E000
07E000
07E000
07E000
07E000
07E000
07E000
07E000
07E000
07E000
ENDCHAR
STARTCHAR idieresis
ENCODING 239
SWIDTH 234 0
DWIDTH 8 0
BBX 12 26 -2 0
BITMAP
190028
7F40BE
7F40BF
2E007D
000000
000000
000000
007E00
007E00
007E00
007E00
007E00
007E00
007E00
007E00
007E00
007E00
007E00
007E00
007E00
007E00
007E00
007E00
007E00
007E00
007E00
ENDCHAR
STARTCHAR eth
ENCODING 240
SWIDTH 513 0
DWIDTH 18 0
BBX 15 27 2 0
BITMAP
06400000
0BF80200
0FFF5F80
01BFFE00
001FF800
001FFC00
007FFE00
00F87F40
00502F80
00000FC0
00BF8BD0
07FFFBE0
0FFABFF0
2FD01FF0
3F4007F0
7E0003F0
BD0003F4
BD0003F4
FD0003F0
FD0003F0
BD0007F0
7E000BE0
3F400FD0
2FD02F80
0FFAFF00
02FFFD00
006FE000
ENDCHAR
STARTCHAR ntilde
ENCODING 241
SWIDTH 483 0
DWIDTH 17 0
BBX 13 27 2 0
BITMAP
01500A00
07F81F00
0FFFBE00
1F0BFD00
1E02F400
00000000
00000000
00000000
BD1BE400
BDBFFE00
BFFFFF40
BFD07F80
BF001FC0
BE000FC0
BD000FC0
BD000FC0
BD000FC0
BD000FC0
BD000FC0
BD000FC0
BD000FC0
BD000FC0
BD000FC0
BD000FC0
BD000FC0
BD000FC0
BD000FC0
ENDCHAR
STARTCHAR ograve
ENCODING 242
SWIDTH 501 0
DWIDTH 18 0
BBX 16 26 1 0
BITMAP
07F80000
01FD0000
007F4000
001FC000
000B9000
00000000
00000000
002FF800
01FFFF40
07FEBFD0
0FE00BF4
2F8002F8
3F4001FC
3F0000FD
7F0000BD
7E0000BD
7E0000BD
7E0000BD
7F0000BD
3F0000FD
3F4000FC
2F8002F8
0FE007F4
07FEBFD0
01FFFF40
002FF900
ENDCHAR
STARTCHAR oacute
ENCODING 243
SWIDTH 501 0
DWIDTH 18 0
BBX 16 26 1 0
BITMAP
00003FC0
0000BF00
0001FC00
0007F400
0006D000
00000000
00000000
002FF800
01FFFF40
07FEBFD0
0FE00BF4
2F8002F8
3F4001FC
3F0000FD
7F0000BD
7E0000BD
7E0000BD
7E0000BD
7F0000BD
3F0000FD
3F4000FC
2F8002F8
0FE007F4
07FEBFD0
01FFFF40
002FF900
ENDCHAR
STARTCHAR ocircumflex
ENCODING 244
SWIDTH 501 0
DWIDTH 18 0
BBX 16 27 1 0
BITMAP
0007D000
001FF000
007EBC00
00F83E00
01B01E40
00000000
00000000
00000000
002FF800
01FFFF40
07FEBFD0
0FE00BF4
2F8002F8
3F4001FC
3F0000FD
7F0000BD
7E0000BD
7E0000BD
7E0000BD
7F0000BD
3F0000FD
3F4000FC
2F8002F8
0FE007F4
07FEBFD0
01FFFF40
002FF900
ENDCHAR
STARTCHAR otilde
ENCODING 245
SWIDTH 501 0
DWIDTH 18 0
BBX 16 27 1 0
BITMAP
00140280
01FE03C0
03FFEB80
07D2FF40
0780BD00
00000000
00000000
00000000
002FF800
01FFFF40
07FEBFD0
0FE00BF4
2F8002F8
3F4001FC
3F0000FD
7F0000BD
7E0000BD
7E0000BD
7E0000BD
7F0000BD
3F0000FD
3F4000FC
2F8002F8
0FE007F4
07FEBFD0
01FFFF40
002FF900
ENDCHAR
STARTCHAR odieresis
ENCODING 246
SWIDTH 501 0
DWIDTH 18 0
BBX 16 26 1 0
BITMAP
02900640
0BF00FD0
0BF01FE0
07D00B80
00000000
00000000
00000000
002FF800
01FFFF40
07FEBFD0
0FE00BF4
2F8002F8
3F4001FC
3F0000FD
7F0000BD
7E0000BD
7E0000BD
7E0000BD
7F0000BD
3F0000FD
3F4000FC
2F8002F8
0FE007F4
07FEBFD0
01FFFF40
002FF900
ENDCHAR
STARTCHAR divide
ENCODING 247
SWIDTH 500 0
DWIDTH 18 0
BBX 15 19 1 3
BITMAP
00014000
000BD000
000FE000
000BD000
00014000
00000000
00000000
00000000
BFFFFFFC
BFFFFFFC
BFFFFFFC
15555554
00000000
00000000
00000000
000BD000
000FE000
000FE000
00068000
ENDCHAR
STARTCHAR oslash
ENCODING 248
SWIDTH 498 0
DWIDTH 18 0
BBX 16 23 1 -2
BITMAP
000000E0
000002D0
002BEBC0
01FFFF80
07FEBFD0
0BE01FF0
1FC02FF4
2F403DF8
3F00B4FC
7F00F0FD
7F01E0BD
7E03C0BD
7F0780BD
3F0B40FD
3F0F00FC
2F6D01F8
1FFC03F4
0FF80BF0
07FEBFD0
01FFFF40
02EBE800
03C00000
0B400000
ENDCHAR
STARTCHAR ugrave
ENCODING 249
SWIDTH 483 0
DWIDTH 17 0
BBX 13 26 2 0
BITMAP
1FE00000
07F40000
02FC0000
00BE0000
002E4000
00000000
00000000
BD000FC0
BD000FC0
BD000FC0
BD000FC0
BD000FC0
BD000FC0
BD000FC0
BD000FC0
BD000FC0
BD000FC0
BD000FC0
BD000FC0
BD000FC0
BD000FC0
BE002FC0
7F407FC0
3FFBFFC0
1FFFEFC0
02FE4FC0
ENDCHAR
STARTCHAR uacute
ENCODING 250
SWIDTH 483 0
DWIDTH 17 0
BBX 13 26 2 0
BITMAP
0000FE00
0002F800
000BE000
001FC000
002B0000
00000000
00000000
BD000FC0
BD000FC0
BD000FC0
BD000FC0
BD000FC0
BD000FC0
BD000FC0
BD000FC0
BD000FC0
BD000FC0
BD000FC0
BD000FC0
BD000FC0
BD000FC0
BE002FC0
7F407FC0
3FFBFFC0
1FFFEFC0
02FE4FC0
ENDCHAR
STARTCHAR ucircumflex
ENCODING 251
SWIDTH 483 0
DWIDTH 17 0
BBX 13 27 2 0
BITMAP
002F0000
00BF8000
01F7E000
07E1F800
0AC0B800
00000000
00000000
00000000
BD000FC0
BD000FC0
BD000FC0
BD000FC0
BD000FC0
BD000FC0
BD000FC0
BD000FC0
BD000FC0
BD000FC0
BD000FC0
BD000FC0
BD000FC0
BD000FC0
BE002FC0
7F407FC0
3FFBFFC0
1FFFEFC0
02FE4FC0
ENDCHAR
STARTCHAR udieresis
ENCODING 252
SWIDTH 483 0
DWIDTH 17 0
BBX 13 26 2 0
BITMAP
0A001900
2F807F40
3F807F40
1F402E00
00000000
00000000
00000000
BD000FC0
BD000FC0
BD000FC0
BD000FC0
BD000FC0
BD000FC0
BD000FC0
BD000FC0
BD000FC0
BD000FC0
BD000FC0
BD000FC0
BD000FC0
BD000FC0
BE002FC0
7F407FC0
3FFBFFC0
1FFFEFC0
02FE4FC0
ENDCHAR
STARTCHAR yacute
ENCODING 253
SWIDTH 416 0
DWIDTH 15 0
BBX 14 33 0 -7
BITMAP
00003F80
0000BF00
0001FC00
0007F000
0006D000
00000000
00000000
7F0003F0
3F4007F0
2F800BE0
1FC00FD0
0FD01FC0
0BD01F80
07E02F40
03F03F00
02F47E00
01F47D00
01F8BD00
00FCFC00
00BDF800
007FF400
003FF000
002FE000
001FD000
000FC000
000FC000
000F8000
001F4000
003F0000
00BE0000
1FFC0000
1FF40000
1F900000
ENDCHAR
STARTCHAR thorn
ENCODING 254
SWIDTH 508 0
DWIDTH 18 0
BBX 15 34 2 -7
BITMAP
BE000000
BE000000
BE000000
BE000000
BE000000
BE000000
BE000000
BE000000
BE1BE400
BEFFFE00
BFFEFF80
BF802FC0
BF000FD0
BE000BE0
BE0007F0
BE0003F0
BE0003F0
BE0003F4
BE0003F4
BE0003F0
BE0007F0
BE0007E0
BE000FD0
BF802FC0
BFFAFF40
BEFFFE00
BE2BE400
BE000000
BE000000
BE000000
BE000000
BE000000
BE000000
BE000000
ENDCHAR
STARTCHAR ydieresis
ENCODING 255
SWIDTH 416 0
DWIDTH 15 0
BBX 14 33 0 -7
BITMAP
02900640
0BF00FD0
0BF01FE0
07D00B80
00000000
00000000
00000000
7F0003F0
3F4007F0
2F800BE0
1FC00FD0
0FD01FC0
0BD01F80
07E02F40
03F03F00
02F47E00
01F47D00
01F8BD00
00FCFC00
00BDF800
007FF400
003FF000
002FE000
001FD000
000FC000
000FC000
000F8000
001F4000
003F0000
00BE0000
1FFC0000
1FF40000
1F900000
ENDCHAR
STARTCHAR Amacron
ENCODING 256
SWIDTH 576 0
DWIDTH 21 0
BBX 19 31 1 0
BITMAP
006AAAA400
00BFFFF800
00BFFFF800
0000000000
0000000000
0000FC0000
0001FD0000
0002FE0000
0003FF0000
0007FF4000
000BDF8000
000F8F8000
001F4BC000
002F47D000
003F03E000
007E02F000
00BD02F400
00FC01F800
01F800FC00
02F400BD00
03F0007E00
07FFFFFF00
0BFFFFFF40
0FEAAABF80
1FC0000FC0
2F80000BD0
2F40000BE0
3F000007F0
7E000003F4
BD000002F8
FD000001FC
ENDCHAR
STARTCHAR amacron
ENCODING 257
SWIDTH 479 0
DWIDTH 17 0
BBX 14 25 2 0
BITMAP
0AAAAA00
0FFFFF00
0FFFFF00
00000000
00000000
00000000
01BFA000
0BFFFD00
1FFAFF00
3F407F40
7E002F80
69001F80
00001F80
00001F80
01AFFF80
0BFFFF80
2FE56F80
7F001F80
BD001F80
FC001F80
FD002F80
BE00BF80
7FFFFFC0
2FFFDFC0
06FE0FD0
ENDCHAR
STARTCHAR Abreve
ENCODING 258
SWIDTH 576 0
DWIDTH 21 0
BBX 19 30 1 0
BITMAP
00BC00F800
00BD01F400
007F47F000
001FFFD000
0007FE4000
0001FD0000
0002FE0000
0003FF0000
0007FF4000
000BDF8000
000F8F8000
001F4BC000
002F47D000
003F03E000
007E02F000
00BD02F400
00FC01F800
01F800FC00
02F400BD00
03F0007E00
07FFFFFF00
0BFFFFFF40
0FEAAABF80
1FC0000FC0
2F80000BD0
2F40000BE0
3F000007F0
7E000003F4
BD000002F8
FD000001FC
ENDCHAR
STARTCHAR abreve
ENCODING 259
SWIDTH 479 0
DWIDTH 17 0
BBX 14 26 2 0
BITMAP
1F402F00
0F802F00
0BE5BE00
02FFF800
006F9000
00000000
00000000
01BFA000
0BFFFD00
1FFAFF00
3F407F40
7E002F80
69001F80
00001F80
00001F80
01AFFF80
0BFFFF80
2FE56F80
7F001F80
BD001F80
FC001F80
FD002F80
BE00BF80
7FFFFFC0
2FFFDFC0
06FE0FD0
ENDCHAR
STARTCHAR Aogonek
ENCODING 260
SWIDTH 576 0
DWIDTH 21 0
BBX 19 33 1 -7
BITMAP
0000FC0000
0001FD0000
0002FE0000
0003FF0000
0007FF4000
000BDF8000
000F8F8000
001F4BC000
002F47D000
003F03E000
007E02F000
00BD02F400
00FC01F800
01F800FC00
02F400BD00
03F0007E00
07FFFFFF00
0BFFFFFF40
0FEAAABF80
1FC0000FC0
2F80000BD0
2F40000BE0
3F000007F0
7E000003F4
BD000002F8
FD000001FC
00000002E0
0000000F80
0000001F00
0000002F00
0000002FA4
0000001FF8
0000000BE4
ENDCHAR
STARTCHAR aogonek
ENCODING 261
SWIDTH 479 0
DWIDTH 17 0
BBX 14 26 2 -7
BITMAP
01BFA000
0BFFFD00
1FFAFF00
3F407F40
7E002F80
69001F80
00001F80
00001F80
01AFFF80
0BFFFF80
2FE56F80
7F001F80
BD001F80
FC001F80
FD002F80
BE00BF80
7FFFFFC0
2FFFDFC0
06FE0FD0
00002F40
0000BD00
0000F800
0001F400
0001F980
0000FFC0
00006F40
ENDCHAR
STARTCHAR Cacute
ENCODING 262
SWIDTH 566 0
DWIDTH 20 0
BBX 17 33 2 0
BITMAP
00001FD000
00007F8000
0000FE0000
0002F80000
0002E00000
0000000000
0000000000
001BFE4000
01BFFFE000
07FFBFF800
0FF402FD00
2FD000BF00
3F40003F40
7F00002F80
7E00002F80
BE00001A40
BD00000000
BD00000000
BD00000000
BD00000000
BD00000000
BD00000000
BD00000000
BD00000000
BE00001540
7E00002F80
7F00002F80
3F40003F40
2FC0007F00
0FF401FD00
07FFAFF800
01FFFFE000
001BFA4000
ENDCHAR
STARTCHAR cacute
ENCODING 263
SWIDTH 461 0
DWIDTH 17 0
BBX 15 26 1 0
BITMAP
0000BF40
0001FD00
0007F400
000FD000
001B4000
00000000
00000000
006FE800
02FFFF40
0BFEBFC0
1FD00BE0
2F8003F0
3F0002F4
7F0001A4
7F000000
7E000000
7E000000
7E000000
7F000000
7F000000
3F0002F4
2F4003F0
1FD00BE0
0BFEBFC0
02FFFF40
006FE400
ENDCHAR
STARTCHAR Ccircumflex
ENCODING 264
SWIDTH 566 0
DWIDTH 20 0
BBX 17 33 2 0
BITMAP
0003E00000
000BF80000
002F7D0000
00BD2F4000
00B80A8000
0000000000
0000000000
001BFE4000
01BFFFE000
07FFBFF800
0FF402FD00
2FD000BF00
3F40003F40
7F00002F80
7E00002F80
BE00001A40
BD00000000
BD00000000
BD00000000
BD00000000
BD00000000
BD00000000
BD00000000
BD00000000
BE00001540
7E00002F80
7F00002F80
3F40003F40
2FC0007F00
0FF401FD00
07FFAFF800
01FFFFE000
001BFA4000
ENDCHAR
STARTCHAR ccircumflex
ENCODING 265
SWIDTH 461 0
DWIDTH 17 0
BBX 15 27 1 0
BITMAP
001F8000
003FD000
00FAF400
02F0BC00
06D03900
00000000
00000000
00000000
006FE800
02FFFF40
0BFEBFC0
1FD00BE0
2F8003F0
3F0002F4
7F0001A4
7F000000
7E000000
7E000000
7E000000
7F000000
7F000000
3F0002F4
2F4003F0
1FD00BE0
0BFEBFC0
02FFFF40
006FE400
ENDCHAR
STARTCHAR Cdotaccent
ENCODING 266
SWIDTH 566 0
DWIDTH 20 0
BBX 17 32 2 0
BITMAP
0002900000
0007F40000
0007F40000
0002E00000
0000000000
0000000000
001BFE4000
01BFFFE000
07FFBFF800
0FF402FD00
2FD000BF00
3F40003F40
7F00002F80
7E00002F80
BE00001A40
BD00000000
BD00000000
BD00000000
BD00000000
BD00000000
BD00000000
BD00000000
BD00000000
BE00001540
7E00002F80
7F00002F80
3F40003F40
2FC0007F00
0FF401FD00
07FFAFF800
01FFFFE000
001BFA4000
ENDCHAR
STARTCHAR cdotaccent
ENCODING 267
SWIDTH 461 0
DWIDTH 17 0
BBX 15 26 1 0
BITMAP
000A4000
002FC000
002FC000
001F4000
00000000
00000000
00000000
006FE800
02FFFF40
0BFEBFC0
1FD00BE0
2F8003F0
3F0002F4
7F0001A4
7F000000
7E000000
7E000000
7E000000
7F000000
7F000000
3F0002F4
2F4003F0
1FD00BE0
0BFEBFC0
02FFFF40
006FE400
ENDCHAR
STARTCHAR Ccaron
ENCODING 268
SWIDTH 566 0
DWIDTH 20 0
BBX 17 33 2 0
BITMAP
00F80B8000
007D2F0000
002F7D0000
000BF40000
0003E00000
0000000000
0000000000
001BFE4000
01BFFFE000
07FFBFF800
0FF402FD00
2FD000BF00
3F40003F40
7F00002F80
7E00002F80
BE00001A40
BD00000000
BD00000000
BD00000000
BD00000000
BD00000000
BD00000000
BD00000000
BD00000000
BE00001540
7E00002F80
7F00002F80
3F40003F40
2FC0007F00
0FF401FD00
07FFAFF800
01FFFFE000
001BFA4000
ENDCHAR
STARTCHAR ccaron
ENCODING 269
SWIDTH 461 0
DWIDTH 17 0
BBX 15 27 1 0
BITMAP
07D03E00
02F0B800
00BAF000
003FD000
001F4000
00000000
00000000
00000000
006FE800
02FFFF40
0BFEBFC0
1FD00BE0
2F8003F0
3F0002F4
7F0001A4
7F000000
7E000000
7E000000
7E000000
7F000000
7F000000
3F0002F4
2F4003F0
1FD00BE0
0BFEBFC0
02FFFF40
006FE400
ENDCHAR
STARTCHAR Dcaron
ENCODING 270
SWIDTH 570 0
DWIDTH 21 0
BBX 17 33 2 0
BITMAP
03E02E0000
01F4BC0000
00BDF40000
002FD00000
000F800000
0000000000
0000000000
7FFFE40000
7FFFFF4000
7FABFFD000
7F001BF400
7F0002FC00
7F0000FD00
7F0000BE00
7F00007F00
7F00003F00
7F00003F40
7F00003F40
7F00003F40
7F00003F40
7F00003F40
7F00003F40
7F00003F40
7F00003F40
7F00003F00
7F00007F00
7F0000BE00
7F0000FD00
7F0002FC00
7F001BF400
7FABFFD000
7FFFFF4000
7FFFE40000
ENDCHAR
STARTCHAR dcaron
ENCODING 271
SWIDTH 569 0
DWIDTH 21 0
BBX 20 27 1 0
BITMAP
000002F4BD
000002F4BD
000002F4BC
000002F4FC
000002F5F8
000002F6F0
000002F490
000002F400
006F92F400
03FFFAF400
0BFEFFF400
1FD01BF400
2F8003F400
3F4002F400
7F0002F400
7F0002F400
7E0002F400
7E0002F400
7E0002F400
7E0002F400
7F0002F400
3F0002F400
2F8003F400
1FD00BF400
0BFEFFF400
03FFFAF400
006F91F400
ENDCHAR
STARTCHAR Dcroat
ENCODING 272
SWIDTH 585 0
DWIDTH 21 0
BBX 19 26 0 0
BITMAP
02FFFE9000
02FFFFF800
02FEAFFF00
02F8007F80
02F8001FD0
02F80007F0
02F80003F4
02F80002F4
02F80002F8
02F80001F8
02F80001F8
BFFFF001F8
BFFFF001F8
6BFAA001F8
02F80001F8
02F80001F8
02F80001F8
02F80002F8
02F80002F4
02F80003F4
02F80007F0
02F8001FD0
02F800BF80
02FEAFFF00
02FFFFF800
02FFFE4000
ENDCHAR
STARTCHAR dcroat
ENCODING 273
SWIDTH 529 0
DWIDTH 19 0
BBX 18 27 1 0
BITMAP
000002F400
000002F400
000002F400
0001FFFFD0
0001FFFFD0
0001ABFA80
000002F400
000002F400
006F92F400
02FFFAF400
07FEFFF400
0FE01FF400
2FC003F400
3F4002F400
3F0002F400
7F0002F400
7E0002F400
7E0002F400
7E0002F400
7F0002F400
3F0002F400
2F4002F400
1FC003F400
0FE01FF400
07FEFFF400
02FFFEF400
006FE1F400
ENDCHAR
STARTCHAR Emacron
ENCODING 274
SWIDTH 496 0
DWIDTH 18 0
BBX 15 31 2 0
BITMAP
06AAAA40
0BFFFF80
0BFFFF80
00000000
00000000
7FFFFFF4
7FFFFFF4
7FAAAAA4
7F000000
7F000000
7F000000
7F000000
7F000000
7F000000
7F000000
7F000000
7FFFFFC0
7FFFFFC0
7FAAAA80
7F000000
7F000000
7F000000
7F000000
7F000000
7F000000
7F000000
7F000000
7F000000
7FAAAAA4
7FFFFFF8
7FFFFFF8
ENDCHAR
STARTCHAR emacron
ENCODING 275
SWIDTH 468 0
DWIDTH 17 0
BBX 15 25 1 0
BITMAP
06AAAA40
07FFFFC0
07FFFFC0
00000000
00000000
00000000
006FE800
02FFFF40
07FEBFC0
0FD00FE0
2F8007F0
3F4003F0
3F0002F4
7F0002F4
7FFFFFF4
7FFFFFF4
7FAAAAA4
7F000000
3F000000
3F000000
2F800040
1FD002E0
0BFEAFF0
02FFFF90
006FF900
ENDCHAR
STARTCHAR Ebreve
ENCODING 276
SWIDTH 496 0
DWIDTH 18 0
BBX 15 32 2 0
BITMAP
0BC00F80
0BD01F80
03F47F00
01FFFD00
006FE400
00000000
7FFFFFF4
7FFFFFF4
7FAAAAA4
7F000000
7F000000
7F000000
7F000000
7F000000
7F000000
7F000000
7F000000
7FFFFFC0
7FFFFFC0
7FAAAA80
7F000000
7F000000
7F000000
7F000000
7F000000
7F000000
7F000000
7F000000
7F000000
7FAAAAA4
7FFFFFF8
7FFFFFF8
ENDCHAR
STARTCHAR ebreve
ENCODING 277
SWIDTH 468 0
DWIDTH 17 0
BBX 15 26 1 0
BITMAP
0BC00BC0
07D00F80
03F46F40
01FFFE00
002FE400
00000000
00000000
006FE800
02FFFF40
07FEBFC0
0FD00FE0
2F8007F0
3F4003F0
3F0002F4
7F0002F4
7FFFFFF4
7FFFFFF4
7FAAAAA4
7F000000
3F000000
3F000000
2F800040
1FD002E0
0BFEAFF0
02FFFF90
006FF900
ENDCHAR
STARTCHAR Edotaccent
ENCODING 278
SWIDTH 496 0
DWIDTH 18 0
BBX 15 32 2 0
BITMAP
00064000
001FD000
001FD000
000B8000
00000000
00000000
7FFFFFF4
7FFFFFF4
7FAAAAA4
7F000000
7F000000
7F000000
7F000000
7F000000
7F000000
7F000000
7F000000
7FFFFFC0
7FFFFFC0
7FAAAA80
7F000000
7F000000
7F000000
7F000000
7F000000
7F000000
7F000000
7F000000
7F000000
7FAAAAA4
7FFFFFF8
7FFFFFF8
ENDCHAR
STARTCHAR edotaccent
ENCODING 279
SWIDTH 468 0
DWIDTH 17 0
BBX 15 26 1 0
BITMAP
00068000
000FD000
000FE000
000B8000
00000000
00000000
00000000
006FE800
02FFFF40
07FEBFC0
0FD00FE0
2F8007F0
3F4003F0
3F0002F4
7F0002F4
7FFFFFF4
7FFFFFF4
7FAAAAA4
7F000000
3F000000
3F000000
2F800040
1FD002E0
0BFEAFF0
02FFFF90
006FF900
ENDCHAR
STARTCHAR Eogonek
ENCODING 280
SWIDTH 496 0
DWIDTH 18 0
BBX 15 33 2 -7
BITMAP
7FFFFFF4
7FFFFFF4
7FAAAAA4
7F000000
7F000000
7F000000
7F000000
7F000000
7F000000
7F000000
7F000000
7FFFFFC0
7FFFFFC0
7FAAAA80
7F000000
7F000000
7F000000
7F000000
7F000000
7F000000
7F000000
7F000000
7F000000
7FAAAAA4
7FFFFFF8
7FFFFFF8
00000F80
00003E00
00007D00
0000BC00
0000BE90
00007FE0
00001F90
ENDCHAR
STARTCHAR eogonek
ENCODING 281
SWIDTH 468 0
DWIDTH 17 0
BBX 15 26 1 -7
BITMAP
006FE800
02FFFF40
07FEBFC0
0FD00FE0
2F8007F0
3F4003F0
3F0002F4
7F0002F4
7FFFFFF4
7FFFFFF4
7FAAAAA4
7F000000
3F000000
3F000000
2F800040
1FD002E0
0BFEAFF0
02FFFFD0
006FFD00
0002F000
0007D000
000BC000
000FC000
000BE900
0007FD00
0001F900
ENDCHAR
STARTCHAR Ecaron
ENCODING 282
SWIDTH 496 0
DWIDTH 18 0
BBX 15 33 2 0
BITMAP
03E02F00
01F47D00
007DF400
002FE000
000B8000
00000000
00000000
7FFFFFF4
7FFFFFF4
7FAAAAA4
7F000000
7F000000
7F000000
7F000000
7F000000
7F000000
7F000000
7F000000
7FFFFFC0
7FFFFFC0
7FAAAA80
7F000000
7F000000
7F000000
7F000000
7F000000
7F000000
7F000000
7F000000
7F000000
7FAAAAA4
7FFFFFF8
7FFFFFF8
ENDCHAR
STARTCHAR ecaron
ENCODING 283
SWIDTH 468 0
DWIDTH 17 0
BBX 15 27 1 0
BITMAP
02F02F40
00F87D00
007DF800
001FE000
000BC000
00000000
00000000
00000000
006FE800
02FFFF40
07FEBFC0
0FD00FE0
2F8007F0
3F4003F0
3F0002F4
7F0002F4
7FFFFFF4
7FFFFFF4
7FAAAAA4
7F000000
3F000000
3F000000
2F800040
1FD002E0
0BFEAFF0
02FFFF90
006FF900
ENDCHAR
STARTCHAR Gcircumflex
ENCODING 284
SWIDTH 590 0
DWIDTH 21 0
BBX 17 33 2 0
BITMAP
0007E00000
000FF40000
002E7D0000
00BC2F0000
01B40E4000
0000000000
0000000000
001BFE4000
01FFFFE000
07FFBFF800
1FE402FE00
2F8000BF00
3F40003F40
7F00002F80
BE00001F80
BE00000000
BD00000000
BD00000000
BD00000000
BD00000000
BD003FFF80
BD003FFF80
BD002ABF80
BD00001F80
BE00001F80
BE00001F80
7F00001F80
3F40001F80
2FD0002F80
0FF400BF80
07FFAFFE00
01BFFFF800
001BFE4000
ENDCHAR
STARTCHAR gcircumflex
ENCODING 285
SWIDTH 492 0
DWIDTH 18 0
BBX 15 34 1 -7
BITMAP
000B8000
002FE000
00BDF800
01F47D00
02A02A00
00000000
00000000
00000000
006F91F4
03FFF9F4
0FFEFFF4
1FD01BF4
2F8003F4
3F4002F4
3F0002F4
7F0002F4
7E0002F4
7E0002F4
7E0002F4
7F0002F4
3F0002F4
3F4002F4
2F8003F4
1FD00BF4
0BFEFFF4
03FFFAF4
006F92F4
000002F4
000003F4
000007F0
0B400FE0
0FFABFD0
07FFFF40
006FE400
ENDCHAR
STARTCHAR Gbreve
ENCODING 286
SWIDTH 590 0
DWIDTH 21 0
BBX 17 32 2 0
BITMAP
03E007D000
03F00BD000
01F91F8000
00BFFF0000
001BF80000
0000000000
001BFE4000
01FFFFE000
07FFBFF800
1FE402FE00
2F8000BF00
3F40003F40
7F00002F80
BE00001F80
BE00000000
BD00000000
BD00000000
BD00000000
BD00000000
BD003FFF80
BD003FFF80
BD002ABF80
BD00001F80
BE00001F80
BE00001F80
7F00001F80
3F40001F80
2FD0002F80
0FF400BF80
07FFAFFE00
01BFFFF800
001BFE4000
ENDCHAR
STARTCHAR gbreve
ENCODING 287
SWIDTH 492 0
DWIDTH 18 0
BBX 15 33 1 -7
BITMAP
0BC00F80
0BD01F80
03F47F40
01FFFD00
006FE400
00000000
00000000
006F91F4
03FFF9F4
0FFEFFF4
1FD01BF4
2F8003F4
3F4002F4
3F0002F4
7F0002F4
7E0002F4
7E0002F4
7E0002F4
7F0002F4
3F0002F4
3F4002F4
2F8003F4
1FD00BF4
0BFEFFF4
03FFFAF4
006F92F4
000002F4
000003F4
000007F0
0B400FE0
0FFABFD0
07FFFF40
006FE400
ENDCHAR
STARTCHAR Gdotaccent
ENCODING 288
SWIDTH 590 0
DWIDTH 21 0
BBX 17 32 2 0
BITMAP
0002900000
000BF00000
000BF00000
0007D00000
0000000000
0000000000
001BFE4000
01FFFFE000
07FFBFF800
1FE402FE00
2F8000BF00
3F40003F40
7F00002F80
BE00001F80
BE00000000
BD00000000
BD00000000
BD00000000
BD00000000
BD003FFF80
BD003FFF80
BD002ABF80
BD00001F80
BE00001F80
BE00001F80
7F00001F80
3F40001F80
2FD0002F80
0FF400BF80
07FFAFFE00
01BFFFF800
001BFE4000
ENDCHAR
STARTCHAR gdotaccent
ENCODING 289
SWIDTH 492 0
DWIDTH 18 0
BBX 15 33 1 -7
BITMAP
00064000
001FD000
001FD000
000B8000
00000000
00000000
00000000
006F91F4
03FFF9F4
0FFEFFF4
1FD01BF4
2F8003F4
3F4002F4
3F0002F4
7F0002F4
7E0002F4
7E0002F4
7E0002F4
7F0002F4
3F0002F4
3F4002F4
2F8003F4
1FD00BF4
0BFEFFF4
03FFFAF4
006F92F4
000002F4
000003F4
000007F0
0B400FE0
0FFABFD0
07FFFF40
006FE400
ENDCHAR
STARTCHAR uni0122
ENCODING 290
SWIDTH 590 0
DWIDTH 21 0
BBX 17 35 2 -9
BITMAP
001BFE4000
01FFFFE000
07FFBFF800
1FE402FE00
2F8000BF00
3F40003F40
7F00002F80
BE00001F80
BE00000000
BD00000000
BD00000000
BD00000000
BD00000000
BD003FFF80
BD003FFF80
BD002ABF80
BD00001F80
BE00001F80
BE00001F80
7F00001F80
3F40001F80
2FD0002F80
0FF400BF80
07FFAFFE00
01BFFFF800
001BFE4000
0000000000
0000000000
0001F80000
0001F80000
0001F40000
0002F40000
0003F00000
0007D00000
0001800000
ENDCHAR
STARTCHAR uni0123
ENCODING 291
SWIDTH 492 0
DWIDTH 18 0
BBX 15 37 1 -7
BITMAP
00018000
0003E000
0007E000
000BD000
000FC000
000FC000
000FC000
000FC000
00000000
00000000
00000000
006F91F4
03FFF9F4
0FFEFFF4
1FD01BF4
2F8003F4
3F4002F4
3F0002F4
7F0002F4
7E0002F4
7E0002F4
7E0002F4
7F0002F4
3F0002F4
3F4002F4
2F8003F4
1FD00BF4
0BFEFFF4
03FFFAF4
006F92F4
000002F4
000003F4
000007F0
0B400FE0
0FFABFD0
07FFFF40
006FE400
ENDCHAR
STARTCHAR Hcircumflex
ENCODING 292
SWIDTH 620 0
DWIDTH 22 0
BBX 18 33 2 0
BITMAP
0002F40000
0007FC0000
001FAE0000
003E0F8000
006C079000
0000000000
0000000000
7F00000BE0
7F00000BE0
7F00000BE0
7F00000BE0
7F00000BE0
7F00000BE0
7F00000BE0
7F00000BE0
7F00000BE0
7F00000BE0
7F00000BE0
7FFFFFFFE0
7FFFFFFFE0
7FAAAAAFE0
7F00000BE0
7F00000BE0
7F00000BE0
7F00000BE0
7F00000BE0
7F00000BE0
7F00000BE0
7F00000BE0
7F00000BE0
7F00000BE0
7F00000BE0
7F00000BE0
ENDCHAR
STARTCHAR hcircumflex
ENCODING 293
SWIDTH 482 0
DWIDTH 17 0
BBX 13 33 2 0
BITMAP
00BD0000
01FF0000
07DB8000
0F87E000
1B01E400
00000000
BD000000
BD000000
BD000000
BD000000
BD000000
BD000000
BD000000
BD000000
BD1BE400
BDBFFE00
BFFFFF40
BFD07F80
BF001FC0
BE000FC0
BD000FC0
BD000FC0
BD000FC0
BD000FC0
BD000FC0
BD000FC0
BD000FC0
BD000FC0
BD000FC0
BD000FC0
BD000FC0
BD000FC0
BD000FC0
ENDCHAR
STARTCHAR Hbar
ENCODING 294
SWIDTH 611 0
DWIDTH 22 0
BBX 22 26 0 0
BITMAP
07F00000BE00
07F00000BE00
07F00000BE00
07F00000BE00
07F00000BE00
7FFFFFFFFFD0
7FFFFFFFFFD0
2BFAAAAAFE90
07F00000BE00
07F00000BE00
07F00000BE00
07FFFFFFFE00
07FFFFFFFE00
07FAAAAAFE00
07F00000BE00
07F00000BE00
07F00000BE00
07F00000BE00
07F00000BE00
07F00000BE00
07F00000BE00
07F00000BE00
07F00000BE00
07F00000BE00
07F00000BE00
07F00000BE00
ENDCHAR
STARTCHAR hbar
ENCODING 295
SWIDTH 497 0
DWIDTH 18 0
BBX 17 27 -1 0
BITMAP
00FC000000
00FC000000
00FC000000
7FFFF40000
7FFFF40000
6AFEA40000
00FC000000
00FC000000
00FC2FE000
00FDFFFD00
00FFFBFE00
00FF80BF40
00FE002F40
00FC002F80
00FC001F80
00FC001F80
00FC001F80
00FC001F80
00FC001F80
00FC001F80
00FC001F80
00FC001F80
00FC001F80
00FC001F80
00FC001F80
00FC001F80
00FC001F80
ENDCHAR
STARTCHAR Itilde
ENCODING 296
SWIDTH 250 0
DWIDTH 9 0
BBX 11 33 -1 0
BITMAP
050064
2FD078
7FFAF4
B87FF0
B40B90
000000
000000
00FC00
00FC00
00FC00
00FC00
00FC00
00FC00
00FC00
00FC00
00FC00
00FC00
00FC00
00FC00
00FC00
00FC00
00FC00
00FC00
00FC00
00FC00
00FC00
00FC00
00FC00
00FC00
00FC00
00FC00
00FC00
00FC00
ENDCHAR
STARTCHAR itilde
ENCODING 297
SWIDTH 234 0
DWIDTH 8 0
BBX 11 27 -1 0
BITMAP
050064
3FD0B4
BFFAF4
F47FE0
F01F80
000000
000000
000000
01F800
01F800
01F800
01F800
01F800
01F800
01F800
01F800
01F800
01F800
01F800
01F800
01F800
01F800
01F800
01F800
01F800
01F800
01F800
ENDCHAR
STARTCHAR Imacron
ENCODING 298
SWIDTH 250 0
DWIDTH 9 0
BBX 11 31 -1 0
BITMAP
6AAAA4
BFFFF8
BFFFF8
000000
000000
00FC00
00FC00
00FC00
00FC00
00FC00
00FC00
00FC00
00FC00
00FC00
00FC00
00FC00
00FC00
00FC00
00FC00
00FC00
00FC00
00FC00
00FC00
00FC00
00FC00
00FC00
00FC00
00FC00
00FC00
00FC00
00FC00
ENDCHAR
STARTCHAR imacron
ENCODING 299
SWIDTH 234 0
DWIDTH 8 0
BBX 11 25 -1 0
BITMAP
6AAAA4
BFFFF4
BFFFF4
000000
000000
000000
01F800
01F800
01F800
01F800
01F800
01F800
01F800
01F800
01F800
01F800
01F800
01F800
01F800
01F800
01F800
01F800
01F800
01F800
01F800
ENDCHAR
STARTCHAR Ibreve
ENCODING 300
SWIDTH 250 0
DWIDTH 9 0
BBX 11 32 -1 0
BITMAP
BC00F8
BD01F8
3F47F0
1FFFD0
06FE40
000000
00FC00
00FC00
00FC00
00FC00
00FC00
00FC00
00FC00
00FC00
00FC00
00FC00
00FC00
00FC00
00FC00
00FC00
00FC00
00FC00
00FC00
00FC00
00FC00
00FC00
00FC00
00FC00
00FC00
00FC00
00FC00
00FC00
ENDCHAR
STARTCHAR ibreve
ENCODING 301
SWIDTH 234 0
DWIDTH 8 0
BBX 11 26 -1 0
BITMAP
F801F4
BC02F4
7E47F0
2FFFD0
06FE00
000000
000000
01F800
01F800
01F800
01F800
01F800
01F800
01F800
01F800
01F800
01F800
01F800
01F800
01F800
01F800
01F800
01F800
01F800
01F800
01F800
ENDCHAR
STARTCHAR Iogonek
ENCODING 302
SWIDTH 250 0
DWIDTH 9 0
BBX 6 33 0 -7
BITMAP
03F0
03F0
03F0
03F0
03F0
03F0
03F0
03F0
03F0
03F0
03F0
03F0
03F0
03F0
03F0
03F0
03F0
03F0
03F0
03F0
03F0
03F0
03F0
03F0
03F0
03F0
0BD0
2F40
3E00
7D00
7E60
3FF0
1BE0
ENDCHAR
STARTCHAR iogonek
ENCODING 303
SWIDTH 229 0
DWIDTH 8 0
BBX 6 33 0 -7
BITMAP
0290
07E0
0BF0
03D0
0000
0000
0000
07E0
07E0
07E0
07E0
07E0
07E0
07E0
07E0
07E0
07E0
07E0
07E0
07E0
07E0
07E0
07E0
07E0
07E0
07E0
0F80
3E00
7D00
BC00
BE90
7FE0
1F90
ENDCHAR
STARTCHAR Idotaccent
ENCODING 304
SWIDTH 250 0
DWIDTH 9 0
BBX 5 32 2 0
BITMAP
1900
7F40
7F40
2E00
0000
0000
3F00
3F00
3F00
3F00
3F00
3F00
3F00
3F00
3F00
3F00
3F00
3F00
3F00
3F00
3F00
3F00
3F00
3F00
3F00
3F00
3F00
3F00
3F00
3F00
3F00
3F00
ENDCHAR
STARTCHAR dotlessi
ENCODING 305
SWIDTH 234 0
DWIDTH 8 0
BBX 4 19 2 0
BITMAP
7E
7E
7E
7E
7E
7E
7E
7E
7E
7E
7E
7E
7E
7E
7E
7E
7E
7E
7E
ENDCHAR
STARTCHAR IJ
ENCODING 306
SWIDTH 733 0
DWIDTH 26 0
BBX 21 26 3 0
BITMAP
FC0000001F80
FC0000001F80
FC0000001F80
FC0000001F80
FC0000001F80
FC0000001F80
FC0000001F80
FC0000001F80
FC0000001F80
FC0000001F80
FC0000001F80
FC0000001F80
FC0000001F80
FC0000001F80
FC0000001F80
FC0000001F80
FC0000001F80
FC0000001F80
FC0150001F80
FC03F4002F80
FC02F8002F80
FC02FC007F40
FC00FE01FF00
FC00BFEFFD00
FC002FFFF400
FC0006FE8000
ENDCHAR
STARTCHAR ij
ENCODING 307
SWIDTH 452 0
DWIDTH 16 0
BBX 12 33 2 -7
BITMAP
290028
7E007E
BF00BE
3D007D
000000
000000
000000
7E007E
7E007E
7E007E
7E007E
7E007E
7E007E
7E007E
7E007E
7E007E
7E007E
7E007E
7E007E
7E007E
7E007E
7E007E
7E007E
7E007E
7E007E
7E007E
00007E
00007E
00007E
0000BE
000FFD
000FF8
000FE0
ENDCHAR
STARTCHAR Jcircumflex
ENCODING 308
SWIDTH 483 0
DWIDTH 17 0
BBX 16 33 1 0
BITMAP
00000BD0
00001FF0
00007DF8
0001F87E
0001B01E
00000000
00000000
000007E0
000007E0
000007E0
000007E0
000007E0
000007E0
000007E0
000007E0
000007E0
000007E0
000007E0
000007E0
000007E0
000007E0
000007E0
000007E0
000007E0
000007E0
540007E0
FD000BE0
BE000BE0
BF001FD0
3F807FC0
2FFBFF40
0BFFFD00
01BFA000
ENDCHAR
STARTCHAR jcircumflex
ENCODING 309
SWIDTH 237 0
DWIDTH 9 0
BBX 10 34 -1 -7
BITMAP
00F800
02FE00
0BDF40
1F4BD0
2E02A0
000000
000000
000000
00FC00
00FC00
00FC00
00FC00
00FC00
00FC00
00FC00
00FC00
00FC00
00FC00
00FC00
00FC00
00FC00
00FC00
00FC00
00FC00
00FC00
00FC00
00FC00
00FC00
01FC00
01FC00
02F800
6BF400
7FE000
7E4000
ENDCHAR
STARTCHAR uni0136
ENCODING 310
SWIDTH 544 0
DWIDTH 20 0
BBX 18 34 2 -8
BITMAP
7F00007F40
7F0000FE00
7F0002FC00
7F000BF400
7F001FE000
7F003F8000
7F00BF0000
7F01FD0000
7F03F80000
7F0BF00000
7F2FD00000
7F7F800000
7FFFD00000
7FFFE00000
7FF7F40000
7FD2FC0000
7F40FE0000
7F007F4000
7F002FC000
7F001FD000
7F000BF000
7F0003F800
7F0001FD00
7F0000FF00
7F00007F80
7F00002FD0
0000000000
0007E00000
0007E00000
0007E00000
000BD00000
000FC00000
001F400000
0006000000
ENDCHAR
STARTCHAR uni0137
ENCODING 311
SWIDTH 450 0
DWIDTH 16 0
BBX 14 35 2 -8
BITMAP
BD000000
BD000000
BD000000
BD000000
BD000000
BD000000
BD000000
BD000000
BD003F80
BD00BF00
BD01FD00
BD07F400
BD0FE000
BD2FC000
BD7F4000
BEFD0000
BFFD0000
BFFF0000
BFEF8000
BF1FD000
BD0BF000
BD03F400
BD01FC00
BD00BE00
BD007F40
BD002FC0
BD000FE0
00000000
007E0000
007E0000
007E0000
00BD0000
00FC0000
01F40000
00600000
ENDCHAR
STARTCHAR kgreenlandic
ENCODING 312
SWIDTH 491 0
DWIDTH 18 0
BBX 15 19 2 0
BITMAP
7E000FE0
7E002FC0
7E007F40
7E00FE00
7E02F800
7E07F000
7E1FD000
7E3F8000
7FFF0000
7FFE0000
7FFF4000
7E2FD000
7E0BF000
7E07F800
7E01FD00
7E00BF00
7E003F80
7E001FD0
7E000BF4
ENDCHAR
STARTCHAR Lacute
ENCODING 313
SWIDTH 475 0
DWIDTH 17 0
BBX 14 33 2 0
BITMAP
01FD0000
07F40000
0FE00000
2F800000
2E000000
00000000
00000000
7F000000
7F000000
7F000000
7F000000
7F000000
7F000000
7F000000
7F000000
7F000000
7F000000
7F000000
7F000000
7F000000
7F000000
7F000000
7F000000
7F000000
7F000000
7F000000
7F000000
7F000000
7F000000
7F000000
7FAAAAA0
7FFFFFF0
7FFFFFF0
ENDCHAR
STARTCHAR lacute
ENCODING 314
SWIDTH 229 0
DWIDTH 8 0
BBX 8 34 2 0
BITMAP
02FD
07F4
1FD0
3F40
6D00
0000
0000
7E00
7E00
7E00
7E00
7E00
7E00
7E00
7E00
7E00
7E00
7E00
7E00
7E00
7E00
7E00
7E00
7E00
7E00
7E00
7E00
7E00
7E00
7E00
7E00
7E00
7E00
7E00
ENDCHAR
STARTCHAR uni013B
ENCODING 315
SWIDTH 475 0
DWIDTH 17 0
BBX 14 35 2 -9
BITMAP
7F000000
7F000000
7F000000
7F000000
7F000000
7F000000
7F000000
7F000000
7F000000
7F000000
7F000000
7F000000
7F000000
7F000000
7F000000
7F000000
7F000000
7F000000
7F000000
7F000000
7F000000
7F000000
7F000000
7FAAAAA0
7FFFFFF0
7FFFFFF0
00000000
00000000
000FC000
000FC000
000F8000
001F8000
002F4000
003E0000
00180000
ENDCHAR
STARTCHAR uni013C
ENCODING 316
SWIDTH 229 0
DWIDTH 8 0
BBX 5 36 1 -9
BITMAP
1F80
1F80
1F80
1F80
1F80
1F80
1F80
1F80
1F80
1F80
1F80
1F80
1F80
1F80
1F80
1F80
1F80
1F80
1F80
1F80
1F80
1F80
1F80
1F80
1F80
1F80
1F80
0000
0000
1F80
1F80
1F40
2F40
3F00
7D00
1800
ENDCHAR
STARTCHAR Lcaron
ENCODING 317
SWIDTH 475 0
DWIDTH 17 0
BBX 14 26 2 0
BITMAP
7F01F800
7F01F800
7F01F800
7F01F400
7F02F000
7F03E000
7F018000
7F000000
7F000000
7F000000
7F000000
7F000000
7F000000
7F000000
7F000000
7F000000
7F000000
7F000000
7F000000
7F000000
7F000000
7F000000
7F000000
7FAAAAA0
7FFFFFF0
7FFFFFF0
ENDCHAR
STARTCHAR lcaron
ENCODING 318
SWIDTH 302 0
DWIDTH 11 0
BBX 9 27 2 0
BITMAP
7E0FC0
7E0FC0
7E0FC0
7E1F80
7E2F40
7E3E00
7E1800
7E0000
7E0000
7E0000
7E0000
7E0000
7E0000
7E0000
7E0000
7E0000
7E0000
7E0000
7E0000
7E0000
7E0000
7E0000
7E0000
7E0000
7E0000
7E0000
7E0000
ENDCHAR
STARTCHAR Ldot
ENCODING 319
SWIDTH 475 0
DWIDTH 17 0
BBX 14 26 2 0
BITMAP
7F000000
7F000000
7F000000
7F000000
7F000000
7F000000
7F000000
7F000000
7F000000
7F000000
7F01A000
7F03F800
7F03F800
7F01F400
7F000000
7F000000
7F000000
7F000000
7F000000
7F000000
7F000000
7F000000
7F000000
7FAAAAA0
7FFFFFF0
7FFFFFF0
ENDCHAR
STARTCHAR ldot
ENCODING 320
SWIDTH 336 0
DWIDTH 12 0
BBX 9 27 2 0
BITMAP
7E0000
7E0000
7E0000
7E0000
7E0000
7E0000
7E0000
7E0000
7E0000
7E0000
7E0000
7E0A40
7E2FC0
7E2FC0
7E1F40
7E0000
7E0000
7E0000
7E0000
7E0000
7E0000
7E0000
7E0000
7E0000
7E0000
7E0000
7E0000
ENDCHAR
STARTCHAR Lslash
ENCODING 321
SWIDTH 475 0
DWIDTH 17 0
BBX 15 26 1 0
BITMAP
1FC00000
1FC00000
1FC00000
1FC00000
1FC00000
1FC00000
1FC00000
1FC00000
1FC00000
1FC68000
1FEF8000
1FFE4000
FFD00000
FFC00000
5FC00000
1FC00000
1FC00000
1FC00000
1FC00000
1FC00000
1FC00000
1FC00000
1FC00000
1FEAAAA8
1FFFFFFC
1FFFFFFC
ENDCHAR
STARTCHAR lslash
ENCODING 322
SWIDTH 250 0
DWIDTH 9 0
BBX 7 27 1 0
BITMAP
1FC0
1FC0
1FC0
1FC0
1FC0
1FC0
1FC0
1FC0
1FC0
1FC0
1FC0
1FD8
1FFC
2FF4
FFC0
EFC0
1FC0
1FC0
1FC0
1FC0
1FC0
1FC0
1FC0
1FC0
1FC0
1FC0
1FC0
ENDCHAR
STARTCHAR Nacute
ENCODING 323
SWIDTH 619 0
DWIDTH 22 0
BBX 18 33 2 0
BITMAP
00000BF400
00001FD000
00007F4000
0000FD0000
0001B40000
0000000000
0000000000
7F40000BD0
7F80000BD0
7FD0000BD0
7FE0000BD0
7FF4000BD0
7FF8000BD0
7FBD000BD0
7F7E000BD0
7F2F400BD0
7F1FC00BD0
7F0BD00BD0
7F07F00BD0
7F02F40BD0
7F00FC0BD0
7F00BD0BD0
7F003F0BD0
7F002F4BD0
7F000FCBD0
7F000BDBD0
7F0003FBD0
7F0002FFD0
7F0000FFD0
7F0000BFD0
7F00003FD0
7F00002FD0
7F00000FD0
ENDCHAR
STARTCHAR nacute
ENCODING 324
SWIDTH 483 0
DWIDTH 17 0
BBX 13 26 2 0
BITMAP
0000FE00
0002FC00
000BF000
001FC000
002B0000
00000000
00000000
BD1BE400
BDBFFE00
BFFFFF40
BFD07F80
BF001FC0
BE000FC0
BD000FC0
BD000FC0
BD000FC0
BD000FC0
BD000FC0
BD000FC0
BD000FC0
BD000FC0
BD000FC0
BD000FC0
BD000FC0
BD000FC0
BD000FC0
ENDCHAR
STARTCHAR uni0145
ENCODING 325
SWIDTH 619 0
DWIDTH 22 0
BBX 18 35 2 -9
BITMAP
7F40000BD0
7F80000BD0
7FD0000BD0
7FE0000BD0
7FF4000BD0
7FF8000BD0
7FBD000BD0
7F7E000BD0
7F2F400BD0
7F1FC00BD0
7F0BD00BD0
7F07F00BD0
7F02F40BD0
7F00FC0BD0
7F00BD0BD0
7F003F0BD0
7F002F4BD0
7F000FCBD0
7F000BDBD0
7F0003FBD0
7F0002FFD0
7F0000FFD0
7F0000BFD0
7F00003FD0
7F00002FD0
7F00000FD0
0000000000
0000000000
0002F40000
0002F40000
0002F40000
0002F00000
0003E00000
0007D00000
0002800000
ENDCHAR
STARTCHAR uni0146
ENCODING 326
SWIDTH 483 0
DWIDTH 17 0
BBX 13 28 2 -9
BITMAP
BD1BE400
BDBFFE00
BFFFFF40
BFD07F80
BF001FC0
BE000FC0
BD000FC0
BD000FC0
BD000FC0
BD000FC0
BD000FC0
BD000FC0
BD000FC0
BD000FC0
BD000FC0
BD000FC0
BD000FC0
BD000FC0
BD000FC0
00000000
00000000
003F0000
003F0000
003F0000
003E0000
007D0000
00BC0000
00240000
ENDCHAR
STARTCHAR Ncaron
ENCODING 327
SWIDTH 619 0
DWIDTH 22 0
BBX 18 33 2 0
BITMAP
007D07E000
002F0F8000
000BAF0000
0003FD0000
0001F40000
0000000000
0000000000
7F40000BD0
7F80000BD0
7FD0000BD0
7FE0000BD0
7FF4000BD0
7FF8000BD0
7FBD000BD0
7F7E000BD0
7F2F400BD0
7F1FC00BD0
7F0BD00BD0
7F07F00BD0
7F02F40BD0
7F00FC0BD0
7F00BD0BD0
7F003F0BD0
7F002F4BD0
7F000FCBD0
7F000BDBD0
7F0003FBD0
7F0002FFD0
7F0000FFD0
7F0000BFD0
7F00003FD0
7F00002FD0
7F00000FD0
ENDCHAR
STARTCHAR ncaron
ENCODING 328
SWIDTH 483 0
DWIDTH 17 0
BBX 13 27 2 0
BITMAP
0BC07D00
03E1F400
00F6E000
007FC000
002F0000
00000000
00000000
00000000
BD1BE400
BDBFFE00
BFFFFF40
BFD07F80
BF001FC0
BE000FC0
BD000FC0
BD000FC0
BD000FC0
BD000FC0
BD000FC0
BD000FC0
BD000FC0
BD000FC0
BD000FC0
BD000FC0
BD000FC0
BD000FC0
BD000FC0
ENDCHAR
STARTCHAR napostrophe
ENCODING 329
SWIDTH 483 0
DWIDTH 17 0
BBX 16 27 -1 0
BITMAP
2F400000
2F400000
2F400000
3F000000
7E000000
BD000000
24000000
00000000
02F46F90
02F6FFF8
02FFFFFD
02FF41FE
02FC007F
02F8003F
02F4003F
02F4003F
02F4003F
02F4003F
02F4003F
02F4003F
02F4003F
02F4003F
02F4003F
02F4003F
02F4003F
02F4003F
02F4003F
ENDCHAR
STARTCHAR Eng
ENCODING 330
SWIDTH 599 0
DWIDTH 22 0
BBX 17 33 2 -7
BITMAP
7F00001FC0
7F80001FC0
7FC0001FC0
7FE0001FC0
7FF0001FC0
7FF8001FC0
7FFD001FC0
7FBE001FC0
7F3F401FC0
7F2F801FC0
7F0FD01FC0
7F07E01FC0
7F03F41FC0
7F01F81FC0
7F00FD1FC0
7F007E1FC0
7F003F5FC0
7F001F9FC0
7F000BDFC0
7F0007FFC0
7F0002FFC0
7F0001FFC0
7F0000BFC0
7F00007FC0
7F00002FC0
7F00001FC0
0000001FC0
0000001FC0
0000001FC0
0000002F80
000007FF40
000007FE00
000007E400
ENDCHAR
STARTCHAR eng
ENCODING 331
SWIDTH 498 0
DWIDTH 18 0
BBX 14 26 2 -7
BITMAP
BD1BE400
BDBFFE00
BEFAFF40
BF802FC0
BE000FC0
BE000FD0
BE000BD0
BE000BD0
BE000BD0
BE000BD0
BE000BD0
BE000BD0
BE000BD0
BE000BD0
BE000BD0
BE000BD0
BE000BD0
BE000BD0
BE000BD0
00000BD0
00000BD0
00000FD0
00001FC0
0003FF80
0003FF00
0003F800
ENDCHAR
STARTCHAR Omacron
ENCODING 332
SWIDTH 600 0
DWIDTH 22 0
BBX 18 31 2 0
BITMAP
00AAAAA000
00FFFFF000
00FFFFF000
0000000000
0000000000
001BFE4000
01FFFFE000
07FFFFF800
0FF406FE00
2FD0007F00
3F40002F80
7F00001FC0
7E00000FC0
BE00000FD0
BD00000FD0
BD00000BD0
BD00000BD0
BD00000BD0
BD00000BD0
BD00000BD0
BD00000BD0
BD00000FD0
BE00000FD0
7E00000FC0
7F00001FC0
3F40002F80
2FC0007F40
0FF402FE00
07FFFFF800
01FFFFE000
001BFE4000
ENDCHAR
STARTCHAR omacron
ENCODING 333
SWIDTH 501 0
DWIDTH 18 0
BBX 16 25 1 0
BITMAP
02AAAA80
03FFFFC0
03FFFFC0
00000000
00000000
00000000
002FF800
01FFFF40
07FEBFD0
0FE00BF4
2F8002F8
3F4001FC
3F0000FD
7F0000BD
7E0000BD
7E0000BD
7E0000BD
7F0000BD
3F0000FD
3F4000FC
2F8002F8
0FE007F4
07FEBFD0
01FFFF40
002FF900
ENDCHAR
STARTCHAR Obreve
ENCODING 334
SWIDTH 600 0
DWIDTH 22 0
BBX 18 32 2 0
BITMAP
01F402F000
00F803F000
00BD1BE000
003FFF8000
000BF90000
0000000000
001BFE4000
01FFFFE000
07FFFFF800
0FF406FE00
2FD0007F00
3F40002F80
7F00001FC0
7E00000FC0
BE00000FD0
BD00000FD0
BD00000BD0
BD00000BD0
BD00000BD0
BD00000BD0
BD00000BD0
BD00000BD0
BD00000FD0
BE00000FD0
7E00000FC0
7F00001FC0
3F40002F80
2FC0007F40
0FF402FE00
07FFFFF800
01FFFFE000
001BFE4000
ENDCHAR
STARTCHAR obreve
ENCODING 335
SWIDTH 501 0
DWIDTH 18 0
BBX 16 26 1 0
BITMAP
07D00BC0
03E00FC0
02F46F80
00FFFE00
002FE400
00000000
00000000
002FF800
01FFFF40
07FEBFD0
0FE00BF4
2F8002F8
3F4001FC
3F0000FD
7F0000BD
7E0000BD
7E0000BD
7E0000BD
7F0000BD
3F0000FD
3F4000FC
2F8002F8
0FE007F4
07FEBFD0
01FFFF40
002FF900
ENDCHAR
STARTCHAR Ohungarumlaut
ENCODING 336
SWIDTH 600 0
DWIDTH 22 0
BBX 18 33 2 0
BITMAP
0003F4BE00
0007E2F800
000FC7F000
001F4FD000
002A1B4000
0000000000
0000000000
001BFE4000
01FFFFE000
07FFFFF800
0FF406FE00
2FD0007F00
3F40002F80
7F00001FC0
7E00000FC0
BE00000FD0
BD00000FD0
BD00000BD0
BD00000BD0
BD00000BD0
BD00000BD0
BD00000BD0
BD00000BD0
BD00000FD0
BE00000FD0
7E00000FC0
7F00001FC0
3F40002F80
2FC0007F40
0FF402FE00
07FFFFF800
01FFFFE000
001BFE4000
ENDCHAR
STARTCHAR ohungarumlaut
ENCODING 337
SWIDTH 501 0
DWIDTH 18 0
BBX 16 26 1 0
BITMAP
000FD2F8
001F8BE0
003F1FC0
007D3F40
00A86D00
00000000
00000000
002FF800
01FFFF40
07FEBFD0
0FE00BF4
2F8002F8
3F4001FC
3F0000FD
7F0000BD
7E0000BD
7E0000BD
7E0000BD
7F0000BD
3F0000FD
3F4000FC
2F8002F8
0FE007F4
07FEBFD0
01FFFF40
002FF900
ENDCHAR
STARTCHAR OE
ENCODING 338
SWIDTH 826 0
DWIDTH 30 0
BBX 25 26 2 0
BITMAP
002BFFFFFFFF80
01FFFFFFFFFF80
07FEAFFEAAAA80
1FD002F4000000
3F4002F4000000
7F0002F4000000
BE0002F4000000
FD0002F4000000
FC0002F4000000
FC0002F4000000
FC0002F4000000
FC0002FFFFFD00
FC0002FFFFFD00
FC0002FEAAA900
FC0002F4000000
FC0002F4000000
FC0002F4000000
FC0002F4000000
FD0002F4000000
BE0002F4000000
7F0002F4000000
3F8002F4000000
1FE002F4000000
07FEABFEAAAA80
01FFFFFFFFFFC0
002BFFFFFFFFC0
ENDCHAR
STARTCHAR oe
ENCODING 339
SWIDTH 777 0
DWIDTH 28 0
BBX 26 19 1 0
BITMAP
002BE4006FE000
01FFFF42FFFD00
07FEBFCBFAFF00
0BE00BFFD02F80
1FC003FF801FC0
2F8002FF000BD0
3F4001FE000BD0
3F0000FD000BE0
3F0000FFFFFFE0
7F0000FFFFFFE0
3F0000FEAAAA90
3F0000FD000000
3F4001FE000000
2F4002FE000000
1FC003FF400000
0BE00BFFD00740
07FEBFCBFABFC0
01FFFF42FFFF40
002BE4006FE800
ENDCHAR
STARTCHAR Racute
ENCODING 340
SWIDTH 530 0
DWIDTH 19 0
BBX 17 33 2 0
BITMAP
00007F4000
0001FD0000
0003F80000
000BE00000
000B800000
0000000000
0000000000
7FFFF90000
7FFFFF8000
7FAAFFF000
7F000BF800
7F0002FC00
7F0000FD00
7F0000BD00
7F0000BE00
7F0000BE00
7F0000FD00
7F0001FD00
7F0002FC00
7F001BF400
7FFFFFE000
7FFFFF4000
7FAAFE0000
7F007F4000
7F002F8000
7F001FC000
7F000FE000
7F0007F000
7F0003F800
7F0002FC00
7F0000FD00
7F0000BF00
7F00007F40
ENDCHAR
STARTCHAR racute
ENCODING 341
SWIDTH 304 0
DWIDTH 11 0
BBX 10 26 2 0
BITMAP
001FD0
007F40
00FE00
02F800
02E000
000000
000000
BD2F00
BEFF00
BFFF00
BFD500
BF0000
BE0000
BD0000
BD0000
BD0000
BD0000
BD0000
BD0000
BD0000
BD0000
BD0000
BD0000
BD0000
BD0000
BD0000
ENDCHAR
STARTCHAR uni0156
ENCODING 342
SWIDTH 530 0
DWIDTH 19 0
BBX 17 35 2 -9
BITMAP
7FFFF90000
7FFFFF8000
7FAAFFF000
7F000BF800
7F0002FC00
7F0000FD00
7F0000BD00
7F0000BE00
7F0000BE00
7F0000FD00
7F0001FD00
7F0002FC00
7F001BF400
7FFFFFE000
7FFFFF4000
7FAAFE0000
7F007F4000
7F002F8000
7F001FC000
7F000FE000
7F0007F000
7F0003F800
7F0002FC00
7F0000FD00
7F0000BF00
7F00007F40
0000000000
0000000000
000F800000
000F800000
001F800000
001F800000
002F400000
003E000000
0018000000
ENDCHAR
STARTCHAR uni0157
ENCODING 343
SWIDTH 304 0
DWIDTH 11 0
BBX 9 28 1 -9
BITMAP
2F4BC0
2FBFC0
2FFFC0
2FF540
2FC000
2F8000
2F4000
2F4000
2F4000
2F4000
2F4000
2F4000
2F4000
2F4000
2F4000
2F4000
2F4000
2F4000
2F4000
000000
000000
1F8000
1F8000
1F4000
2F4000
3F0000
7D0000
180000
ENDCHAR
STARTCHAR Rcaron
ENCODING 344
SWIDTH 530 0
DWIDTH 19 0
BBX 17 33 2 0
BITMAP
03E03E0000
01F4BC0000
00BDF40000
002FD00000
000F800000
0000000000
0000000000
7FFFF90000
7FFFFF8000
7FAAFFF000
7F000BF800
7F0002FC00
7F0000FD00
7F0000BD00
7F0000BE00
7F0000BE00
7F0000FD00
7F0001FD00
7F0002FC00
7F001BF400
7FFFFFE000
7FFFFF4000
7FAAFE0000
7F007F4000
7F002F8000
7F001FC000
7F000FE000
7F0007F000
7F0003F800
7F0002FC00
7F0000FD00
7F0000BF00
7F00007F40
ENDCHAR
STARTCHAR rcaron
ENCODING 345
SWIDTH 304 0
DWIDTH 11 0
BBX 9 27 2 0
BITMAP
F80F80
7D2F00
2F7D00
0BF400
03E000
000000
000000
000000
BD2F00
BEFF00
BFFF00
BFD500
BF0000
BE0000
BD0000
BD0000
BD0000
BD0000
BD0000
BD0000
BD0000
BD0000
BD0000
BD0000
BD0000
BD0000
BD0000
ENDCHAR
STARTCHAR Sacute
ENCODING 346
SWIDTH 518 0
DWIDTH 19 0
BBX 16 33 1 0
BITMAP
00001FE0
00003F80
0000BE00
0002F800
0002E000
00000000
00000000
001BF900
01FFFFD0
07FFBFF4
0FE406FC
1FC000FD
2F80007F
2F40007F
2F40002A
2F800000
1FE00000
0BF90000
03FF9000
00BFFE00
001BFFD0
0000BFF8
000007FD
000000FE
0000007F
6A00003F
7F00003F
7F00007F
2F8000BE
1FE402FD
07FFAFF8
01FFFFE0
001BFE40
ENDCHAR
STARTCHAR sacute
ENCODING 347
SWIDTH 455 0
DWIDTH 16 0
BBX 14 26 1 0
BITMAP
00003F80
0000BF00
0002FC00
0007F000
000AC000
00000000
00000000
006FE400
03FFFE00
0FFAFF80
1FD02FC0
2F800FD0
2F400690
2FC00000
0FF80000
07FF9000
00BFF900
000BFF40
00007FC0
00000FE0
6A000BE0
3F400BE0
2F801FD0
1FFABFC0
07FFFF00
006FE400
ENDCHAR
STARTCHAR Scircumflex
ENCODING 348
SWIDTH 518 0
DWIDTH 19 0
BBX 16 33 1 0
BITMAP
0002E000
000BF800
002F7E00
007D1F40
00A80A80
00000000
00000000
001BF900
01FFFFD0
07FFBFF4
0FE406FC
1FC000FD
2F80007F
2F40007F
2F40002A
2F800000
1FE00000
0BF90000
03FF9000
00BFFE00
001BFFD0
0000BFF8
000007FD
000000FE
0000007F
6A00003F
7F00003F
7F00007F
2F8000BE
1FE402FD
07FFAFF8
01FFFFE0
001BFE40
ENDCHAR
STARTCHAR scircumflex
ENCODING 349
SWIDTH 455 0
DWIDTH 16 0
BBX 14 27 1 0
BITMAP
000BD000
001FF000
007DF800
01F87E00
01B01E00
00000000
00000000
00000000
006FE400
03FFFE00
0FFAFF80
1FD02FC0
2F800FD0
2F400690
2FC00000
0FF80000
07FF9000
00BFF900
000BFF40
00007FC0
00000FE0
6A000BE0
3F400BE0
2F801FD0
1FFABFC0
07FFFF00
006FE400
ENDCHAR
STARTCHAR Scedilla
ENCODING 350
SWIDTH 518 0
DWIDTH 19 0
BBX 16 33 1 -7
BITMAP
001BF900
01FFFFD0
07FFBFF4
0FE406FC
1FC000FD
2F80007F
2F40007F
2F40002A
2F800000
1FE00000
0BF90000
03FF9000
00BFFE00
001BFFD0
0000BFF8
000007FD
000000FE
0000007F
6A00003F
7F00003F
7F00007F
2F8000BE
1FE402FD
07FFAFF8
01FFFFE0
001BFE40
0002E000
0002F800
00007E00
00002E00
00003E00
0002FD00
0002E400
ENDCHAR
STARTCHAR scedilla
ENCODING 351
SWIDTH 455 0
DWIDTH 16 0
BBX 14 26 1 -7
BITMAP
006FE400
03FFFE00
0FFAFF80
1FD02FC0
2F800FD0
2F400690
2FC00000
0FF80000
07FF9000
00BFF900
000BFF40
00007FC0
00000FE0
6A000BE0
3F400BE0
2F801FD0
1FFABFC0
07FFFF00
006FE400
0007C000
000BE000
0001F800
00007C00
0000BC00
000BF400
000B9000
ENDCHAR
STARTCHAR Scaron
ENCODING 352
SWIDTH 518 0
DWIDTH 19 0
BBX 16 33 1 0
BITMAP
00F80BC0
007D1F40
001F7D00
000BF800
0002E000
00000000
00000000
001BF900
01FFFFD0
07FFBFF4
0FE406FC
1FC000FD
2F80007F
2F40007F
2F40002A
2F800000
1FE00000
0BF90000
03FF9000
00BFFE00
001BFFD0
0000BFF8
000007FD
000000FE
0000007F
6A00003F
7F00003F
7F00007F
2F8000BE
1FE402FD
07FFAFF8
01FFFFE0
001BFE40
ENDCHAR
STARTCHAR scaron
ENCODING 353
SWIDTH 455 0
DWIDTH 16 0
BBX 14 27 1 0
BITMAP
02F01F40
00F87D00
003DB800
001FF000
000BC000
00000000
00000000
00000000
006FE400
03FFFE00
0FFAFF80
1FD02FC0
2F800FD0
2F400690
2FC00000
0FF80000
07FF9000
00BFF900
000BFF40
00007FC0
00000FE0
6A000BE0
3F400BE0
2F801FD0
1FFABFC0
07FFFF00
006FE400
ENDCHAR
STARTCHAR uni0162
ENCODING 354
SWIDTH 520 0
DWIDTH 19 0
BBX 17 33 1 -7
BITMAP
FFFFFFFF80
FFFFFFFF80
AAAFFAAA80
0007F00000
0007F00000
0007F00000
0007F00000
0007F00000
0007F00000
0007F00000
0007F00000
0007F00000
0007F00000
0007F00000
0007F00000
0007F00000
0007F00000
0007F00000
0007F00000
0007F00000
0007F00000
0007F00000
0007F00000
0007F00000
0007F00000
0007F00000
0002E00000
0003F80000
00017D0000
00003E0000
00007D0000
0003FC0000
0003E00000
ENDCHAR
STARTCHAR uni0163
ENCODING 355
SWIDTH 295 0
DWIDTH 11 0
BBX 11 31 0 -7
BITMAP
02F400
02F400
02F400
02F400
02F400
BFFFD0
BFFFD0
6BFA80
02F400
02F400
02F400
02F400
02F400
02F400
02F400
02F400
02F400
02F400
02F400
02F400
02F800
01FFD0
00BFD0
002F90
000F40
001FD0
0006F0
0000F4
0001F4
001FE0
001E40
ENDCHAR
STARTCHAR Tcaron
ENCODING 356
SWIDTH 520 0
DWIDTH 19 0
BBX 17 33 1 0
BITMAP
00F80B8000
007D2F0000
002F7D0000
000BF40000
0003E00000
0000000000
0000000000
FFFFFFFF80
FFFFFFFF80
AAAFFAAA80
0007F00000
0007F00000
0007F00000
0007F00000
0007F00000
0007F00000
0007F00000
0007F00000
0007F00000
0007F00000
0007F00000
0007F00000
0007F00000
0007F00000
0007F00000
0007F00000
0007F00000
0007F00000
0007F00000
0007F00000
0007F00000
0007F00000
0007F00000
ENDCHAR
STARTCHAR tcaron
ENCODING 357
SWIDTH 314 0
DWIDTH 11 0
BBX 12 29 0 0
BITMAP
00003F
00003F
00003E
00007E
0000BD
02F4F8
02F460
02F400
02F400
02F400
BFFFD0
BFFFD0
6BFA80
02F400
02F400
02F400
02F400
02F400
02F400
02F400
02F400
02F400
02F400
02F400
02F400
02F800
01FFD0
00BFD0
002F90
ENDCHAR
STARTCHAR Tbar
ENCODING 358
SWIDTH 520 0
DWIDTH 19 0
BBX 17 26 1 0
BITMAP
FFFFFFFF80
FFFFFFFF80
AAAFFAAA80
0007F00000
0007F00000
0007F00000
0007F00000
0007F00000
0007F00000
01FFFFD000
01FFFFD000
00ABFA9000
0007F00000
0007F00000
0007F00000
0007F00000
0007F00000
0007F00000
0007F00000
0007F00000
0007F00000
0007F00000
0007F00000
0007F00000
0007F00000
0007F00000
ENDCHAR
STARTCHAR tbar
ENCODING 359
SWIDTH 295 0
DWIDTH 11 0
BBX 10 24 0 0
BITMAP
02F400
02F400
02F400
02F400
02F400
BFFFD0
BFFFD0
6BFA80
02F400
02F400
02F400
FFFFE0
FFFFE0
ABFA90
02F400
02F400
02F400
02F400
02F400
02F400
02F800
01FFD0
00FFD0
002F90
ENDCHAR
STARTCHAR Utilde
ENCODING 360
SWIDTH 561 0
DWIDTH 20 0
BBX 16 33 2 0
BITMAP
00140190
00FF43D0
02FFEBC0
03D2FF80
03C07E00
00000000
00000000
BD00007F
BD00007F
BD00007F
BD00007F
BD00007F
BD00007F
BD00007F
BD00007F
BD00007F
BD00007F
BD00007F
BD00007F
BD00007F
BD00007F
BD00007F
BD00007F
BD00007F
BD00007F
BE00007F
BE00007F
7E0000BE
7F4000FD
2FD006FC
0FFEBFF4
07FFFFD0
006FF900
ENDCHAR
STARTCHAR utilde
ENCODING 361
SWIDTH 483 0
DWIDTH 17 0
BBX 13 27 2 0
BITMAP
01500A00
07F81F00
0FFEBE00
1F1FFD00
2D02F400
00000000
00000000
00000000
BD000FC0
BD000FC0
BD000FC0
BD000FC0
BD000FC0
BD000FC0
BD000FC0
BD000FC0
BD000FC0
BD000FC0
BD000FC0
BD000FC0
BD000FC0
BD000FC0
BE002FC0
7F407FC0
3FFBFFC0
1FFFEFC0
02FE4FC0
ENDCHAR
STARTCHAR Umacron
ENCODING 362
SWIDTH 561 0
DWIDTH 20 0
BBX 16 31 2 0
BITMAP
01AAAA80
03FFFFD0
03FFFFD0
00000000
00000000
BD00007F
BD00007F
BD00007F
BD00007F
BD00007F
BD00007F
BD00007F
BD00007F
BD00007F
BD00007F
BD00007F
BD00007F
BD00007F
BD00007F
BD00007F
BD00007F
BD00007F
BD00007F
BE00007F
BE00007F
7E0000BE
7F4000FD
2FD006FC
0FFEBFF4
07FFFFD0
006FF900
ENDCHAR
STARTCHAR umacron
ENCODING 363
SWIDTH 483 0
DWIDTH 17 0
BBX 13 25 2 0
BITMAP
1AAAA900
1FFFFF00
1FFFFF00
00000000
00000000
00000000
BD000FC0
BD000FC0
BD000FC0
BD000FC0
BD000FC0
BD000FC0
BD000FC0
BD000FC0
BD000FC0
BD000FC0
BD000FC0
BD000FC0
BD000FC0
BD000FC0
BE002FC0
7F407FC0
3FFBFFC0
1FFFEFC0
02FE4FC0
ENDCHAR
STARTCHAR Ubreve
ENCODING 364
SWIDTH 561 0
DWIDTH 20 0
BBX 16 30 2 0
BITMAP
03E007D0
03F00BC0
02F92F80
00BFFF00
BD1BF87F
BD00007F
BD00007F
BD00007F
BD00007F
BD00007F
BD00007F
BD00007F
BD00007F
BD00007F
BD00007F
BD00007F
BD00007F
BD00007F
BD00007F
BD00007F
BD00007F
BD00007F
BE00007F
BE00007F
7E0000BE
7F4000FD
2FD006FC
0FFEBFF4
07FFFFD0
006FF900
ENDCHAR
STARTCHAR ubreve
ENCODING 365
SWIDTH 483 0
DWIDTH 17 0
BBX 13 26 2 0
BITMAP
2F002F00
1F403E00
0FD1BD00
07FFF800
00BF9000
00000000
00000000
BD000FC0
BD000FC0
BD000FC0
BD000FC0
BD000FC0
BD000FC0
BD000FC0
BD000FC0
BD000FC0
BD000FC0
BD000FC0
BD000FC0
BD000FC0
BD000FC0
BE002FC0
7F407FC0
3FFBFFC0
1FFFEFC0
02FE4FC0
ENDCHAR
STARTCHAR Uring
ENCODING 366
SWIDTH 561 0
DWIDTH 20 0
BBX 16 35 2 0
BITMAP
000BE400
003EBD00
00741E00
00B00F00
00B41E00
003EBD00
000BE400
00000000
00000000
BD00007F
BD00007F
BD00007F
BD00007F
BD00007F
BD00007F
BD00007F
BD00007F
BD00007F
BD00007F
BD00007F
BD00007F
BD00007F
BD00007F
BD00007F
BD00007F
BD00007F
BD00007F
BE00007F
BE00007F
7E0000BE
7F4000FD
2FD006FC
0FFEBFF4
07FFFFD0
006FF900
ENDCHAR
STARTCHAR uring
ENCODING 367
SWIDTH 483 0
DWIDTH 17 0
BBX 13 28 2 0
BITMAP
006F8000
01FAE000
03C0B400
03807400
03C0B400
01FAE000
006F8000
00000000
00000000
BD000FC0
BD000FC0
BD000FC0
BD000FC0
BD000FC0
BD000FC0
BD000FC0
BD000FC0
BD000FC0
BD000FC0
BD000FC0
BD000FC0
BD000FC0
BD000FC0
BE002FC0
7F407FC0
3FFBFFC0
1FFFEFC0
02FE4FC0
ENDCHAR
STARTCHAR Uhungarumlaut
ENCODING 368
SWIDTH 561 0
DWIDTH 20 0
BBX 16 33 2 0
BITMAP
000BE2F8
001FC7F0
002F4FD0
007E2F40
006C6E00
00000000
00000000
BD00007F
BD00007F
BD00007F
BD00007F
BD00007F
BD00007F
BD00007F
BD00007F
BD00007F
BD00007F
BD00007F
BD00007F
BD00007F
BD00007F
BD00007F
BD00007F
BD00007F
BD00007F
BE00007F
BE00007F
7E0000BE
7F4000FD
2FD006FC
0FFEBFF4
07FFFFD0
006FF900
ENDCHAR
STARTCHAR uhungarumlaut
ENCODING 369
SWIDTH 483 0
DWIDTH 17 0
BBX 14 26 2 0
BITMAP
003F0FD0
00BD2F80
00F87E00
02F5FC00
02E1B400
00000000
00000000
BD000FC0
BD000FC0
BD000FC0
BD000FC0
BD000FC0
BD000FC0
BD000FC0
BD000FC0
BD000FC0
BD000FC0
BD000FC0
BD000FC0
BD000FC0
BD000FC0
BE002FC0
7F407FC0
3FFBFFC0
1FFFEFC0
02FE4FC0
ENDCHAR
STARTCHAR Uogonek
ENCODING 370
SWIDTH 561 0
DWIDTH 20 0
BBX 16 33 2 -7
BITMAP
BD00007F
BD00007F
BD00007F
BD00007F
BD00007F
BD00007F
BD00007F
BD00007F
BD00007F
BD00007F
BD00007F
BD00007F
BD00007F
BD00007F
BD00007F
BD00007F
BD00007F
BD00007F
BE00007F
BE00007F
7E0000BE
7F4000FD
2FD006FC
0FFEBFF4
07FFFFD0
006FFE00
0000F800
0002F400
0002F000
0003E000
0002FA40
0001FF40
00007E40
ENDCHAR
STARTCHAR uogonek
ENCODING 371
SWIDTH 483 0
DWIDTH 17 0
BBX 13 26 2 -7
BITMAP
BD000FC0
BD000FC0
BD000FC0
BD000FC0
BD000FC0
BD000FC0
BD000FC0
BD000FC0
BD000FC0
BD000FC0
BD000FC0
BD000FC0
BD000FC0
BD000FC0
BE002FC0
7F407FC0
3FFBFFC0
1FFFEFC0
02FE4FC0
00002F40
00007D00
0000F800
0001F400
0001FD80
0000FFC0
00006F80
ENDCHAR
STARTCHAR Wcircumflex
ENCODING 372
SWIDTH 761 0
DWIDTH 27 0
BBX 26 33 1 0
BITMAP
000001F4000000
000007FD000000
00000FAF000000
00003F0F800000
00006D07900000
00000000000000
00000000000000
BE0002F4000FD0
7E0002F8000FD0
7F0003F8001FC0
3F0007FC001F80
3F4007FD002F80
2F400BFD002F40
1F800FBE003F40
1F800FAF003F00
0FC01F5F007E00
0FC02F1F407E00
0BD02F0F80BD00
0BE03E0B80BD00
07E07D0BC0FC00
03F07C07D0F800
03F0BC03D1F800
02F4F803E1F400
02F4F402F2F400
01F9F401F2F000
00FAF001F7F000
00FEE000FBE000
00BFE000BFD000
00BFD000BFD000
007FC0007FC000
003FC0003FC000
003F80003F8000
002F40002F4000
ENDCHAR
STARTCHAR wcircumflex
ENCODING 373
SWIDTH 649 0
DWIDTH 23 0
BBX 22 27 1 0
BITMAP
00002F000000
0000BF800000
0001F7E00000
0007E1F40000
000A80B80000
000000000000
000000000000
000000000000
FC002F000BD0
BD003F400FC0
BD007F800FC0
7E00BF801F80
3F00BFC02F40
2F00FFD02F00
2F41F7E03F00
1F82F2F07E00
0FC3E2F07D00
0BC3E1F4BC00
0BD7D0F8FC00
07EBC0BCF800
03EF807EF400
03FF407FF000
02FF403FF000
01FF002FE000
00FE001FD000
00FD000FD000
00BC000BC000
ENDCHAR
STARTCHAR Ycircumflex
ENCODING 374
SWIDTH 524 0
DWIDTH 19 0
BBX 18 33 0 0
BITMAP
0000B80000
0002FE0000
000BDF8000
001F47D000
002A02A000
0000000000
0000000000
7F40000BF0
2F80000FE0
1FD0001FD0
0FE0002F80
07F0003F40
03F400BF00
02F800FD00
00FD01FC00
00BE02F400
007F03F000
002F4BE000
001F8FC000
000FEF8000
0007FF4000
0003FE0000
0002FD0000
0001FC0000
0001FC0000
0001FC0000
0001FC0000
0001FC0000
0001FC0000
0001FC0000
0001FC0000
0001FC0000
0001FC0000
ENDCHAR
STARTCHAR ycircumflex
ENCODING 375
SWIDTH 416 0
DWIDTH 15 0
BBX 14 34 0 -7
BITMAP
000BD000
001FF000
007DB800
00F83E00
01B01E40
00000000
00000000
00000000
7F0003F0
3F4007F0
2F800BE0
1FC00FD0
0FD01FC0
0BD01F80
07E02F40
03F03F00
02F47E00
01F47D00
01F8BD00
00FCFC00
00BDF800
007FF400
003FF000
002FE000
001FD000
000FC000
000FC000
000F8000
001F4000
003F0000
00BE0000
1FFC0000
1FF40000
1F900000
ENDCHAR
STARTCHAR Ydieresis
ENCODING 376
SWIDTH 524 0
DWIDTH 19 0
BBX 18 32 0 0
BITMAP
0068006400
00FE01FC00
00FE02FD00
00BD00B800
0000000000
0000000000
7F40000BF0
2F80000FE0
1FD0001FD0
0FE0002F80
07F0003F40
03F400BF00
02F800FD00
00FD01FC00
00BE02F400
007F03F000
002F4BE000
001F8FC000
000FEF8000
0007FF4000
0003FE0000
0002FD0000
0001FC0000
0001FC0000
0001FC0000
0001FC0000
0001FC0000
0001FC0000
0001FC0000
0001FC0000
0001FC0000
0001FC0000
ENDCHAR
STARTCHAR Zacute
ENCODING 377
SWIDTH 522 0
DWIDTH 19 0
BBX 17 33 1 0
BITMAP
00001FE000
00003F8000
0000BE0000
0002F80000
0002E00000
0000000000
0000000000
7FFFFFFF00
7FFFFFFF00
6AAAAAFE00
000001FD00
000002F800
000007F000
00000FE000
00001FC000
00003F4000
0000BF0000
0000FD0000
0002F80000
0007F40000
000BE00000
001FC00000
003F800000
007F000000
00FD000000
02F8000000
07F4000000
0BE0000000
1FC0000000
3F80000000
7FAAAAAA40
7FFFFFFF40
7FFFFFFF40
ENDCHAR
STARTCHAR zacute
ENCODING 378
SWIDTH 438 0
DWIDTH 16 0
BBX 14 26 1 0
BITMAP
0000BF00
0002FC00
0007F400
000FD000
001B4000
00000000
00000000
7FFFFFC0
7FFFFFC0
6AAABFC0
00003F40
0000BE00
0001FC00
0003F400
000BE000
001FC000
003F8000
00BF0000
01FD0000
02F80000
07F00000
0FD00000
2F800000
7FAAAA90
7FFFFFD0
7FFFFFD0
ENDCHAR
STARTCHAR Zdotaccent
ENCODING 379
SWIDTH 522 0
DWIDTH 19 0
BBX 17 32 1 0
BITMAP
0001900000
0007F40000
0007F40000
0002E00000
0000000000
0000000000
7FFFFFFF00
7FFFFFFF00
6AAAAAFE00
000001FD00
000002F800
000007F000
00000FE000
00001FC000
00003F4000
0000BF0000
0000FD0000
0002F80000
0007F40000
000BE00000
001FC00000
003F800000
007F000000
00FD000000
02F8000000
07F4000000
0BE0000000
1FC0000000
3F80000000
7FAAAAAA40
7FFFFFFF40
7FFFFFFF40
ENDCHAR
STARTCHAR zdotaccent
ENCODING 380
SWIDTH 438 0
DWIDTH 16 0
BBX 14 26 1 0
BITMAP
001A0000
002F8000
003F8000
001F4000
00000000
00000000
00000000
7FFFFFC0
7FFFFFC0
6AAABFC0
00003F40
0000BE00
0001FC00
0003F400
000BE000
001FC000
003F8000
00BF0000
01FD0000
02F80000
07F00000
0FD00000
2F800000
7FAAAA90
7FFFFFD0
7FFFFFD0
ENDCHAR
STARTCHAR Zcaron
ENCODING 381
SWIDTH 522 0
DWIDTH 19 0
BBX 17 33 1 0
BITMAP
00F80BC000
007D1F4000
001F7D0000
000BF80000
0002E00000
0000000000
0000000000
7FFFFFFF00
7FFFFFFF00
6AAAAAFE00
000001FD00
000002F800
000007F000
00000FE000
00001FC000
00003F4000
0000BF0000
0000FD0000
0002F80000
0007F40000
000BE00000
001FC00000
003F800000
007F000000
00FD000000
02F8000000
07F4000000
0BE0000000
1FC0000000
3F80000000
7FAAAAAA40
7FFFFFFF40
7FFFFFFF40
ENDCHAR
STARTCHAR zcaron
ENCODING 382
SWIDTH 438 0
DWIDTH 16 0
BBX 14 27 1 0
BITMAP
07D07D00
02F0F800
00FAE000
007FC000
001F4000
00000000
00000000
00000000
7FFFFFC0
7FFFFFC0
6AAABFC0
00003F40
0000BE00
0001FC00
0003F400
000BE000
001FC000
003F8000
00BF0000
01FD0000
02F80000
07F00000
0FD00000
2F800000
7FAAAA90
7FFFFFD0
7FFFFFD0
ENDCHAR
STARTCHAR longs
ENCODING 383
SWIDTH 234 0
DWIDTH 8 0
BBX 8 27 2 0
BITMAP
01BE
0BFE
2FFA
3F80
7F00
7F00
7E00
7E00
7E00
7E00
7E00
7E00
7E00
7E00
7E00
7E00
7E00
7E00
7E00
7E00
7E00
7E00
7E00
7E00
7E00
7E00
7E00
ENDCHAR
STARTCHAR uni018F
ENCODING 399
SWIDTH 597 0
DWIDTH 22 0
BBX 19 26 1 0
BITMAP
006BFA4000
02FFFFE000
03FFFFFC00
029002FF00
0000007F80
0000001FC0
0000000BD0
00000007E0
00000003F0
00000003F4
00000003F4
00000003F4
7FFFFFFFF4
7FFFFFFFF4
7FAAAAABF4
7E000003F4
7F000003F4
7F000007F0
3F00000BE0
2F40000FD0
1F80001FC0
0FD0003F80
07F801FF00
02FFEFFC00
007FFFE000
0006FE4000
ENDCHAR
STARTCHAR florin
ENCODING 402
SWIDTH 309 0
DWIDTH 11 0
BBX 11 34 0 -7
BITMAP
000BF8
003FF8
00BFE4
00FD00
01FC00
01F800
02F800
02F800
3FFFD0
3FFFD0
2AFA90
02F800
02F800
02F800
02F800
02F800
02F800
02F800
02F800
02F800
02F800
02F800
02F800
02F800
02F800
02F800
02F800
02F800
02F800
02F400
03F400
AFF000
BFD000
BE4000
ENDCHAR
STARTCHAR Ohorn
ENCODING 416
SWIDTH 592 0
DWIDTH 21 0
BBX 21 28 1 0
BITMAP
000000001A40
000000001F40
0006FE402F40
007FFFE03F00
01FFFFF8BE00
03FD01FFFC00
0BF0007FE000
0FD0001FC000
1F80000FD000
2F40000BE000
3F400007E000
3F000007F000
7F000003F000
7F000003F000
7F000003F000
7F000003F000
7F000003F000
7F000003F000
3F000007F000
3F400007F000
2F40000BE000
1F80000FD000
0FD0001FC000
0BF0003F8000
03FD01FF0000
01FFFFFD0000
007FFFF40000
0006FE400000
ENDCHAR
STARTCHAR ohorn
ENCODING 417
SWIDTH 502 0
DWIDTH 18 0
BBX 18 21 1 0
BITMAP
00000003D0
00000007D0
002BF807C0
01FFFF5F80
07FEBFFF40
0BE00BF900
1FC003F800
2F4001FC00
3F0000FC00
7F0000FD00
7F0000BD00
7E0000BD00
7F0000BD00
7F0000FD00
3F0000FC00
2F4001F800
1FC003F400
0FE00BF000
07FEBFD000
01FFFF4000
002BE80000
ENDCHAR
STARTCHAR Uhorn
ENCODING 431
SWIDTH 608 0
DWIDTH 22 0
BBX 22 28 2 0
BITMAP
000000000140
0000000003E0
BD00007F03E0
BD00007F07D0
BD00007F0BD0
BD00007F6F80
BD00007FFF40
BD00007FF900
BD00007F4000
BD00007F0000
BD00007F0000
BD00007F0000
BD00007F0000
BD00007F0000
BD00007F0000
BD00007F0000
BD00007F0000
BD00007F0000
BD00007F0000
BD00007F0000
BE00007F0000
BE00007E0000
7F0000BE0000
3F8001FD0000
1FE007F80000
0BFEBFF00000
02FFFF800000
006FF9000000
ENDCHAR
STARTCHAR uhorn
ENCODING 432
SWIDTH 549 0
DWIDTH 20 0
BBX 18 21 2 0
BITMAP
00000001A0
00000002E0
BD000FC2E0
BD000FC7D0
BD000FFF80
BD000FF900
BD000FC000
BD000FC000
BD000FC000
BD000FC000
BD000FC000
BD000FC000
BD000FC000
BD000FC000
BD000FC000
BD000FC000
BE002FC000
7F407FC000
3FFBFFC000
1FFFEFC000
02FE4FC000
ENDCHAR
STARTCHAR uni01F0
ENCODING 496
SWIDTH 237 0
DWIDTH 9 0
BBX 10 34 -1 -7
BITMAP
3E02F0
1F4BD0
07DF40
02FE00
00B800
000000
000000
000000
00FC00
00FC00
00FC00
00FC00
00FC00
00FC00
00FC00
00FC00
00FC00
00FC00
00FC00
00FC00
00FC00
00FC00
00FC00
00FC00
00FC00
00FC00
00FC00
00FC00
01FC00
01FC00
02F800
6BF400
7FE000
7E4000
ENDCHAR
STARTCHAR Aringacute
ENCODING 506
SWIDTH 576 0
DWIDTH 21 0
BBX 19 34 1 0
BITMAP
000007D000
00001F4000
00002D0000
0000000000
0000B80000
0002DE0000
0003470000
0003470000
0003FE0000
0002FD0000
0002FE0000
0003FF0000
0007FF4000
000BDF8000
000F8F8000
001F4BC000
002F47D000
003F03E000
007E02F000
00BD02F400
00FC01F800
01F800FC00
02F400BD00
03F0007E00
07FFFFFF00
0BFFFFFF40
0FEAAABF80
1FC0000FC0
2F80000BD0
2F40000BE0
3F000007F0
7E000003F4
BD000002F8
FD000001FC
ENDCHAR
STARTCHAR aringacute
ENCODING 507
SWIDTH 479 0
DWIDTH 17 0
BBX 14 29 2 0
BITMAP
0000FC00
0002E000
00068000
00000000
001F4000
007AD000
00B0D000
00A0D000
007AD000
001F4000
01BFA000
0BFFFD00
1FFAFF00
3F407F40
7E002F80
69001F80
00001F80
00001F80
01AFFF80
0BFFFF80
2FE56F80
7F001F80
BD001F80
FC001F80
FD002F80
BE00BF80
7FFFFFC0
2FFFDFC0
06FE0FD0
ENDCHAR
STARTCHAR AEacute
ENCODING 508
SWIDTH 812 0
DWIDTH 29 0
BBX 29 33 0 0
BITMAP
00000002FD000000
00000007F4000000
0000001FD0000000
0000003F40000000
0000006D00000000
0000000000000000
0000000000000000
0000007FFFFFFE00
000000BFFFFFFE00
000001FFEAAAA900
000002FFD0000000
000007FBD0000000
00000BDBD0000000
00001FCBD0000000
00002F4BD0000000
00007F0BE0000000
0000BE0BE0000000
0001FC0BE0000000
0002F80BFFFFF400
0007F407FFFFF400
000BE007FAAAA400
001FD007E0000000
002FC007E0000000
007F4007E0000000
00BFFFFFE0000000
01FFFFFFF0000000
02FFFFFFF0000000
07F80007F0000000
0BF00007F0000000
1FE00003F0000000
2FC00003FAAAAA40
7F800003FFFFFF40
BF000003FFFFFF40
ENDCHAR
STARTCHAR aeacute
ENCODING 509
SWIDTH 728 0
DWIDTH 26 0
BBX 24 26 1 0
BITMAP
0000002FD000
0000007F4000
000001FD0000
000003F40000
000006D00000
000000000000
000000000000
006FE406FE40
07FFFD2FFFD0
1FFAFFBFAFF4
2FD02FFD02FC
3F401FF400BD
2B000FF0007E
00000BE0007E
00000BD0007E
01AFFFFFFFFF
0BFFFFFFFFFF
2FFAAFEAAAA9
7F800BD00000
7F000BE00000
BE000BF00000
7E000FF40000
7F407FFD002C
3FEBFEBFEAFD
1FFFF82FFFF8
02FE9006FF90
ENDCHAR
STARTCHAR Oslashacute
ENCODING 510
SWIDTH 600 0
DWIDTH 22 0
BBX 18 35 2 -2
BITMAP
00000FF000
00002FC000
00007F0000
0001FD0000
0001B40000
0000000000
0000000190
001BFA03D0
00BFFFDB80
02FFFFFF40
0BF806FE00
1FD000BF00
2F8000BF40
3F4001FF80
7F0002EFC0
BE0007CFD0
BD000B4BD0
FD001F0BD0
FD003D0BE0
FD007C0BE0
FD00F40BE0
FD01E00BE0
BD03D00BD0
BD0B800BD0
BE0F400FD0
7F2E001FC0
3F7D002F80
2FF8003F40
1FF000BF00
0BF406FD00
07FFFFF400
0BFFFFD000
1F1BFA0000
2D00000000
1400000000
ENDCHAR
STARTCHAR oslashacute
ENCODING 511
SWIDTH 498 0
DWIDTH 18 0
BBX 16 28 1 -2
BITMAP
00007F40
0001FD00
0003F800
000BE000
000B8000
000000E0
000002D0
002BEBC0
01FFFF80
07FEBFD0
0BE01FF0
1FC02FF4
2F403DF8
3F00B4FC
7F00F0FD
7F01E0BD
7E03C0BD
7F0780BD
3F0B40FD
3F0F00FC
2F6D01F8
1FFC03F4
0FF80BF0
07FEBFD0
01FFFF40
02EBE800
03C00000
0B400000
ENDCHAR
STARTCHAR uni0218
ENCODING 536
SWIDTH 518 0
DWIDTH 19 0
BBX 16 35 1 -9
BITMAP
001BF900
01FFFFD0
07FFBFF4
0FE406FC
1FC000FD
2F80007F
2F40007F
2F40002A
2F800000
1FE00000
0BF90000
03FF9000
00BFFE00
001BFFD0
0000BFF8
000007FD
000000FE
0000007F
6A00003F
7F00003F
7F00007F
2F8000BE
1FE402FD
07FFAFF8
01FFFFE0
001BFE40
00000000
00000000
0003F000
0003F000
0003F000
0003E000
0007D000
000BC000
00024000
ENDCHAR
STARTCHAR uni0219
ENCODING 537
SWIDTH 455 0
DWIDTH 16 0
BBX 14 28 1 -9
BITMAP
006FE400
03FFFE00
0FFAFF80
1FD02FC0
2F800FD0
2F400690
2FC00000
0FF80000
07FF9000
00BFF900
000BFF40
00007FC0
00000FE0
6A000BE0
3F400BE0
2F801FD0
1FFABFC0
07FFFF00
006FE400
00000000
00000000
000BD000
000BD000
000BC000
000FC000
001F8000
002F0000
00090000
ENDCHAR
STARTCHAR uni021A
ENCODING 538
SWIDTH 520 0
DWIDTH 19 0
BBX 17 35 1 -9
BITMAP
FFFFFFFF80
FFFFFFFF80
AAAFFAAA80
0007F00000
0007F00000
0007F00000
0007F00000
0007F00000
0007F00000
0007F00000
0007F00000
0007F00000
0007F00000
0007F00000
0007F00000
0007F00000
0007F00000
0007F00000
0007F00000
0007F00000
0007F00000
0007F00000
0007F00000
0007F00000
0007F00000
0007F00000
0000000000
0000000000
0003F00000
0003F00000
0003E00000
0007E00000
000BD00000
000F800000
0006000000
ENDCHAR
STARTCHAR uni021B
ENCODING 539
SWIDTH 295 0
DWIDTH 11 0
BBX 10 33 0 -9
BITMAP
02F400
02F400
02F400
02F400
02F400
BFFFD0
BFFFD0
6BFA80
02F400
02F400
02F400
02F400
02F400
02F400
02F400
02F400
02F400
02F400
02F400
02F400
02F800
01FFD0
00BFD0
002F90
000000
000000
001F80
001F80
001F40
002F40
003F00
007D00
001800
ENDCHAR
STARTCHAR uni0237
ENCODING 567
SWIDTH 237 0
DWIDTH 9 0
BBX 7 26 -1 -7
BITMAP
00FC
00FC
00FC
00FC
00FC
00FC
00FC
00FC
00FC
00FC
00FC
00FC
00FC
00FC
00FC
00FC
00FC
00FC
00FC
00FC
01FC
01FC
02F8
6BF4
7FE0
7E40
ENDCHAR
STARTCHAR uni0259
ENCODING 601
SWIDTH 465 0
DWIDTH 17 0
BBX 15 19 1 0
BITMAP
01BFA000
0BFFFD00
2FEAFF40
0E002FC0
04000FD0
000007E0
000003F0
000003F0
000003F4
7FFFFFF4
7FFFFFF4
3FAAABF0
3F0003F0
3F0007E0
2F800FD0
1FD02F80
0BFAFF40
02FFFD00
006FE000
ENDCHAR
STARTCHAR uni02BC
ENCODING 700
SWIDTH 194 0
DWIDTH 7 0
BBX 5 9 1 18
BITMAP
2F40
2F40
2F40
2F40
2F40
3F00
7D00
FC00
2400
ENDCHAR
STARTCHAR circumflex
ENCODING 710
SWIDTH 428 0
DWIDTH 15 0
BBX 9 5 3 22
BITMAP
02E000
0BF800
2F7E00
7D1F40
A80A80
ENDCHAR
STARTCHAR caron
ENCODING 711
SWIDTH 403 0
DWIDTH 15 0
BBX 10 5 2 22
BITMAP
7D03E0
2F0B80
0BAF00
03FD00
01F400
ENDCHAR
STARTCHAR uni02C9
ENCODING 713
SWIDTH 414 0
DWIDTH 15 0
BBX 11 2 2 22
BITMAP
BFFFF8
BFFFF8
ENDCHAR
STARTCHAR breve
ENCODING 728
SWIDTH 426 0
DWIDTH 15 0
BBX 11 5 2 21
BITMAP
BC00F8
BD00F8
3F46F4
1FFFD0
06FE40
ENDCHAR
STARTCHAR dotaccent
ENCODING 729
SWIDTH 242 0
DWIDTH 9 0
BBX 5 4 2 22
BITMAP
2900
7F40
7F40
2E00
ENDCHAR
STARTCHAR ring
ENCODING 730
SWIDTH 334 0
DWIDTH 12 0
BBX 8 7 2 21
BITMAP
1BE0
7EBC
B41E
F00E
B41E
7EBC
1BE0
ENDCHAR
STARTCHAR ogonek
ENCODING 731
SWIDTH 253 0
DWIDTH 9 0
BBX 6 8 1 -7
BITMAP
0280
1F80
7E00
BC00
F800
FE90
BFD0
2F80
ENDCHAR
STARTCHAR tilde
ENCODING 732
SWIDTH 427 0
DWIDTH 15 0
BBX 11 5 2 22
BITMAP
054028
2FD078
7FFAF8
B87FF0
B40B90
ENDCHAR
STARTCHAR hungarumlaut
ENCODING 733
SWIDTH 331 0
DWIDTH 12 0
BBX 11 5 2 22
BITMAP
1FC7F4
3F4FD0
7E2F80
FC7E00
B4AC00
ENDCHAR
STARTCHAR uni02F3
ENCODING 755
SWIDTH 263 0
DWIDTH 9 0
BBX 6 6 2 -7
BITMAP
2E40
B6C0
D0D0
A1D0
7F80
0500
ENDCHAR
STARTCHAR gravecomb
ENCODING 768
SWIDTH 0 0
DWIDTH 0 0
BBX 7 5 -13 22
BITMAP
7F40
1FC0
0BE0
02F4
00E8
ENDCHAR
STARTCHAR acutecomb
ENCODING 769
SWIDTH 0 0
DWIDTH 0 0
BBX 7 5 -10 22
BITMAP
03F8
0BE0
1FC0
3F00
6D00
ENDCHAR
STARTCHAR tildecomb
ENCODING 771
SWIDTH 0 0
DWIDTH 0 0
BBX 11 5 -13 22
BITMAP
050064
2FD0B8
7FFAF4
B87FF0
B41B80
ENDCHAR
STARTCHAR hookabovecomb
ENCODING 777
SWIDTH 0 0
DWIDTH 0 0
BBX 5 7 -10 22
BITMAP
B900
BF40
0BC0
0BC0
6F80
7E00
7800
ENDCHAR
STARTCHAR uni030F
ENCODING 783
SWIDTH 0 0
DWIDTH 0 0
BBX 11 5 -14 22
BITMAP
BF2F80
2F8FD0
0FD7E0
03F6F4
01E8A8
ENDCHAR
STARTCHAR dotbelowcomb
ENCODING 803
SWIDTH 0 0
DWIDTH 0 0
BBX 5 4 -13 -6
BITMAP
2E00
7F40
7F40
2900
ENDCHAR
STARTCHAR tonos
ENCODING 900
SWIDTH 256 0
DWIDTH 9 0
BBX 4 6 3 22
BITMAP
3F
3E
7D
7C
B8
64
ENDCHAR
STARTCHAR dieresistonos
ENCODING 901
SWIDTH 452 0
DWIDTH 16 0
BBX 12 8 2 22
BITMAP
002F40
002F00
003E00
003D00
642C19
FD007F
FD007F
B8002D
ENDCHAR
STARTCHAR Alphatonos
ENCODING 902
SWIDTH 576 0
DWIDTH 21 0
BBX 19 28 1 0
BITMAP
07E0000000
07D0000000
0BC0FC0000
0B81FD0000
0F42FE0000
0B03FF0000
0007FF4000
000BDF8000
000F8F8000
001F4BC000
002F47D000
003F03E000
007E02F000
00BD02F400
00FC01F800
01F800FC00
02F400BD00
03F0007E00
07FFFFFF00
0BFFFFFF40
0FEAAABF80
1FC0000FC0
2F80000BD0
2F40000BE0
3F000007F0
7E000003F4
BD000002F8
FD000001FC
ENDCHAR
STARTCHAR anoteleia
ENCODING 903
SWIDTH 243 0
DWIDTH 9 0
BBX 4 4 2 11
BITMAP
2E
7F
7F
2D
ENDCHAR
STARTCHAR Epsilontonos
ENCODING 904
SWIDTH 496 0
DWIDTH 18 0
BBX 20 28 -3 0
BITMAP
7E00000000
BD00000000
BC1FFFFFFD
F81FFFFFFD
F41FEAAAA9
A01FC00000
001FC00000
001FC00000
001FC00000
001FC00000
001FC00000
001FC00000
001FC00000
001FFFFFF0
001FFFFFF0
001FEAAAA0
001FC00000
001FC00000
001FC00000
001FC00000
001FC00000
001FC00000
001FC00000
001FC00000
001FC00000
001FEAAAA9
001FFFFFFE
001FFFFFFE
ENDCHAR
STARTCHAR Etatonos
ENCODING 905
SWIDTH 620 0
DWIDTH 22 0
BBX 23 28 -3 0
BITMAP
7E0000000000
7D0000000000
BC1FC00002F8
B81FC00002F8
F41FC00002F8
B01FC00002F8
001FC00002F8
001FC00002F8
001FC00002F8
001FC00002F8
001FC00002F8
001FC00002F8
001FC00002F8
001FFFFFFFF8
001FFFFFFFF8
001FEAAAABF8
001FC00002F8
001FC00002F8
001FC00002F8
001FC00002F8
001FC00002F8
001FC00002F8
001FC00002F8
001FC00002F8
001FC00002F8
001FC00002F8
001FC00002F8
001FC00002F8
ENDCHAR
STARTCHAR Iotatonos
ENCODING 906
SWIDTH 250 0
DWIDTH 9 0
BBX 9 28 -3 0
BITMAP
3E0000
7D0000
7C0FC0
B80FC0
B40FC0
B00FC0
000FC0
000FC0
000FC0
000FC0
000FC0
000FC0
000FC0
000FC0
000FC0
000FC0
000FC0
000FC0
000FC0
000FC0
000FC0
000FC0
000FC0
000FC0
000FC0
000FC0
000FC0
000FC0
ENDCHAR
STARTCHAR Omicrontonos
ENCODING 908
SWIDTH 610 0
DWIDTH 22 0
BBX 21 28 -1 0
BITMAP
2F4000000000
2F0000000000
3E006FF90000
3D02FFFFD000
7C0BFFFFF400
682FE407FC00
007F4000FE00
00BE00007F00
00FD00003F40
00FC00002F40
01FC00002F80
01F800002F80
01F800001F80
01F800001F80
01F800001F80
01F800001F80
01F800001F80
01F800001F80
01F800002F80
01FC00002F80
00FC00002F40
00FD00003F40
00BE00007F00
007F4000FE00
002FE007FC00
000BFFFFF400
0002FFFFD000
00006FF90000
ENDCHAR
STARTCHAR Upsilontonos
ENCODING 910
SWIDTH 573 0
DWIDTH 21 0
BBX 24 28 -4 0
BITMAP
2F4000000000
3F0000000000
3E07F00000BF
7D03F80001FD
7C02FC0002FC
6800FD0003F4
0000BE0007F0
00007F000BE0
00002F801FC0
00001FC02F80
00000FD03F40
000007E07E00
000003F0BD00
000002F9FC00
000000FEF400
000000BFF000
0000007FE000
0000002FC000
0000001F8000
0000001F8000
0000001F8000
0000001F8000
0000001F8000
0000001F8000
0000001F8000
0000001F8000
0000001F8000
0000001F8000
ENDCHAR
STARTCHAR Omegatonos
ENCODING 911
SWIDTH 591 0
DWIDTH 21 0
BBX 20 28 -1 0
BITMAP
2F40000000
2F00000000
3E006FE400
3D02FFFF40
7C0BFEFFD0
682FD01FF0
007F4003F4
00BE0001FC
00FD0000FD
01FC0000BE
01F80000BE
02F800007F
02F800007F
02F800007F
02F800007F
02F800007F
02F800007F
02F800007E
01F800007E
00FC0000BD
00FC0000FC
007D0000F8
003F0002F4
002F4007E0
000BE01FC0
01AFFC7FEA
02FFFC7FFE
02FFFC7FFE
ENDCHAR
STARTCHAR iotadieresistonos
ENCODING 912
SWIDTH 299 0
DWIDTH 11 0
BBX 12 30 -1 0
BITMAP
002F40
002F00
003E00
003D00
642C19
FD007F
FD007F
B8002E
000000
000000
000000
00BD00
00BD00
00BD00
00BD00
00BD00
00BD00
00BD00
00BD00
00BD00
00BD00
00BD00
00BD00
00BD00
00BD00
00BD00
00BE00
007FE4
003FF4
000BF4
ENDCHAR
STARTCHAR Alpha
ENCODING 913
SWIDTH 576 0
DWIDTH 21 0
BBX 19 26 1 0
BITMAP
0000FC0000
0001FD0000
0002FE0000
0003FF0000
0007FF4000
000BDF8000
000F8F8000
001F4BC000
002F47D000
003F03E000
007E02F000
00BD02F400
00FC01F800
01F800FC00
02F400BD00
03F0007E00
07FFFFFF00
0BFFFFFF40
0FEAAABF80
1FC0000FC0
2F80000BD0
2F40000BE0
3F000007F0
7E000003F4
BD000002F8
FD000001FC
ENDCHAR
STARTCHAR Beta
ENCODING 914
SWIDTH 545 0
DWIDTH 20 0
BBX 16 26 2 0
BITMAP
7FFFF900
7FFFFFC0
7FAAFFF0
7F000BF4
7F0002F8
7F0001FC
7F0001FC
7F0001FC
7F0001FC
7F0003F4
7F001BE0
7FFFFF80
7FFFFF40
7FAABFE0
7F0007F8
7F0001FC
7F0000FD
7F0000BE
7F0000BE
7F0000BE
7F0000FD
7F0001FC
7F0007F8
7FAABFF0
7FFFFFD0
7FFFF900
ENDCHAR
STARTCHAR Gamma
ENCODING 915
SWIDTH 487 0
DWIDTH 18 0
BBX 14 26 3 0
BITMAP
FFFFFFD0
FFFFFFD0
FEAAAA90
FC000000
FC000000
FC000000
FC000000
FC000000
FC000000
FC000000
FC000000
FC000000
FC000000
FC000000
FC000000
FC000000
FC000000
FC000000
FC000000
FC000000
FC000000
FC000000
FC000000
FC000000
FC000000
FC000000
ENDCHAR
STARTCHAR Delta.dup1
ENCODING 916
SWIDTH 614 0
DWIDTH 22 0
BBX 20 26 1 0
BITMAP
00007E0000
0000BF0000
0000FF4000
0001FF8000
0002FFC000
0003FBD000
0007E7E000
000BD3F000
000FC2F400
002F81F800
003F40FC00
007F00BD00
00BE007E00
00FD003F00
01FC003F40
02F8002F80
03F4001FC0
07F0000FD0
0BE0000BE0
0FD00007F0
1FC00003F4
2F800002F8
3F400001FC
7FAAAAAAFD
BFFFFFFFFE
FFFFFFFFFF
ENDCHAR
STARTCHAR Epsilon
ENCODING 917
SWIDTH 496 0
DWIDTH 18 0
BBX 15 26 2 0
BITMAP
7FFFFFF4
7FFFFFF4
7FAAAAA4
7F000000
7F000000
7F000000
7F000000
7F000000
7F000000
7F000000
7F000000
7FFFFFC0
7FFFFFC0
7FAAAA80
7F000000
7F000000
7F000000
7F000000
7F000000
7F000000
7F000000
7F000000
7F000000
7FAAAAA4
7FFFFFF8
7FFFFFF8
ENDCHAR
STARTCHAR Zeta
ENCODING 918
SWIDTH 522 0
DWIDTH 19 0
BBX 17 26 1 0
BITMAP
7FFFFFFF00
7FFFFFFF00
6AAAAAFE00
000001FD00
000002F800
000007F000
00000FE000
00001FC000
00003F4000
0000BF0000
0000FD0000
0002F80000
0007F40000
000BE00000
001FC00000
003F800000
007F000000
00FD000000
02F8000000
07F4000000
0BE0000000
1FC0000000
3F80000000
7FAAAAAA40
7FFFFFFF40
7FFFFFFF40
ENDCHAR
STARTCHAR Eta
ENCODING 919
SWIDTH 620 0
DWIDTH 22 0
BBX 18 26 2 0
BITMAP
7F00000BE0
7F00000BE0
7F00000BE0
7F00000BE0
7F00000BE0
7F00000BE0
7F00000BE0
7F00000BE0
7F00000BE0
7F00000BE0
7F00000BE0
7FFFFFFFE0
7FFFFFFFE0
7FAAAAAFE0
7F00000BE0
7F00000BE0
7F00000BE0
7F00000BE0
7F00000BE0
7F00000BE0
7F00000BE0
7F00000BE0
7F00000BE0
7F00000BE0
7F00000BE0
7F00000BE0
ENDCHAR
STARTCHAR Theta
ENCODING 920
SWIDTH 593 0
DWIDTH 21 0
BBX 19 26 1 0
BITMAP
0006FE4000
002FFFF400
01FFFFFD00
03FD01FF00
0BF4003F80
0FD0001FC0
1FC0000BD0
2F80000BE0
3F400007F0
3F400003F0
3F000003F4
7F0FFFE3F4
7F0FFFE3F4
7F0AAA93F4
7F000003F4
3F000003F4
3F400003F0
3F400007F0
2F800007E0
1FC0000BD0
0FD0001FC0
0BF4003F80
03FD01FF00
01FFFFFD00
002FFFF400
0006FE4000
ENDCHAR
STARTCHAR Iota
ENCODING 921
SWIDTH 250 0
DWIDTH 9 0
BBX 3 26 3 0
BITMAP
FC
FC
FC
FC
FC
FC
FC
FC
FC
FC
FC
FC
FC
FC
FC
FC
FC
FC
FC
FC
FC
FC
FC
FC
FC
FC
ENDCHAR
STARTCHAR Kappa
ENCODING 922
SWIDTH 544 0
DWIDTH 20 0
BBX 18 26 2 0
BITMAP
7F00007F40
7F0000FE00
7F0002FC00
7F000BF400
7F001FE000
7F003F8000
7F00BF0000
7F01FD0000
7F03F80000
7F0BF00000
7F2FD00000
7F7F800000
7FFFD00000
7FFFE00000
7FF7F40000
7FD2FC0000
7F40FE0000
7F007F4000
7F002FC000
7F001FD000
7F000BF000
7F0003F800
7F0001FD00
7F0000FF00
7F00007F80
7F00002FD0
ENDCHAR
STARTCHAR Lambda
ENCODING 923
SWIDTH 572 0
DWIDTH 21 0
BBX 19 26 1 0
BITMAP
0001F80000
0002FC0000
0003FD0000
0007FE0000
000BFF0000
000FFF4000
000FEF8000
001F9FC000
002F4FD000
003F0BE000
007F07E000
00BE03F000
00FD03F400
01FC02F800
02F801FC00
03F400FD00
03F000BE00
07F0007F00
0BE0003F40
0FD0003F80
1FC0002F80
2F80001FC0
3F40000FD0
7F00000BE0
BF000007F0
FE000003F4
ENDCHAR
STARTCHAR Mu
ENCODING 924
SWIDTH 755 0
DWIDTH 27 0
BBX 23 26 2 0
BITMAP
7FC000000FF4
7FD000001FF4
7FE000002FF4
7FF000003FF4
7FF400003FF4
7FF800007FF4
7EFC0000BEF4
7EBD0000FEF4
7E7E0001FAF4
7E3F0002F6F4
7E2F4003F2F4
7F1F8007E2F4
7F0FC00BD2F4
7F0BC00FC2F4
7F07D01F82F4
7F03E02F42F4
7F02F03F02F4
7F01F47E02F4
7F00F8BD02F4
7F00BCFC02F4
7F007EF802F4
7F003FF402F4
7F002FF002F4
7F001FE002F4
7F000FD002F4
7F000BC002F4
ENDCHAR
STARTCHAR Nu
ENCODING 925
SWIDTH 619 0
DWIDTH 22 0
BBX 18 26 2 0
BITMAP
7F40000BD0
7F80000BD0
7FD0000BD0
7FE0000BD0
7FF4000BD0
7FF8000BD0
7FBD000BD0
7F7E000BD0
7F2F400BD0
7F1FC00BD0
7F0BD00BD0
7F07F00BD0
7F02F40BD0
7F00FC0BD0
7F00BD0BD0
7F003F0BD0
7F002F4BD0
7F000FCBD0
7F000BDBD0
7F0003FBD0
7F0002FFD0
7F0000FFD0
7F0000BFD0
7F00003FD0
7F00002FD0
7F00000FD0
ENDCHAR
STARTCHAR Xi
ENCODING 926
SWIDTH 502 0
DWIDTH 18 0
BBX 14 26 2 0
BITMAP
FFFFFFF0
FFFFFFF0
AAAAAAA0
00000000
00000000
00000000
00000000
00000000
00000000
00000000
00000000
2FFFFF80
2FFFFF80
1AAAAA80
00000000
00000000
00000000
00000000
00000000
00000000
00000000
00000000
00000000
AAAAAAA0
FFFFFFF0
FFFFFFF0
ENDCHAR
STARTCHAR Omicron
ENCODING 927
SWIDTH 600 0
DWIDTH 22 0
BBX 18 26 2 0
BITMAP
001BFE4000
01FFFFE000
07FFFFF800
0FF406FE00
2FD0007F00
3F40002F80
7F00001FC0
7E00000FC0
BE00000FD0
BD00000FD0
BD00000BD0
BD00000BD0
BD00000BD0
BD00000BD0
BD00000BD0
BD00000BD0
BD00000FD0
BE00000FD0
7E00000FC0
7F00001FC0
3F40002F80
2FC0007F40
0FF402FE00
07FFFFF800
01FFFFE000
001BFE4000
ENDCHAR
STARTCHAR Pi
ENCODING 928
SWIDTH 620 0
DWIDTH 22 0
BBX 17 26 3 0
BITMAP
FFFFFFFF40
FFFFFFFF40
FEAAAABF40
FC00003F40
FC00003F40
FC00003F40
FC00003F40
FC00003F40
FC00003F40
FC00003F40
FC00003F40
FC00003F40
FC00003F40
FC00003F40
FC00003F40
FC00003F40
FC00003F40
FC00003F40
FC00003F40
FC00003F40
FC00003F40
FC00003F40
FC00003F40
FC00003F40
FC00003F40
FC00003F40
ENDCHAR
STARTCHAR Rho
ENCODING 929
SWIDTH 554 0
DWIDTH 20 0
BBX 17 26 2 0
BITMAP
7FFFFE4000
7FFFFFE000
7FAABFF800
7F0002FD00
7F0000BF00
7F00003F40
7F00002F40
7F00002F80
7F00002F80
7F00002F40
7F00003F40
7F0000BF00
7F0006FD00
7FFFFFF800
7FFFFFE000
7FAAA90000
7F00000000
7F00000000
7F00000000
7F00000000
7F00000000
7F00000000
7F00000000
7F00000000
7F00000000
7F00000000
ENDCHAR
STARTCHAR Sigma
ENCODING 931
SWIDTH 502 0
DWIDTH 18 0
BBX 16 26 1 0
BITMAP
BFFFFFFC
BFFFFFFC
BFEAAAA8
3F800000
1FD00000
0BF00000
03F80000
01FD0000
00BF0000
003F8000
001FD000
000BF000
0003F800
0003F800
000BF000
001FD000
003F8000
00BF0000
01FD0000
03F80000
0BF00000
1FD00000
3F800000
BFAAAAA9
BFFFFFFE
BFFFFFFE
ENDCHAR
STARTCHAR Tau
ENCODING 932
SWIDTH 520 0
DWIDTH 19 0
BBX 17 26 1 0
BITMAP
FFFFFFFF80
FFFFFFFF80
AAAFFAAA80
0007F00000
0007F00000
0007F00000
0007F00000
0007F00000
0007F00000
0007F00000
0007F00000
0007F00000
0007F00000
0007F00000
0007F00000
0007F00000
0007F00000
0007F00000
0007F00000
0007F00000
0007F00000
0007F00000
0007F00000
0007F00000
0007F00000
0007F00000
ENDCHAR
STARTCHAR Upsilon
ENCODING 933
SWIDTH 524 0
DWIDTH 19 0
BBX 18 26 0 0
BITMAP
7F40000BF0
2F80000FE0
1FD0001FD0
0FE0002F80
07F0003F40
03F400BF00
02F800FD00
00FD01FC00
00BE02F400
007F03F000
002F4BE000
001F8FC000
000FEF8000
0007FF4000
0003FE0000
0002FD0000
0001FC0000
0001FC0000
0001FC0000
0001FC0000
0001FC0000
0001FC0000
0001FC0000
0001FC0000
0001FC0000
0001FC0000
ENDCHAR
STARTCHAR Phi
ENCODING 934
SWIDTH 621 0
DWIDTH 22 0
BBX 20 26 1 0
BITMAP
00007F0000
00007F0000
00007F0000
001BFFE400
00BFFFFF40
02FFFFFFD0
0BF47F0BF4
1FD07F02F8
2F407F00FD
3F007F00BE
7F007F007F
7E007F007F
BE007F003F
BE007F007F
7E007F007F
7F007F007E
3F007F00BE
2F807F00FD
1FD07F02F8
0BF97F1BF0
02FFFFFFD0
00BFFFFE40
0006FFA400
00007F0000
00007F0000
00007F0000
ENDCHAR
STARTCHAR Chi
ENCODING 935
SWIDTH 550 0
DWIDTH 20 0
BBX 18 26 1 0
BITMAP
7F40001FD0
3F80003F80
1FD0007F40
0FE000FE00
07F401FD00
02F803F800
01FD07F400
00BE0FE000
007F5FC000
002FAF8000
001FFF0000
000BFE0000
0007FC0000
0007FD0000
000BFE0000
001FFF4000
003FAF8000
007F1FD000
00FE0BE000
01FD07F400
03F802F800
07F401FD00
0FE000BF00
1FD0007F40
3F80003FC0
BF40001FD0
ENDCHAR
STARTCHAR Psi
ENCODING 936
SWIDTH 600 0
DWIDTH 22 0
BBX 19 26 1 0
BITMAP
BE00FC01FC
BE00FC01FC
BE00FC01FC
BE00FC01FC
BE00FC01FC
BE00FC01FC
BE00FC01FC
BE00FC01FC
BE00FC01FC
7E00FC01FC
7E00FC01F8
7F00FC02F8
7F00FC02F8
3F40FC03F4
2F80FC0BF0
1FE0FC1FD0
0BF9FDBF80
02FFFFFF00
00BFFFF800
000AFF9000
0000FC0000
0000FC0000
0000FC0000
0000FC0000
0000FC0000
0000FC0000
ENDCHAR
STARTCHAR Omega.dup2
ENCODING 937
SWIDTH 581 0
DWIDTH 21 0
BBX 17 26 2 0
BITMAP
001BF90000
01FFFF8000
07FFBFE000
0FE407F800
2FC001FC00
3F4000BE00
7F00007F00
BE00003F40
FD00003F40
FD00002F80
FD00002F80
FD00002F80
FD00002F80
FD00002F80
FD00002F80
FD00002F40
BD00003F40
7E00003F00
7E00007E00
3F0000BD00
1F8000FC00
0FD002F400
07F40BE000
ABFD2FFA40
FFFE3FFF40
FFFE3FFF40
ENDCHAR
STARTCHAR Iotadieresis
ENCODING 938
SWIDTH 250 0
DWIDTH 9 0
BBX 12 32 -1 0
BITMAP
680064
FE01FC
FE02FD
BD00B8
000000
000000
00FC00
00FC00
00FC00
00FC00
00FC00
00FC00
00FC00
00FC00
00FC00
00FC00
00FC00
00FC00
00FC00
00FC00
00FC00
00FC00
00FC00
00FC00
00FC00
00FC00
00FC00
00FC00
00FC00
00FC00
00FC00
00FC00
ENDCHAR
STARTCHAR Upsilondieresis
ENCODING 939
SWIDTH 524 0
DWIDTH 19 0
BBX 18 32 0 0
BITMAP
0068006400
00FE01FC00
00FE02FD00
00BD00B800
0000000000
0000000000
7F40000BF0
2F80000FE0
1FD0001FD0
0FE0002F80
07F0003F40
03F400BF00
02F800FD00
00FD01FC00
00BE02F400
007F03F000
002F4BE000
001F8FC000
000FEF8000
0007FF4000
0003FE0000
0002FD0000
0001FC0000
0001FC0000
0001FC0000
0001FC0000
0001FC0000
0001FC0000
0001FC0000
0001FC0000
0001FC0000
0001FC0000
ENDCHAR
STARTCHAR alphatonos
ENCODING 940
SWIDTH 494 0
DWIDTH 18 0
BBX 16 28 1 0
BITMAP
0000BD00
0000FC00
0000F800
0001F400
0001F000
00019000
00000000
00000000
00000000
006F91F4
02FFF9F4
07FEBFF4
0FE01FF4
1FC007F4
2F8002F4
3F4002F4
3F0002F4
7F0002F4
7F0002F4
7F0002F4
3F0002F4
3F0002F4
3F4002F4
2F8007F4
1FE01FF8
0BFEBFFF
02FFF8FF
006F907E
ENDCHAR
STARTCHAR epsilontonos
ENCODING 941
SWIDTH 470 0
DWIDTH 17 0
BBX 14 28 1 0
BITMAP
0003F000
0003E000
0007D000
0007C000
000B8000
00064000
00000000
00000000
00000000
00AFE400
07FFFF00
1FFABFC0
2FD01FE0
3F4007E0
3F400150
2F400000
1FD00000
07FFF400
02FFF400
1FFAA400
2F800000
3F000000
7F0003F0
3F0007F0
3F801FE0
1FFABFC0
07FFFF40
00AFE400
ENDCHAR
STARTCHAR etatonos
ENCODING 942
SWIDTH 498 0
DWIDTH 18 0
BBX 14 35 2 -7
BITMAP
0007E000
000BD000
000BC000
000F8000
000F0000
000A0000
00000000
00000000
00000000
BD1BE400
BDBFFE00
BFFAFF80
BF802FC0
BF000FC0
BE000FD0
BE000BD0
BE000BD0
BE000BD0
BE000BD0
BE000BD0
BE000BD0
BE000BD0
BE000BD0
BE000BD0
BE000BD0
BE000BD0
BE000BD0
BE000BD0
00000BD0
00000BD0
00000BD0
00000BD0
00000BD0
00000BD0
00000BD0
ENDCHAR
STARTCHAR iotatonos
ENCODING 943
SWIDTH 299 0
DWIDTH 11 0
BBX 7 28 3 0
BITMAP
1F80
2F40
2F00
3E00
3D00
2800
0000
0000
0000
BD00
BD00
BD00
BD00
BD00
BD00
BD00
BD00
BD00
BD00
BD00
BD00
BD00
BD00
BD00
BE00
7FE4
3FF4
0BF4
ENDCHAR
STARTCHAR upsilondieresistonos
ENCODING 944
SWIDTH 480 0
DWIDTH 17 0
BBX 14 30 2 0
BITMAP
000FC000
001F8000
001F4000
002F0000
281A1900
BE003F40
BE003F40
7D001E00
00000000
00000000
00000000
BE007F00
BE003F40
BE002F80
BE001FC0
BE000FC0
BE000FD0
BE000BD0
BE000BD0
BE000BE0
BE000BE0
BE000BD0
BE000BD0
BE000FD0
7E001FC0
7F003F80
3F80BF00
1FEBFD00
0BFFF400
01BF9000
ENDCHAR
STARTCHAR alpha
ENCODING 945
SWIDTH 494 0
DWIDTH 18 0
BBX 16 19 1 0
BITMAP
006F91F4
02FFF9F4
07FEBFF4
0FE01FF4
1FC007F4
2F8002F4
3F4002F4
3F0002F4
7F0002F4
7F0002F4
7F0002F4
3F0002F4
3F0002F4
3F4002F4
2F8007F4
1FE01FF8
0BFEBFFF
02FFF8FF
006F907E
ENDCHAR
STARTCHAR beta
ENCODING 946
SWIDTH 517 0
DWIDTH 19 0
BBX 15 33 2 -7
BITMAP
006FE400
02FFFE00
0BFAFF40
1FD02FC0
2F400FD0
3F000BE0
7E0007E0
7E0007E0
7E000BE0
7E000FD0
7E006F80
7E0FFE00
7E0FFE00
7E0ABF80
7E000BE0
7E0007F0
7E0002F4
7E0002F8
7E0001F8
7E0002F8
7E0002F4
7E0007F4
7F801FE0
7FFABFD0
7FFFFF40
7E2FE800
7E000000
7E000000
7E000000
7E000000
7E000000
7E000000
7E000000
ENDCHAR
STARTCHAR gamma
ENCODING 947
SWIDTH 444 0
DWIDTH 16 0
BBX 14 26 1 -7
BITMAP
BD0003F0
7E0007E0
7F000BD0
3F400FC0
2F801F80
1F802F40
0FC03F00
0BD03E00
07E07D00
03F0BD00
02F4FC00
01F9F800
00FEF400
00BFF000
007FE000
003FD000
002FC000
001F8000
001F8000
001F8000
001F8000
001F8000
001F8000
001F8000
001F8000
001F8000
ENDCHAR
STARTCHAR delta
ENCODING 948
SWIDTH 498 0
DWIDTH 18 0
BBX 15 27 1 0
BITMAP
001BF900
00FFFF40
02FFBF40
07F40140
07F00000
07F00000
03F80000
01FE4000
00BFF400
006FFE00
01FFFF80
07F42FE0
0FC00BF0
1F8003F8
2F4001F8
3F0001FC
3F0000FC
7F0000FC
3F0000FC
3F0000FC
3F4001FC
2F4002F8
1FC003F4
0BE00BE0
07FEBFC0
01FFFF40
002BE800
ENDCHAR
STARTCHAR epsilon
ENCODING 949
SWIDTH 470 0
DWIDTH 17 0
BBX 14 19 1 0
BITMAP
00AFE400
07FFFF00
1FFABFC0
2FD01FE0
3F4007E0
3F400150
2F400000
1FD00000
07FFF400
02FFF400
1FFAA400
2F800000
3F000000
7F0003F0
3F0007F0
3F801FE0
1FFABFC0
07FFFF40
00AFE400
ENDCHAR
STARTCHAR zeta
ENCODING 950
SWIDTH 462 0
DWIDTH 17 0
BBX 13 33 2 -7
BITMAP
FFFFFF80
FFFFFF80
AAAABF80
00003F00
0000BD00
0002F800
0007F000
000FD000
002F8000
007F0000
00FD0000
01F80000
03F40000
07E00000
0BD00000
1FC00000
1F800000
2F400000
2F400000
2F400000
2F400000
2F800000
1FD00000
0FF90000
07FFE400
00BFFD00
0006FF00
00007F00
00003F00
00003E00
0000BD00
0000F800
00006000
ENDCHAR
STARTCHAR eta
ENCODING 951
SWIDTH 498 0
DWIDTH 18 0
BBX 14 26 2 -7
BITMAP
BD1BE400
BDBFFE00
BFFAFF80
BF802FC0
BF000FC0
BE000FD0
BE000BD0
BE000BD0
BE000BD0
BE000BD0
BE000BD0
BE000BD0
BE000BD0
BE000BD0
BE000BD0
BE000BD0
BE000BD0
BE000BD0
BE000BD0
00000BD0
00000BD0
00000BD0
00000BD0
00000BD0
00000BD0
00000BD0
ENDCHAR
STARTCHAR theta
ENCODING 952
SWIDTH 496 0
DWIDTH 18 0
BBX 14 26 2 0
BITMAP
006F9000
03FFF800
0BFAFE00
1FC07F40
3F401F80
7E000FC0
7E000BD0
BD000BD0
BD0007E0
FD0007E0
FD0007E0
FFFFFFE0
FFFFFFE0
FEAAABE0
FD0007E0
FD0007E0
FD0007E0
BD000BE0
BD000BD0
7E000FD0
7F000FC0
3F402F80
1FD07F40
0BFAFE00
02FFF800
006F9000
ENDCHAR
STARTCHAR iota
ENCODING 953
SWIDTH 299 0
DWIDTH 11 0
BBX 7 19 3 0
BITMAP
BD00
BD00
BD00
BD00
BD00
BD00
BD00
BD00
BD00
BD00
BD00
BD00
BD00
BD00
BD00
BE00
7FE4
3FF4
0BF4
ENDCHAR
STARTCHAR kappa
ENCODING 954
SWIDTH 491 0
DWIDTH 18 0
BBX 15 19 2 0
BITMAP
7E000FE0
7E002FC0
7E007F40
7E00FE00
7E02F800
7E07F000
7E1FD000
7E3F8000
7FFF0000
7FFE0000
7FFF4000
7E2FD000
7E0BF000
7E07F800
7E01FD00
7E00BF00
7E003F80
7E001FD0
7E000BF4
ENDCHAR
STARTCHAR lambda
ENCODING 955
SWIDTH 485 0
DWIDTH 17 0
BBX 16 27 1 0
BITMAP
1F900000
1FF40000
1BF80000
01FC0000
00FD0000
00BE0000
007F0000
003F4000
002F8000
002FC000
003FD000
007FE000
00BFF000
00FFF400
01FAF800
02F5FC00
03F4FD00
07F0BE00
0BE07F00
0BD03F40
0FC02F80
1F801FC0
2F800FD0
3F400BE0
7F0007FD
BE0002FD
FD0000BD
ENDCHAR
STARTCHAR uni03BC
ENCODING 956
SWIDTH 498 0
DWIDTH 18 0
BBX 14 26 2 -7
BITMAP
7E000BD0
7E000BD0
7E000BD0
7E000BD0
7E000BD0
7E000BD0
7E000BD0
7E000BD0
7E000BD0
7E000BD0
7E000BD0
7E000BD0
7E000BD0
7F000BD0
7F400FD0
7F802FD0
7FFAFFD0
7FFFFBD0
7E6F87D0
7E000000
7E000000
7E000000
7E000000
7E000000
7E000000
7E000000
ENDCHAR
STARTCHAR nu
ENCODING 957
SWIDTH 427 0
DWIDTH 15 0
BBX 14 19 1 0
BITMAP
FC000BD0
BD000FC0
7E001F80
3F002F40
3F002F00
2F403F00
1F807E00
0FC0BD00
0BD0BC00
07D0F800
03E1F400
02F2F000
01F7E000
00FBD000
00FFD000
00BFC000
007F8000
003F4000
002F0000
ENDCHAR
STARTCHAR xi
ENCODING 958
SWIDTH 431 0
DWIDTH 16 0
BBX 14 33 1 -7
BITMAP
001BFE40
01FFFF80
07FFAF40
0BF40000
0FD00000
1F800000
1F800000
0FC00000
0BD00000
03F90000
00BFFD00
007FFD00
02FFA900
0BE40000
1FC00000
3F400000
3F000000
7F000000
7F000000
3F000000
3F400000
2F800000
1FE00000
0BFD4000
02FFF800
006FFF40
0001BFC0
00000FD0
00000BC0
00000FC0
00001F40
00003E00
00000800
ENDCHAR
STARTCHAR omicron
ENCODING 959
SWIDTH 501 0
DWIDTH 18 0
BBX 16 19 1 0
BITMAP
002FF800
01FFFF40
07FEBFD0
0FE00BF4
2F8002F8
3F4001FC
3F0000FD
7F0000BD
7E0000BD
7E0000BD
7E0000BD
7F0000BD
3F0000FD
3F4000FC
2F8002F8
0FE007F4
07FEBFD0
01FFFF40
002FF900
ENDCHAR
STARTCHAR pi
ENCODING 960
SWIDTH 520 0
DWIDTH 19 0
BBX 17 19 1 0
BITMAP
FFFFFFFF00
FFFFFFFF00
AFEAABFA00
0BD003F000
0BD003F000
0BD003F000
0BD003F000
0BD003F000
0BD003F000
0BD003F000
0BD003F000
0BD003F000
0BD003F000
0BD003F000
0BD003F000
0BD003F400
0BD002FE80
0BD001FFC0
0BD0006F80
ENDCHAR
STARTCHAR rho
ENCODING 961
SWIDTH 498 0
DWIDTH 18 0
BBX 14 26 2 -7
BITMAP
006FE000
02FFFD00
0BFAFF40
1FD02F80
2F800FD0
3F000BE0
7E0007E0
7E0007F0
BE0003F0
BE0003F0
BE0003F0
BE0003F0
BE0007F0
BE000BE0
BE000FD0
BF802FC0
BFFAFF40
BEFFFE00
BE2FE400
BE000000
BE000000
BE000000
BE000000
BE000000
BE000000
BE000000
ENDCHAR
STARTCHAR sigma1
ENCODING 962
SWIDTH 472 0
DWIDTH 17 0
BBX 14 26 1 -7
BITMAP
002FE400
01FFFE00
07FEBF80
0BE01FD0
1FC007E0
2F8003F0
3F4002F0
3F000000
3F000000
7F000000
7F000000
3F000000
3F400000
2F800000
1FE00000
0BF90000
02FF9000
00BFFE00
000BFF80
00006FC0
00000FC0
00000FC0
00000F80
00002F40
00003E00
00000800
ENDCHAR
STARTCHAR sigma
ENCODING 963
SWIDTH 498 0
DWIDTH 18 0
BBX 17 19 1 0
BITMAP
002BFFFF40
01FFFFFF40
07FEBFAA40
0BE00BC000
1FC003E000
2F4002F400
3F4001F800
3F0000FC00
3F0000FC00
7F0000FC00
3F0000FC00
3F0000FC00
3F4001FC00
2F8002F800
1FC003F400
0BE00BE000
07FEBFC000
01FFFF4000
002BE40000
ENDCHAR
STARTCHAR tau
ENCODING 964
SWIDTH 460 0
DWIDTH 17 0
BBX 14 19 1 0
BITMAP
7FFFFFF0
7FFFFFF0
6AAFEAA0
001F8000
001F8000
001F8000
001F8000
001F8000
001F8000
001F8000
001F8000
001F8000
001F8000
001F8000
001F8000
001FC000
000FFE00
000BFF00
0002F900
ENDCHAR
STARTCHAR upsilon
ENCODING 965
SWIDTH 480 0
DWIDTH 17 0
BBX 14 19 2 0
BITMAP
BE007F00
BE003F40
BE002F80
BE001FC0
BE000FC0
BE000FD0
BE000BD0
BE000BD0
BE000BE0
BE000BE0
BE000BD0
BE000BD0
BE000FD0
7E001FC0
7F003F80
3F80BF00
1FEBFD00
0BFFF400
01BF9000
ENDCHAR
STARTCHAR phi
ENCODING 966
SWIDTH 617 0
DWIDTH 22 0
BBX 20 27 1 -8
BITMAP
01800BF800
07D02FFF40
0FE07FBFD0
1FC0BE0BF0
2F80BE02F8
3F40BE00FC
7F00BE00BD
7E00BE00BE
7E00BE007E
7E00BE007E
7E00BE007E
7F00BE00BE
3F40BE00FD
2F80BE01FC
1FD0BE07F8
0BF8BE1FF0
03FFFFFFD0
00BFFFFE00
001AFFA400
0000BE0000
0000BE0000
0000BE0000
0000BE0000
0000BE0000
0000BE0000
0000BE0000
0000BE0000
ENDCHAR
STARTCHAR chi
ENCODING 967
SWIDTH 438 0
DWIDTH 16 0
BBX 16 26 1 -7
BITMAP
FD0007F0
FF800BD0
BFD00FC0
0BE01F80
03F03F40
02F47F00
01F8BD00
00FDFC00
007FF800
003FF400
002FF000
001FD000
001FC000
002FD000
003FE000
007FF000
00BFF800
01FDFC00
02F8BD00
03F47E00
07E03F00
0FD02F40
1FC01FD0
2F800BFD
3F4007FC
7E0001B8
ENDCHAR
STARTCHAR psi
ENCODING 968
SWIDTH 612 0
DWIDTH 22 0
BBX 20 27 1 -8
BITMAP
7E00BD07F0
7E00BD03F4
7E00BD02F8
7E00BD01FC
7E00BD00FD
7E00BD00FD
7E00BD00BD
7E00BD00BD
7E00BD00BE
7E00BD00BE
7F00BD00BD
3F00BD00FD
3F40BD01FC
2F80BD02F8
1FD0BD07F4
0BF4BD2FE0
02FFFFFFC0
00BFFFFE00
001BFFA400
0000BD0000
0000BD0000
0000BD0000
0000BD0000
0000BD0000
0000BD0000
0000BD0000
0000BD0000
ENDCHAR
STARTCHAR omega
ENCODING 969
SWIDTH 711 0
DWIDTH 26 0
BBX 22 19 2 0
BITMAP
0FC00000BE00
2F8000007F00
3F4000003F40
7F0000002F80
7E0000001FC0
BE001A400FC0
BD002F400FD0
FD002F400BD0
FD002F400BD0
FD002F400BD0
FD002F400BD0
BD003F400BD0
BD003F400FD0
7E003F800FC0
7F007FC01F80
2F80FBD03F40
1FEBF2F9BE00
0BFFD0BFFC00
01BE402FE000
ENDCHAR
STARTCHAR iotadieresis
ENCODING 970
SWIDTH 299 0
DWIDTH 11 0
BBX 12 26 -1 0
BITMAP
290068
BF00FE
BF00FE
3E00BD
000000
000000
000000
00BD00
00BD00
00BD00
00BD00
00BD00
00BD00
00BD00
00BD00
00BD00
00BD00
00BD00
00BD00
00BD00
00BD00
00BD00
00BE00
007FE4
003FF4
000BF4
ENDCHAR
STARTCHAR upsilondieresis
ENCODING 971
SWIDTH 480 0
DWIDTH 17 0
BBX 14 26 2 0
BITMAP
1A002900
3F40BF00
7F80BF00
2E007E00
00000000
00000000
00000000
BE007F00
BE003F40
BE002F80
BE001FC0
BE000FC0
BE000FD0
BE000BD0
BE000BD0
BE000BE0
BE000BE0
BE000BD0
BE000BD0
BE000FD0
7E001FC0
7F003F80
3F80BF00
1FEBFD00
0BFFF400
01BF9000
ENDCHAR
STARTCHAR omicrontonos
ENCODING 972
SWIDTH 501 0
DWIDTH 18 0
BBX 16 28 1 0
BITMAP
0001F400
0002F000
0002E000
0003D000
0007C000
00028000
00000000
00000000
00000000
002FF800
01FFFF40
07FEBFD0
0FE00BF4
2F8002F8
3F4001FC
3F0000FD
7F0000BD
7E0000BD
7E0000BD
7E0000BD
7F0000BD
3F0000FD
3F4000FC
2F8002F8
0FE007F4
07FEBFD0
01FFFF40
002FF900
ENDCHAR
STARTCHAR upsilontonos
ENCODING 973
SWIDTH 480 0
DWIDTH 17 0
BBX 14 28 2 0
BITMAP
000FC000
000F8000
001F4000
001F0000
002E0000
00190000
00000000
00000000
00000000
BE007F00
BE003F40
BE002F80
BE001FC0
BE000FC0
BE000FD0
BE000BD0
BE000BD0
BE000BE0
BE000BE0
BE000BD0
BE000BD0
BE000FD0
7E001FC0
7F003F80
3F80BF00
1FEBFD00
0BFFF400
01BF9000
ENDCHAR
STARTCHAR omegatonos
ENCODING 974
SWIDTH 711 0
DWIDTH 26 0
BBX 22 28 2 0
BITMAP
00000BD00000
00000BC00000
00000F800000
00000F400000
00001F000000
00001A000000
000000000000
000000000000
000000000000
0FC00000BE00
2F8000007F00
3F4000003F40
7F0000002F80
7E0000001FC0
BE001A400FC0
BD002F400FD0
FD002F400BD0
FD002F400BD0
FD002F400BD0
FD002F400BD0
BD003F400BD0
BD003F400FD0
7E003F800FC0
7F007FC01F80
2F80FBD03F40
1FEBF2F9BE00
0BFFD0BFFC00
01BE402FE000
ENDCHAR
STARTCHAR theta1
ENCODING 977
SWIDTH 507 0
DWIDTH 18 0
BBX 16 26 2 0
BITMAP
001BE400
007FFE00
00FFFF40
01FC2F80
02F40FC0
03F40FD0
03F40BD0
02F40BD0
02F80BD0
01FC0BD0
00FD0BD0
00BF4BD0
A82FEFD4
FD0FFFFD
FD02FFFD
FD001FE4
FD000BD0
FD000BD0
FD000BD0
BD000FD0
BE000FC0
7F001FC0
3F807F40
1FFBFF00
07FFFC00
00BF9000
ENDCHAR
STARTCHAR Upsilon1
ENCODING 978
SWIDTH 465 0
DWIDTH 17 0
BBX 17 26 0 0
BITMAP
BD00002F80
FF40007F80
BFC000FF80
0FD001FC00
0BE002F400
07F007F000
02F40BE000
01F80FD000
00FC1FC000
00BE2F4000
007F3F0000
003FBE0000
001FFD0000
000FFC0000
000BF80000
0007F00000
0007F00000
0007F00000
0007F00000
0007F00000
0007F00000
0007F00000
0007F00000
0007F00000
0007F00000
0007F00000
ENDCHAR
STARTCHAR omega1
ENCODING 982
SWIDTH 678 0
DWIDTH 24 0
BBX 23 19 1 0
BITMAP
7FFFFFFFFFF4
7FFFFFFFFFF4
6FEAAAAABFA4
0FD000002F80
1FC000001F80
1F8000001FC0
2F801FC00FC0
2F801FC00FD0
2F401FC00FD0
2F401FC00BD0
2F401FC00BD0
2F401FC00FD0
2F801FC00FC0
1F802FD00FC0
0FC03FE01F80
0BD0BEF43F40
07FAF8FEFF00
02FFF07FFD00
007F801BE400
ENDCHAR
STARTCHAR uni0400
ENCODING 1024
SWIDTH 496 0
DWIDTH 18 0
BBX 15 33 2 0
BITMAP
0BF40000
02FC0000
00BE0000
002F8000
000B8000
00000000
00000000
7FFFFFF4
7FFFFFF4
7FAAAAA4
7F000000
7F000000
7F000000
7F000000
7F000000
7F000000
7F000000
7F000000
7FFFFFC0
7FFFFFC0
7FAAAA80
7F000000
7F000000
7F000000
7F000000
7F000000
7F000000
7F000000
7F000000
7F000000
7FAAAAA4
7FFFFFF8
7FFFFFF8
ENDCHAR
STARTCHAR uni0401
ENCODING 1025
SWIDTH 496 0
DWIDTH 18 0
BBX 15 32 2 0
BITMAP
06800640
0FE01FC0
0FE02FD0
0BD00B80
00000000
00000000
7FFFFFF4
7FFFFFF4
7FAAAAA4
7F000000
7F000000
7F000000
7F000000
7F000000
7F000000
7F000000
7F000000
7FFFFFC0
7FFFFFC0
7FAAAA80
7F000000
7F000000
7F000000
7F000000
7F000000
7F000000
7F000000
7F000000
7F000000
7FAAAAA4
7FFFFFF8
7FFFFFF8
ENDCHAR
STARTCHAR uni0402
ENCODING 1026
SWIDTH 650 0
DWIDTH 23 0
BBX 21 26 1 0
BITMAP
FFFFFFFF8000
FFFFFFFF8000
AAAFEAAA4000
000FD0000000
000FD0000000
000FD0000000
000FD0000000
000FD0000000
000FD0000000
000FD0000000
000FDAFE4000
000FFFFFF400
000FFFFFFD00
000FE401FF00
000FD0007F40
000FD0002F80
000FD0001FC0
000FD0001FC0
000FD0001FC0
000FD0001FC0
000FD0002F80
000FD0003F40
000FD000BF00
000FD01BFD00
000FD02FF400
000FD01E8000
ENDCHAR
STARTCHAR uni0403
ENCODING 1027
SWIDTH 487 0
DWIDTH 18 0
BBX 14 33 3 0
BITMAP
0001FE00
0003F800
000BE000
001F8000
002A0000
00000000
00000000
FFFFFFD0
FFFFFFD0
FEAAAA90
FC000000
FC000000
FC000000
FC000000
FC000000
FC000000
FC000000
FC000000
FC000000
FC000000
FC000000
FC000000
FC000000
FC000000
FC000000
FC000000
FC000000
FC000000
FC000000
FC000000
FC000000
FC000000
FC000000
ENDCHAR
STARTCHAR uni0404
ENCODING 1028
SWIDTH 589 0
DWIDTH 21 0
BBX 17 26 2 0
BITMAP
001BFE4000
00BFFFE000
02FFAFF800
0BF402FD00
1FD000BF00
2F80003F40
3F00002F80
7E00002F80
BE00001A40
BD00000000
FD00000000
FFFFFE0000
FFFFFE0000
FFAAA90000
FD00000000
BD00000000
BE00000000
BE00000540
7F00002F80
3F40002F80
2F80003F40
1FD000BF00
0BF402FD00
03FFBFF800
00BFFFE000
001BFA0000
ENDCHAR
STARTCHAR uni0405
ENCODING 1029
SWIDTH 518 0
DWIDTH 19 0
BBX 16 26 1 0
BITMAP
001BF900
01FFFFD0
07FFBFF4
0FE406FC
1FC000FD
2F80007F
2F40007F
2F40002A
2F800000
1FE00000
0BF90000
03FF9000
00BFFE00
001BFFD0
0000BFF8
000007FD
000000FE
0000007F
6A00003F
7F00003F
7F00007F
2F8000BE
1FE402FD
07FFAFF8
01FFFFE0
001BFE40
ENDCHAR
STARTCHAR uni0406
ENCODING 1030
SWIDTH 250 0
DWIDTH 9 0
BBX 3 26 3 0
BITMAP
FC
FC
FC
FC
FC
FC
FC
FC
FC
FC
FC
FC
FC
FC
FC
FC
FC
FC
FC
FC
FC
FC
FC
FC
FC
FC
ENDCHAR
STARTCHAR uni0407
ENCODING 1031
SWIDTH 250 0
DWIDTH 9 0
BBX 12 32 -1 0
BITMAP
680064
FE01FC
FE02FD
BD00B8
000000
000000
00FC00
00FC00
00FC00
00FC00
00FC00
00FC00
00FC00
00FC00
00FC00
00FC00
00FC00
00FC00
00FC00
00FC00
00FC00
00FC00
00FC00
00FC00
00FC00
00FC00
00FC00
00FC00
00FC00
00FC00
00FC00
00FC00
ENDCHAR
STARTCHAR uni0408
ENCODING 1032
SWIDTH 483 0
DWIDTH 17 0
BBX 14 26 1 0
BITMAP
000007E0
000007E0
000007E0
000007E0
000007E0
000007E0
000007E0
000007E0
000007E0
000007E0
000007E0
000007E0
000007E0
000007E0
000007E0
000007E0
000007E0
000007E0
540007E0
FD000BE0
BE000BE0
BF001FD0
3F807FC0
2FFBFF40
0BFFFD00
01BFA000
ENDCHAR
STARTCHAR uni0409
ENCODING 1033
SWIDTH 923 0
DWIDTH 33 0
BBX 31 26 1 0
BITMAP
007FFFFFF4000000
007FFFFFF4000000
007FAAABF4000000
007E0003F4000000
007E0003F4000000
007E0003F4000000
00BE0003F4000000
00BE0003F4000000
00BE0003F4000000
00BE0003F4000000
00BE0003FFFFE400
00BD0003FFFFFE00
00BD0003FEAAFFC0
00BD0003F4001FE0
00BD0003F40007F0
00FD0003F40003F4
00FD0003F40002F8
00FC0003F40001F8
00FC0003F40001F8
01FC0003F40002F8
02F80003F40003F4
03F40003F40007F4
0BF00003F4001FE0
BFE00003FEAAFFC0
FF800003FFFFFF00
F9000003FFFFE400
ENDCHAR
STARTCHAR uni040A
ENCODING 1034
SWIDTH 927 0
DWIDTH 33 0
BBX 29 26 3 0
BITMAP
FC00003F40000000
FC00003F40000000
FC00003F40000000
FC00003F40000000
FC00003F40000000
FC00003F40000000
FC00003F40000000
FC00003F40000000
FC00003F40000000
FC00003F40000000
FC00003F40000000
FFFFFFFFFFFE4000
FFFFFFFFFFFFF400
FEAAAABFEAAFFD00
FC00003F4001FF00
FC00003F40003F40
FC00003F40002F80
FC00003F40001F80
FC00003F40001FC0
FC00003F40001F80
FC00003F40002F80
FC00003F40007F40
FC00003F4001FF00
FC00003FFFFFFD00
FC00003FFFFFF400
FC00003FFFFE4000
ENDCHAR
STARTCHAR uni040B
ENCODING 1035
SWIDTH 705 0
DWIDTH 25 0
BBX 22 26 1 0
BITMAP
BFFFFFFFC000
BFFFFFFFC000
AAAFFAAA8000
000FD0000000
000FD0000000
000FD0000000
000FD0000000
000FD0000000
000FD0000000
000FD0000000
000FEAFF9000
000FFFFFFD00
000FFFEBFF00
000FE4007F80
000FD0001FC0
000FD0000FD0
000FD0000FD0
000FD0000BD0
000FD0000BD0
000FD0000BD0
000FD0000BD0
000FD0000BD0
000FD0000BD0
000FD0000BD0
000FD0000BD0
000FD0000BD0
ENDCHAR
STARTCHAR uni040C
ENCODING 1036
SWIDTH 544 0
DWIDTH 20 0
BBX 18 33 2 0
BITMAP
00007F4000
0001FD0000
0003F40000
000BE00000
001B800000
0000000000
0000000000
7F00007F40
7F0000FE00
7F0002FC00
7F000BF400
7F001FE000
7F003F8000
7F00BF0000
7F01FD0000
7F03F80000
7F0BF00000
7F2FD00000
7F7F800000
7FFFD00000
7FFFE00000
7FF7F40000
7FD2FC0000
7F40FE0000
7F007F4000
7F002FC000
7F001FD000
7F000BF000
7F0003F800
7F0001FD00
7F0000FF00
7F00007F80
7F00002FD0
ENDCHAR
STARTCHAR uni040D
ENCODING 1037
SWIDTH 619 0
DWIDTH 22 0
BBX 17 33 3 0
BITMAP
02FC000000
00FE000000
003F800000
001FD00000
0007A00000
0000000000
0000000000
FC00003F40
FC0000BF40
FC0000FF40
FC0002FF40
FC0003FF40
FC000BFF40
FC000FFF40
FC002F7F40
FC003F3F40
FC00BD3F40
FC00FC3F40
FC02F43F40
FC03F03F40
FC0BD03F40
FC0FC03F40
FC2F403F40
FC3F003F40
FCBD003F40
FDFC003F40
FEF4003F40
FFF0003F40
FFD0003F40
FFC0003F40
FF40003F40
FF00003F40
FD00003F40
ENDCHAR
STARTCHAR uni040E
ENCODING 1038
SWIDTH 547 0
DWIDTH 20 0
BBX 18 32 1 0
BITMAP
01F402F000
00F802F000
00BE5BE000
003FFF8000
000BF90000
0000000000
7F40001FD0
2F80002FC0
1FC0003F80
0FD0007F40
0BE000BF00
07F000FE00
03F401FD00
02F802FC00
01FC03F800
00FD07F400
007E0BF000
003F0FD000
002F9FC000
001FEF8000
000FFF4000
000BFF0000
0007FE0000
0003FD0000
0002FC0000
0002F80000
0003F40000
0007F00000
000BE00000
02BFC00000
02FF400000
02F9000000
ENDCHAR
STARTCHAR uni040F
ENCODING 1039
SWIDTH 621 0
DWIDTH 22 0
BBX 17 32 3 -6
BITMAP
FC00003F40
FC00003F40
FC00003F40
FC00003F40
FC00003F40
FC00003F40
FC00003F40
FC00003F40
FC00003F40
FC00003F40
FC00003F40
FC00003F40
FC00003F40
FC00003F40
FC00003F40
FC00003F40
FC00003F40
FC00003F40
FC00003F40
FC00003F40
FC00003F40
FC00003F40
FC00003F40
FEAAAABF40
FFFFFFFF40
FFFFFFFF40
0007F00000
0007F00000
0007F00000
0007F00000
0007F00000
0007F00000
ENDCHAR
STARTCHAR uni0410
ENCODING 1040
SWIDTH 576 0
DWIDTH 21 0
BBX 19 26 1 0
BITMAP
0000FC0000
0001FD0000
0002FE0000
0003FF0000
0007FF4000
000BDF8000
000F8F8000
001F4BC000
002F47D000
003F03E000
007E02F000
00BD02F400
00FC01F800
01F800FC00
02F400BD00
03F0007E00
07FFFFFF00
0BFFFFFF40
0FEAAABF80
1FC0000FC0
2F80000BD0
2F40000BE0
3F000007F0
7E000003F4
BD000002F8
FD000001FC
ENDCHAR
STARTCHAR uni0411
ENCODING 1041
SWIDTH 549 0
DWIDTH 20 0
BBX 17 26 2 0
BITMAP
7FFFFFF000
7FFFFFF000
7FAAAAA000
7F00000000
7F00000000
7F00000000
7F00000000
7F00000000
7F00000000
7F00000000
7F00000000
7FFFFE4000
7FFFFFE000
7FAAAFF800
7F0002FE00
7F0000BF00
7F00003F40
7F00003F40
7F00003F40
7F00003F40
7F00007F40
7F0000BF00
7F0002FD00
7FAAAFF800
7FFFFFE000
7FFFFE4000
ENDCHAR
STARTCHAR uni0412
ENCODING 1042
SWIDTH 545 0
DWIDTH 20 0
BBX 16 26 2 0
BITMAP
7FFFF900
7FFFFFC0
7FAAFFF0
7F000BF4
7F0002F8
7F0001FC
7F0001FC
7F0001FC
7F0001FC
7F0003F4
7F001BE0
7FFFFF80
7FFFFF40
7FAABFE0
7F0007F8
7F0001FC
7F0000FD
7F0000BE
7F0000BE
7F0000BE
7F0000FD
7F0001FC
7F0007F8
7FAABFF0
7FFFFFD0
7FFFF900
ENDCHAR
STARTCHAR uni0413
ENCODING 1043
SWIDTH 487 0
DWIDTH 18 0
BBX 14 26 3 0
BITMAP
FFFFFFD0
FFFFFFD0
FEAAAA90
FC000000
FC000000
FC000000
FC000000
FC000000
FC000000
FC000000
FC000000
FC000000
FC000000
FC000000
FC000000
FC000000
FC000000
FC000000
FC000000
FC000000
FC000000
FC000000
FC000000
FC000000
FC000000
FC000000
ENDCHAR
STARTCHAR uni0414
ENCODING 1044
SWIDTH 660 0
DWIDTH 24 0
BBX 22 32 1 -6
BITMAP
002FFFFFF800
002FFFFFF800
002FEAABF800
002F4002F800
003F4002F800
003F4002F800
003F4002F800
003F4002F800
003F4002F800
003F4002F800
003F0002F800
003F0002F800
007F0002F800
007F0002F800
007E0002F800
00BE0002F800
00BE0002F800
00FD0002F800
00FC0002F800
01F80002F800
02F40002F800
07F00002F800
0BE00002F800
AFFAAAABFE90
FFFFFFFFFFE0
FFFFFFFFFFE0
FD0000000BE0
FD0000000BE0
FD0000000BE0
FD0000000BE0
FD0000000BE0
FD0000000BE0
ENDCHAR
STARTCHAR uni0415
ENCODING 1045
SWIDTH 496 0
DWIDTH 18 0
BBX 15 26 2 0
BITMAP
7FFFFFF4
7FFFFFF4
7FAAAAA4
7F000000
7F000000
7F000000
7F000000
7F000000
7F000000
7F000000
7F000000
7FFFFFC0
7FFFFFC0
7FAAAA80
7F000000
7F000000
7F000000
7F000000
7F000000
7F000000
7F000000
7F000000
7F000000
7FAAAAA4
7FFFFFF8
7FFFFFF8
ENDCHAR
STARTCHAR uni0416
ENCODING 1046
SWIDTH 791 0
DWIDTH 28 0
BBX 27 26 1 0
BITMAP
7F4001FC000BF0
3F8001FC000FE0
1FD001FC001FC0
0FE001FC003F80
07F001FC007F00
03F801FC00BE00
01FC01FC01FC00
00FD01FC02F800
007F01FC03F000
003F41FC0BE000
001F81FC0FC000
000FD1FC1F8000
0007FFFFFF0000
0007FFFFFF4000
000FFBFEBF8000
002FC1FC1FD000
003F81FC0FE000
00BF01FC07F400
01FE01FC03FC00
02FC01FC01FD00
07F801FC00BF00
0BF001FC007F80
1FE001FC002FC0
3FC001FC001FE0
7F8001FC000BF0
FF0001FC0007F8
ENDCHAR
STARTCHAR uni0417
ENCODING 1047
SWIDTH 517 0
DWIDTH 19 0
BBX 16 26 1 0
BITMAP
002BF900
02FFFFD0
0BFFBFF4
1FE007FC
2F8001FD
3F4000BE
3F0000BE
000000BE
000000BE
000001FC
000007F4
000FFFD0
000FFF80
000ABFF4
000006FC
000000FD
0000007E
0000007F
5500003F
7E00007F
7F0000BE
3F8000FE
2FE007FC
0BFEBFF4
02FFFFD0
006FF900
ENDCHAR
STARTCHAR uni0418
ENCODING 1048
SWIDTH 619 0
DWIDTH 22 0
BBX 17 26 3 0
BITMAP
FC00003F40
FC0000BF40
FC0000FF40
FC0002FF40
FC0003FF40
FC000BFF40
FC000FFF40
FC002F7F40
FC003F3F40
FC00BD3F40
FC00FC3F40
FC02F43F40
FC03F03F40
FC0BD03F40
FC0FC03F40
FC2F403F40
FC3F003F40
FCBD003F40
FDFC003F40
FEF4003F40
FFF0003F40
FFD0003F40
FFC0003F40
FF40003F40
FF00003F40
FD00003F40
ENDCHAR
STARTCHAR uni0419
ENCODING 1049
SWIDTH 619 0
DWIDTH 22 0
BBX 17 32 3 0
BITMAP
03E007D000
03F00BD000
01F91F8000
00BFFF0000
001BF80000
0000000000
FC00003F40
FC0000BF40
FC0000FF40
FC0002FF40
FC0003FF40
FC000BFF40
FC000FFF40
FC002F7F40
FC003F3F40
FC00BD3F40
FC00FC3F40
FC02F43F40
FC03F03F40
FC0BD03F40
FC0FC03F40
FC2F403F40
FC3F003F40
FCBD003F40
FDFC003F40
FEF4003F40
FFF0003F40
FFD0003F40
FFC0003F40
FF40003F40
FF00003F40
FD00003F40
ENDCHAR
STARTCHAR uni041A
ENCODING 1050
SWIDTH 560 0
DWIDTH 20 0
BBX 17 26 3 0
BITMAP
FC0000FF00
FC0002FD00
FC0007F800
FC000FF000
FC002FD000
FC007F8000
FC00FF0000
FC02FD0000
FC07F80000
FC0FF00000
FC2FD00000
FFFF800000
FFFF400000
FFBFC00000
FC0FE00000
FC07F40000
FC02FC0000
FC01FE0000
FC00BF4000
FC003F8000
FC001FD000
FC000BF000
FC0007F800
FC0002FD00
FC0000FF00
FC00007F80
ENDCHAR
STARTCHAR uni041B
ENCODING 1051
SWIDTH 615 0
DWIDTH 22 0
BBX 19 26 1 0
BITMAP
007FFFFFF4
007FFFFFF4
007FAAABF4
007E0003F4
007E0003F4
007E0003F4
007E0003F4
00BE0003F4
00BE0003F4
00BE0003F4
00BE0003F4
00BE0003F4
00BD0003F4
00BD0003F4
00BD0003F4
00BD0003F4
00FD0003F4
00FC0003F4
00FC0003F4
01FC0003F4
02F80003F4
03F40003F4
0BF00003F4
BFE00003F4
FF800003F4
F9000003F4
ENDCHAR
STARTCHAR uni041C
ENCODING 1052
SWIDTH 755 0
DWIDTH 27 0
BBX 23 26 2 0
BITMAP
7FC000000FF4
7FD000001FF4
7FE000002FF4
7FF000003FF4
7FF400003FF4
7FF800007FF4
7EFC0000BEF4
7EBD0000FEF4
7E7E0001FAF4
7E3F0002F6F4
7E2F4003F2F4
7F1F8007E2F4
7F0FC00BD2F4
7F0BC00FC2F4
7F07D01F82F4
7F03E02F42F4
7F02F03F02F4
7F01F47E02F4
7F00F8BD02F4
7F00BCFC02F4
7F007EF802F4
7F003FF402F4
7F002FF002F4
7F001FE002F4
7F000FD002F4
7F000BC002F4
ENDCHAR
STARTCHAR uni041D
ENCODING 1053
SWIDTH 620 0
DWIDTH 22 0
BBX 18 26 2 0
BITMAP
7F00000BE0
7F00000BE0
7F00000BE0
7F00000BE0
7F00000BE0
7F00000BE0
7F00000BE0
7F00000BE0
7F00000BE0
7F00000BE0
7F00000BE0
7FFFFFFFE0
7FFFFFFFE0
7FAAAAAFE0
7F00000BE0
7F00000BE0
7F00000BE0
7F00000BE0
7F00000BE0
7F00000BE0
7F00000BE0
7F00000BE0
7F00000BE0
7F00000BE0
7F00000BE0
7F00000BE0
ENDCHAR
STARTCHAR uni041E
ENCODING 1054
SWIDTH 600 0
DWIDTH 22 0
BBX 18 26 2 0
BITMAP
001BFE4000
01FFFFE000
07FFFFF800
0FF406FE00
2FD0007F00
3F40002F80
7F00001FC0
7E00000FC0
BE00000FD0
BD00000FD0
BD00000BD0
BD00000BD0
BD00000BD0
BD00000BD0
BD00000BD0
BD00000BD0
BD00000FD0
BE00000FD0
7E00000FC0
7F00001FC0
3F40002F80
2FC0007F40
0FF402FE00
07FFFFF800
01FFFFE000
001BFE4000
ENDCHAR
STARTCHAR uni041F
ENCODING 1055
SWIDTH 620 0
DWIDTH 22 0
BBX 17 26 3 0
BITMAP
FFFFFFFF40
FFFFFFFF40
FEAAAABF40
FC00003F40
FC00003F40
FC00003F40
FC00003F40
FC00003F40
FC00003F40
FC00003F40
FC00003F40
FC00003F40
FC00003F40
FC00003F40
FC00003F40
FC00003F40
FC00003F40
FC00003F40
FC00003F40
FC00003F40
FC00003F40
FC00003F40
FC00003F40
FC00003F40
FC00003F40
FC00003F40
ENDCHAR
STARTCHAR uni0420
ENCODING 1056
SWIDTH 554 0
DWIDTH 20 0
BBX 17 26 2 0
BITMAP
7FFFFE4000
7FFFFFE000
7FAABFF800
7F0002FD00
7F0000BF00
7F00003F40
7F00002F40
7F00002F80
7F00002F80
7F00002F40
7F00003F40
7F0000BF00
7F0006FD00
7FFFFFF800
7FFFFFE000
7FAAA90000
7F00000000
7F00000000
7F00000000
7F00000000
7F00000000
7F00000000
7F00000000
7F00000000
7F00000000
7F00000000
ENDCHAR
STARTCHAR uni0421
ENCODING 1057
SWIDTH 566 0
DWIDTH 20 0
BBX 17 26 2 0
BITMAP
001BFE4000
01BFFFE000
07FFBFF800
0FF402FD00
2FD000BF00
3F40003F40
7F00002F80
7E00002F80
BE00001A40
BD00000000
BD00000000
BD00000000
BD00000000
BD00000000
BD00000000
BD00000000
BD00000000
BE00001540
7E00002F80
7F00002F80
3F40003F40
2FC0007F00
0FF401FD00
07FFAFF800
01FFFFE000
001BFA4000
ENDCHAR
STARTCHAR uni0422
ENCODING 1058
SWIDTH 520 0
DWIDTH 19 0
BBX 17 26 1 0
BITMAP
FFFFFFFF80
FFFFFFFF80
AAAFFAAA80
0007F00000
0007F00000
0007F00000
0007F00000
0007F00000
0007F00000
0007F00000
0007F00000
0007F00000
0007F00000
0007F00000
0007F00000
0007F00000
0007F00000
0007F00000
0007F00000
0007F00000
0007F00000
0007F00000
0007F00000
0007F00000
0007F00000
0007F00000
ENDCHAR
STARTCHAR uni0423
ENCODING 1059
SWIDTH 547 0
DWIDTH 20 0
BBX 18 26 1 0
BITMAP
7F40001FD0
2F80002FC0
1FC0003F80
0FD0007F40
0BE000BF00
07F000FE00
03F401FD00
02F802FC00
01FC03F800
00FD07F400
007E0BF000
003F0FD000
002F9FC000
001FEF8000
000FFF4000
000BFF0000
0007FE0000
0003FD0000
0002FC0000
0002F80000
0003F40000
0007F00000
000BE00000
02BFC00000
02FF400000
02F9000000
ENDCHAR
STARTCHAR uni0424
ENCODING 1060
SWIDTH 676 0
DWIDTH 24 0
BBX 22 28 1 -1
BITMAP
00001F800000
00001F800000
00001F800000
00001F800000
0006FFFE4000
007FFFFFE000
01FFAFEBFC00
07F41F81BE00
0FD01F803F40
1F801F801FC0
2F401F800BD0
3F001F800BE0
7E001F8007E0
7E001F8007F0
7E001F8007F0
7E001F8007F0
7E001F8007E0
3F001F800BE0
2F401F800BD0
1F801F801FC0
0FD01F803F40
07F41F81BE00
01FFAFEFFC00
007FFFFFE000
0006FFFE4000
00001F800000
00001F800000
00001F800000
ENDCHAR
STARTCHAR uni0425
ENCODING 1061
SWIDTH 550 0
DWIDTH 20 0
BBX 18 26 1 0
BITMAP
7F40001FD0
3F80003F80
1FD0007F40
0FE000FE00
07F401FD00
02F803F800
01FD07F400
00BE0FE000
007F5FC000
002FAF8000
001FFF0000
000BFE0000
0007FC0000
0007FD0000
000BFE0000
001FFF4000
003FAF8000
007F1FD000
00FE0BE000
01FD07F400
03F802F800
07F401FD00
0FE000BF00
1FD0007F40
3F80003FC0
BF40001FD0
ENDCHAR
STARTCHAR uni0426
ENCODING 1062
SWIDTH 639 0
DWIDTH 23 0
BBX 19 32 3 -6
BITMAP
FC00003F40
FC00003F40
FC00003F40
FC00003F40
FC00003F40
FC00003F40
FC00003F40
FC00003F40
FC00003F40
FC00003F40
FC00003F40
FC00003F40
FC00003F40
FC00003F40
FC00003F40
FC00003F40
FC00003F40
FC00003F40
FC00003F40
FC00003F40
FC00003F40
FC00003F40
FC00003F40
FEAAAABFF8
FFFFFFFFF8
FFFFFFFFF8
00000002F8
00000002F8
00000002F4
00000002F4
00000002F4
00000002F4
ENDCHAR
STARTCHAR uni0427
ENCODING 1063
SWIDTH 600 0
DWIDTH 22 0
BBX 17 26 2 0
BITMAP
BE00002F80
BE00002F80
BE00002F80
BE00002F80
BE00002F80
BE00002F80
BE00002F80
BE00002F80
BE00002F80
7E00002F80
7F00002F80
3F40002F80
2FD005BF80
0FFFFFFF80
02FFFFFF80
006AA92F80
0000002F80
0000002F80
0000002F80
0000002F80
0000002F80
0000002F80
0000002F80
0000002F80
0000002F80
0000002F80
ENDCHAR
STARTCHAR uni0428
ENCODING 1064
SWIDTH 814 0
DWIDTH 29 0
BBX 24 26 3 0
BITMAP
FC000FD000BD
FC000FD000BD
FC000FD000BD
FC000FD000BD
FC000FD000BD
FC000FD000BD
FC000FD000BD
FC000FD000BD
FC000FD000BD
FC000FD000BD
FC000FD000BD
FC000FD000BD
FC000FD000BD
FC000FD000BD
FC000FD000BD
FC000FD000BD
FC000FD000BD
FC000FD000BD
FC000FD000BD
FC000FD000BD
FC000FD000BD
FC000FD000BD
FC000FD000BD
FEAAAFFAAAFD
FFFFFFFFFFFD
FFFFFFFFFFFD
ENDCHAR
STARTCHAR uni0429
ENCODING 1065
SWIDTH 841 0
DWIDTH 30 0
BBX 26 32 3 -6
BITMAP
FC000FD000BD00
FC000FD000BD00
FC000FD000BD00
FC000FD000BD00
FC000FD000BD00
FC000FD000BD00
FC000FD000BD00
FC000FD000BD00
FC000FD000BD00
FC000FD000BD00
FC000FD000BD00
FC000FD000BD00
FC000FD000BD00
FC000FD000BD00
FC000FD000BD00
FC000FD000BD00
FC000FD000BD00
FC000FD000BD00
FC000FD000BD00
FC000FD000BD00
FC000FD000BD00
FC000FD000BD00
FC000FD000BD00
FEAAAFFAAAFE90
FFFFFFFFFFFFE0
FFFFFFFFFFFFE0
000000000007E0
000000000007D0
000000000007D0
000000000007D0
000000000007D0
000000000007D0
ENDCHAR
STARTCHAR uni042A
ENCODING 1066
SWIDTH 651 0
DWIDTH 23 0
BBX 22 26 0 0
BITMAP
7FFFE0000000
7FFFE0000000
6AAFE0000000
000BE0000000
000BE0000000
000BE0000000
000BE0000000
000BE0000000
000BE0000000
000BE0000000
000BE0000000
000BFFFFA000
000BFFFFFE00
000BFAABFF80
000BE0002FD0
000BE0000FE0
000BE00007F0
000BE00007F0
000BE00007F0
000BE00007F0
000BE00007F0
000BE0000FE0
000BE0002FC0
000BFAABFF40
000BFFFFFD00
000BFFFFA000
ENDCHAR
STARTCHAR uni042B
ENCODING 1067
SWIDTH 755 0
DWIDTH 27 0
BBX 21 26 3 0
BITMAP
FC0000000FC0
FC0000000FC0
FC0000000FC0
FC0000000FC0
FC0000000FC0
FC0000000FC0
FC0000000FC0
FC0000000FC0
FC0000000FC0
FC0000000FC0
FC0000000FC0
FFFFF9000FC0
FFFFFFD00FC0
FEAABFF00FC0
FC0007F80FC0
FC0001FD0FC0
FC0000FD0FC0
FC0000BE0FC0
FC0000BE0FC0
FC0000BE0FC0
FC0000FD0FC0
FC0001FC0FC0
FC0007F80FC0
FEAABFF00FC0
FFFFFFC00FC0
FFFFF9000FC0
ENDCHAR
STARTCHAR uni042C
ENCODING 1068
SWIDTH 551 0
DWIDTH 20 0
BBX 17 26 2 0
BITMAP
7F00000000
7F00000000
7F00000000
7F00000000
7F00000000
7F00000000
7F00000000
7F00000000
7F00000000
7F00000000
7F00000000
7FFFFE4000
7FFFFFE000
7FAAAFF800
7F0002FE00
7F0000BF00
7F00003F40
7F00003F40
7F00003F40
7F00003F40
7F00007F40
7F0000BF00
7F0002FD00
7FAAAFF800
7FFFFFE000
7FFFFE4000
ENDCHAR
STARTCHAR uni042D
ENCODING 1069
SWIDTH 589 0
DWIDTH 21 0
BBX 18 26 2 0
BITMAP
001BF90000
01FFFFD000
07FFBFF400
0FF407FC00
1FC000FE00
3F80007F00
3F40002F80
7F00001F80
5500001FC0
0000000FC0
0000000FD0
0000000FD0
001FFFFFD0
001FFFFFD0
000AAAAFD0
0000000FD0
0000000FD0
1500000FC0
7F00001FC0
3F00002F80
3F40003F40
1FC000BE00
0FE402FD00
07FFBFF400
01FFFFD000
001BF90000
ENDCHAR
STARTCHAR uni042E
ENCODING 1070
SWIDTH 765 0
DWIDTH 28 0
BBX 24 26 3 0
BITMAP
FC0001BFA000
FC001FFFFE00
FC00BFFFFF80
FC01FF406FD0
FC03FC000BF0
FC07F40003F4
FC0BF00002F8
FC0BE00001FC
FC0FD00000FC
FC0FD00000FC
FC0FD00000FD
FFFFD00000FD
FFFFD00000FD
FEAFD00000FD
FC0FD00000FD
FC0FD00000FD
FC0FD00000FC
FC0BD00000FC
FC0BE00001FC
FC07E00002F8
FC03F40003F4
FC02FC000BF0
FC00FF402FD0
FC007FFFFF80
FC001FFFFE00
FC0001BFA400
ENDCHAR
STARTCHAR uni042F
ENCODING 1071
SWIDTH 562 0
DWIDTH 20 0
BBX 15 26 2 0
BITMAP
006FFFFC
02FFFFFC
0BFFAAFC
2FE000FC
3F8000FC
7F0000FC
7F0000FC
7E0000FC
7E0000FC
7F0000FC
3F4000FC
2F8000FC
1FE400FC
07FFFFFC
00BFFFFC
00BFAAFC
00FD00FC
02F800FC
03F400FC
07F000FC
0FD000FC
1FC000FC
2F8000FC
7F0000FC
BE0000FC
FD0000FC
ENDCHAR
STARTCHAR uni0430
ENCODING 1072
SWIDTH 479 0
DWIDTH 17 0
BBX 14 19 2 0
BITMAP
01BFA000
0BFFFD00
1FFAFF00
3F407F40
7E002F80
69001F80
00001F80
00001F80
01AFFF80
0BFFFF80
2FE56F80
7F001F80
BD001F80
FC001F80
FD002F80
BE00BF80
7FFFFFC0
2FFFDFC0
06FE0FD0
ENDCHAR
STARTCHAR uni0431
ENCODING 1073
SWIDTH 484 0
DWIDTH 17 0
BBX 15 27 1 0
BITMAP
000002F0
000007F0
00006FE0
001BFFC0
007FFE00
01FF5000
03F40000
0BD00000
0F800000
1F0BF900
2E7FFF80
2EFEBFD0
3FE00BF0
3F8003F4
3F4001F8
7F0001FC
7F0000FC
7F0000FC
7F0000FC
3F0000FC
3F4001FC
2F4002F8
1FC003F4
0FE00BE0
07FEBFD0
01FFFF40
002FE800
ENDCHAR
STARTCHAR uni0432
ENCODING 1074
SWIDTH 503 0
DWIDTH 18 0
BBX 15 19 2 0
BITMAP
7FFFE400
7FFFFF40
7FAAFFC0
7E001FD0
7E000BE0
7E0007E0
7E000BD0
7E006FC0
7FFFFF40
7FFFFE00
7FAABFD0
7E000BE0
7E0003F0
7E0003F4
7E0003F0
7E000BF0
7FAABFD0
7FFFFF80
7FFFF900
ENDCHAR
STARTCHAR uni0433
ENCODING 1075
SWIDTH 371 0
DWIDTH 13 0
BBX 11 19 2 0
BITMAP
7FFFF8
7FFFF8
7FAAA8
7E0000
7E0000
7E0000
7E0000
7E0000
7E0000
7E0000
7E0000
7E0000
7E0000
7E0000
7E0000
7E0000
7E0000
7E0000
7E0000
ENDCHAR
STARTCHAR uni0434
ENCODING 1076
SWIDTH 536 0
DWIDTH 19 0
BBX 17 25 1 -6
BITMAP
00BFFFFC00
00FFFFFC00
00FFFFFC00
00FD01FC00
00FD01FC00
00FC01FC00
00FC01FC00
00FC01FC00
00FC01FC00
00FC01FC00
01F801FC00
01F801FC00
02F401FC00
03F001FC00
0BE001FC00
0FD001FC00
BFEAAAFE80
FFFFFFFFC0
FFFFFFFFC0
FC00000FC0
FC00000FC0
FC00000FC0
FC00000FC0
FC00000FC0
FC00000FC0
ENDCHAR
STARTCHAR uni0435
ENCODING 1077
SWIDTH 468 0
DWIDTH 17 0
BBX 15 19 1 0
BITMAP
006FE800
02FFFF40
07FEBFC0
0FD00FE0
2F8007F0
3F4003F0
3F0002F4
7F0002F4
7FFFFFF4
7FFFFFF4
7FAAAAA4
7F000000
3F000000
3F000000
2F800040
1FD002E0
0BFEAFF0
02FFFF90
006FF900
ENDCHAR
STARTCHAR uni0436
ENCODING 1078
SWIDTH 662 0
DWIDTH 24 0
BBX 22 19 1 0
BITMAP
BF002F401FD0
3F802F402F80
2FC02F407F40
0FD02F40BE00
07F02F41FD00
03F42F42F800
01FC2F43F000
00BD2F4BE000
007FFFFFC000
003FFFFF8000
00BFFFFFD000
00FD2F47F000
02F82F43F400
07F42F41FC00
0BE02F40FE00
1FD02F40BF00
3F802F403F80
BF402F402FD0
FE002F400FE0
ENDCHAR
STARTCHAR uni0437
ENCODING 1079
SWIDTH 446 0
DWIDTH 16 0
BBX 14 19 1 0
BITMAP
00BFE400
07FFFD00
1FFAFF40
2F802F80
3F001FC0
15000FC0
00001F80
00007F40
00BFFE00
00BFFC00
006AFF40
00002FC0
00000FD0
6A000FD0
7F000FD0
3F802FC0
1FFAFF40
0BFFFE00
01BFE400
ENDCHAR
STARTCHAR uni0438
ENCODING 1080
SWIDTH 509 0
DWIDTH 18 0
BBX 14 19 2 0
BITMAP
7E000BE0
7E000FE0
7E002FE0
7E003FE0
7E00BFE0
7E00FBE0
7E02F7E0
7E03D7E0
7E0BC7E0
7E0F47E0
7E2F07E0
7E3D07E0
7EBC07E0
7FF407E0
7FF007E0
7FD007E0
7FC007E0
7F4007E0
7F0007E0
ENDCHAR
STARTCHAR uni0439
ENCODING 1081
SWIDTH 509 0
DWIDTH 18 0
BBX 14 26 2 0
BITMAP
0F801F40
0FC02F40
07E47E00
02FFFC00
006FE000
00000000
00000000
7E000BE0
7E000FE0
7E002FE0
7E003FE0
7E00BFE0
7E00FBE0
7E02F7E0
7E03D7E0
7E0BC7E0
7E0F47E0
7E2F07E0
7E3D07E0
7EBC07E0
7FF407E0
7FF007E0
7FD007E0
7FC007E0
7F4007E0
7F0007E0
ENDCHAR
STARTCHAR uni043A
ENCODING 1082
SWIDTH 479 0
DWIDTH 17 0
BBX 15 19 2 0
BITMAP
7E000BE0
7E002FC0
7E007F40
7E00BE00
7E01FC00
7E03F400
7E0BE000
7E1FC000
7FFF4000
7FFF4000
7FFF8000
7E0FE000
7E07F400
7E02FC00
7E01FE00
7E00BF40
7E003FC0
7E001FE0
7E000BF4
ENDCHAR
STARTCHAR uni043B
ENCODING 1083
SWIDTH 509 0
DWIDTH 18 0
BBX 15 19 1 0
BITMAP
01FFFFF8
01FFFFF8
01FEAAF8
01F801F8
02F801F8
02F401F8
02F401F8
02F401F8
02F401F8
02F401F8
02F401F8
03F001F8
03F001F8
07F001F8
07E001F8
1FD001F8
FFC001F8
FF4001F8
F90001F8
ENDCHAR
STARTCHAR uni043C
ENCODING 1084
SWIDTH 645 0
DWIDTH 23 0
BBX 19 19 2 0
BITMAP
7F800007F8
7FC0000BF8
7FD0000FF8
7FE0001FF8
7FF0002FF8
7FF4003FF8
7EFC00BEF8
7EBD00FDF8
7E7E01F9F8
7E3F02F5F8
7E2F43F1F8
7E0F87D1F8
7E0BCBC1F8
7E07DF81F8
7E03EF41F8
7E02FF01F8
7E01FE01F8
7E00FD01F8
7E00BC01F8
ENDCHAR
STARTCHAR uni043D
ENCODING 1085
SWIDTH 508 0
DWIDTH 18 0
BBX 14 19 2 0
BITMAP
7E0007E0
7E0007E0
7E0007E0
7E0007E0
7E0007E0
7E0007E0
7E0007E0
7E0007E0
7FFFFFE0
7FFFFFE0
7FAAABE0
7E0007E0
7E0007E0
7E0007E0
7E0007E0
7E0007E0
7E0007E0
7E0007E0
7E0007E0
ENDCHAR
STARTCHAR uni043E
ENCODING 1086
SWIDTH 501 0
DWIDTH 18 0
BBX 16 19 1 0
BITMAP
002FF800
01FFFF40
07FEBFD0
0FE00BF4
2F8002F8
3F4001FC
3F0000FD
7F0000BD
7E0000BD
7E0000BD
7E0000BD
7F0000BD
3F0000FD
3F4000FC
2F8002F8
0FE007F4
07FEBFD0
01FFFF40
002FF900
ENDCHAR
STARTCHAR uni043F
ENCODING 1087
SWIDTH 509 0
DWIDTH 18 0
BBX 14 19 2 0
BITMAP
7FFFFFE0
7FFFFFE0
7FAAABE0
7E0007E0
7E0007E0
7E0007E0
7E0007E0
7E0007E0
7E0007E0
7E0007E0
7E0007E0
7E0007E0
7E0007E0
7E0007E0
7E0007E0
7E0007E0
7E0007E0
7E0007E0
7E0007E0
ENDCHAR
STARTCHAR uni0440
ENCODING 1088
SWIDTH 493 0
DWIDTH 18 0
BBX 14 26 2 -7
BITMAP
BD2FE400
BDFFFE00
BFFBFF80
BF802FD0
BE000FE0
BD0007E0
BD0007F0
BD0003F0
BD0003F0
BD0003F0
BD0003F0
BD0003F0
BD0007F0
BD0007E0
BE000BE0
BF402FD0
BFFAFF80
BEFFFE00
BD2FE400
BD000000
BD000000
BD000000
BD000000
BD000000
BD000000
BD000000
ENDCHAR
STARTCHAR uni0441
ENCODING 1089
SWIDTH 461 0
DWIDTH 17 0
BBX 15 19 1 0
BITMAP
006FE800
02FFFF40
0BFEBFC0
1FD00BE0
2F8003F0
3F0002F4
7F0002F4
7F000000
7E000000
7E000000
7E000000
7F000000
7F000150
3F0002F4
2F4003F0
1FD00BE0
0BFEBFC0
02FFFF40
006FE400
ENDCHAR
STARTCHAR uni0442
ENCODING 1090
SWIDTH 424 0
DWIDTH 15 0
BBX 14 19 1 0
BITMAP
FFFFFFD0
FFFFFFD0
AABFAA90
003F0000
003F0000
003F0000
003F0000
003F0000
003F0000
003F0000
003F0000
003F0000
003F0000
003F0000
003F0000
003F0000
003F0000
003F0000
003F0000
ENDCHAR
STARTCHAR uni0443
ENCODING 1091
SWIDTH 416 0
DWIDTH 15 0
BBX 14 26 0 -7
BITMAP
7F0003F0
3F4007F0
2F800BE0
1FC00FD0
0FD01FC0
0BD01F80
07E02F40
03F03F00
02F47E00
01F47D00
01F8BD00
00FCFC00
00BDF800
007FF400
003FF000
002FE000
001FD000
000FC000
000FC000
000F8000
001F4000
003F0000
00BE0000
1FFC0000
1FF40000
1F900000
ENDCHAR
STARTCHAR uni0444
ENCODING 1092
SWIDTH 628 0
DWIDTH 23 0
BBX 20 34 1 -7
BITMAP
00007E0000
00007E0000
00007E0000
00007E0000
00007E0000
00007E0000
00007E0000
00007E0000
007FBFBE40
02FFFFFFD0
0BFEFFAFF4
0FD07E03F8
1F807E01FC
2F407E00BD
3F007E00BE
3F007E007E
7F007E007E
7F007E007E
7F007E007F
3F007E007E
3F007E007E
3F407E00BE
2F807E00FD
1FD07E02FC
0BFAFFAFF4
03FFFFFFE0
00BFBFBE40
00007E0000
00007E0000
00007E0000
00007E0000
00007E0000
00007E0000
00007E0000
ENDCHAR
STARTCHAR uni0445
ENCODING 1093
SWIDTH 438 0
DWIDTH 16 0
BBX 14 19 1 0
BITMAP
BF000FD0
3F402FC0
2F803F40
0FD0BE00
07E0FD00
03F2F800
01FBF000
00BFE000
007FC000
003F8000
007FC000
00FFE000
02FBF400
03F1F800
0BE0FD00
1FC07F00
2F803F40
7F401FC0
BE000FE0
ENDCHAR
STARTCHAR uni0446
ENCODING 1094
SWIDTH 524 0
DWIDTH 19 0
BBX 16 25 2 -6
BITMAP
7E0007E0
7E0007E0
7E0007E0
7E0007E0
7E0007E0
7E0007E0
7E0007E0
7E0007E0
7E0007E0
7E0007E0
7E0007E0
7E0007E0
7E0007E0
7E0007E0
7E0007E0
7E0007E0
7FAAABF9
7FFFFFFE
7FFFFFFE
0000007E
0000007E
0000007E
0000007D
0000007D
0000007D
ENDCHAR
STARTCHAR uni0447
ENCODING 1095
SWIDTH 479 0
DWIDTH 17 0
BBX 14 19 1 0
BITMAP
7F0007E0
7F0007E0
7F0007E0
7F0007E0
7F0007E0
7F0007E0
3F0007E0
3F0007E0
2F8007E0
1FD01BE0
0BFFFFE0
02FFFFE0
006A9BE0
000007E0
000007E0
000007E0
000007E0
000007E0
000007E0
ENDCHAR
STARTCHAR uni0448
ENCODING 1096
SWIDTH 703 0
DWIDTH 25 0
BBX 21 19 2 0
BITMAP
7E003F401F80
7E003F401F80
7E003F401F80
7E003F401F80
7E003F401F80
7E003F401F80
7E003F401F80
7E003F401F80
7E003F401F80
7E003F401F80
7E003F401F80
7E003F401F80
7E003F401F80
7E003F401F80
7E003F401F80
7E003F401F80
7FAABFAAAF80
7FFFFFFFFF80
7FFFFFFFFF80
ENDCHAR
STARTCHAR uni0449
ENCODING 1097
SWIDTH 722 0
DWIDTH 26 0
BBX 23 25 2 -6
BITMAP
BE003F002F40
BE003F002F40
BE003F002F40
BE003F002F40
BE003F002F40
BE003F002F40
BE003F002F40
BE003F002F40
BE003F002F40
BE003F002F40
BE003F002F40
BE003F002F40
BE003F002F40
BE003F002F40
BE003F002F40
BE003F002F40
BFAABFAABFA8
BFFFFFFFFFF8
BFFFFFFFFFF8
0000000001F8
0000000001F8
0000000001F8
0000000001F8
0000000001F8
0000000001F8
ENDCHAR
STARTCHAR uni044A
ENCODING 1098
SWIDTH 538 0
DWIDTH 19 0
BBX 19 19 0 0
BITMAP
7FFF400000
7FFF400000
2ABF400000
002F400000
002F400000
002F400000
002F400000
002FFFF900
002FFFFF80
002FAABFD0
002F400BF0
002F4003F4
002F4003F4
002F4003F4
002F4003F4
002F400BF0
002FAABFD0
002FFFFF80
002FFFF900
ENDCHAR
STARTCHAR uni044B
ENCODING 1099
SWIDTH 679 0
DWIDTH 24 0
BBX 20 19 2 0
BITMAP
7E000000BD
7E000000BD
7E000000BD
7E000000BD
7E000000BD
7E000000BD
7E000000BD
7FFFE400BD
7FFFFE00BD
7FAAFF80BD
7E001FC0BD
7E000FD0BD
7E000BE0BD
7E000BE0BD
7E000BD0BD
7E001FC0BD
7FAABF80BD
7FFFFE00BD
7FFFE400BD
ENDCHAR
STARTCHAR uni044C
ENCODING 1100
SWIDTH 478 0
DWIDTH 17 0
BBX 14 19 2 0
BITMAP
7E000000
7E000000
7E000000
7E000000
7E000000
7E000000
7E000000
7FFFE400
7FFFFE00
7FAAFF80
7E001FC0
7E000FD0
7E000BE0
7E000BE0
7E000BD0
7E001FC0
7FAABF80
7FFFFE00
7FFFE400
ENDCHAR
STARTCHAR uni044D
ENCODING 1101
SWIDTH 472 0
DWIDTH 17 0
BBX 13 19 2 0
BITMAP
01BE4000
0BFFF400
2FEBFC00
BF00BE00
FD003F40
FC002F80
00001F80
00000FC0
00BFFFC0
00BFFFC0
006AAFC0
00000FC0
A4001F80
FC002F40
FD003F40
BF00BE00
3FEBFC00
0FFFF000
01BE4000
ENDCHAR
STARTCHAR uni044E
ENCODING 1102
SWIDTH 706 0
DWIDTH 25 0
BBX 22 19 2 0
BITMAP
7E0001BF9000
7E000BFFF800
7E002FFBFE00
7E007F407F40
7E00FD001FC0
7E01FC000FD0
7E02F8000BE0
7E02F40007E0
7FFFF40007F0
7FFFF40007F0
7FABF40007E0
7E02F40007E0
7E02F8000BE0
7E01FC000FD0
7E00FD001FC0
7E007F407F40
7E002FFAFE00
7E000BFFF800
7E0001BF9000
ENDCHAR
STARTCHAR uni044F
ENCODING 1103
SWIDTH 482 0
DWIDTH 17 0
BBX 14 19 1 0
BITMAP
01BFFFE0
07FFFFE0
1FFAABE0
2F8007E0
3F0007E0
7F0007E0
7F0007E0
3F4007E0
2FD007E0
0FFFFFE0
07FFFFE0
01FEABE0
02F807E0
07F007E0
0FD007E0
1FC007E0
3F4007E0
7F0007E0
FD0007E0
ENDCHAR
STARTCHAR uni0450
ENCODING 1104
SWIDTH 468 0
DWIDTH 17 0
BBX 15 26 1 0
BITMAP
07F80000
01FD0000
00BF0000
002F8000
000B9000
00000000
00000000
006FE800
02FFFF40
07FEBFC0
0FD00FE0
2F8007F0
3F4003F0
3F0002F4
7F0002F4
7FFFFFF4
7FFFFFF4
7FAAAAA4
7F000000
3F000000
3F000000
2F800040
1FD002E0
0BFEAFF0
02FFFF90
006FF900
ENDCHAR
STARTCHAR uni0451
ENCODING 1105
SWIDTH 468 0
DWIDTH 17 0
BBX 15 26 1 0
BITMAP
02800640
0BE01FD0
0FE01FD0
07D00B80
00000000
00000000
00000000
006FE800
02FFFF40
07FEBFC0
0FD00FE0
2F8007F0
3F4003F0
3F0002F4
7F0002F4
7FFFFFF4
7FFFFFF4
7FAAAAA4
7F000000
3F000000
3F000000
2F800040
1FD002E0
0BFEAFF0
02FFFF90
006FF900
ENDCHAR
STARTCHAR uni0452
ENCODING 1106
SWIDTH 482 0
DWIDTH 17 0
BBX 15 34 0 -7
BITMAP
0BD00000
0BD00000
0BD00000
FFFFE000
FFFFE000
AFEA9000
0BD00000
0BD00000
0BD1BE40
0BDBFFE0
0BFFFFF4
0BFD03F8
0BF001FC
0BE000FC
0BD000FC
0BD000FC
0BD000FC
0BD000FC
0BD000FC
0BD000FC
0BD000FC
0BD000FC
0BD000FC
0BD000FC
0BD000FC
0BD000FC
0BD000FC
000000FC
000000FC
000001FC
000002F8
00006BF4
00007FE0
00007F40
ENDCHAR
STARTCHAR uni0453
ENCODING 1107
SWIDTH 371 0
DWIDTH 13 0
BBX 11 26 2 0
BITMAP
000FE0
002F80
00BE00
01FC00
02B000
000000
000000
7FFFF8
7FFFF8
7FAAA8
7E0000
7E0000
7E0000
7E0000
7E0000
7E0000
7E0000
7E0000
7E0000
7E0000
7E0000
7E0000
7E0000
7E0000
7E0000
7E0000
ENDCHAR
STARTCHAR uni0454
ENCODING 1108
SWIDTH 472 0
DWIDTH 17 0
BBX 14 19 2 0
BITMAP
00AFE000
07FFFD00
1FFAFF00
3F802F80
7F000FC0
BD000BD0
FC000690
FC000000
FFFF4000
FFFF4000
FEAA4000
FC000000
FD000000
BD000BD0
7F000FD0
3F802F80
1FFAFF00
07FFFD00
00AF9000
ENDCHAR
STARTCHAR uni0455
ENCODING 1109
SWIDTH 455 0
DWIDTH 16 0
BBX 14 19 1 0
BITMAP
006FE400
03FFFE00
0FFAFF80
1FD02FC0
2F800FD0
2F400690
2FC00000
0FF80000
07FF9000
00BFF900
000BFF40
00007FC0
00000FE0
6A000BE0
3F400BE0
2F801FD0
1FFABFC0
07FFFF00
006FE400
ENDCHAR
STARTCHAR uni0456
ENCODING 1110
SWIDTH 229 0
DWIDTH 8 0
BBX 4 26 2 0
BITMAP
29
7E
BF
3D
00
00
00
7E
7E
7E
7E
7E
7E
7E
7E
7E
7E
7E
7E
7E
7E
7E
7E
7E
7E
7E
ENDCHAR
STARTCHAR uni0457
ENCODING 1111
SWIDTH 234 0
DWIDTH 8 0
BBX 12 26 -2 0
BITMAP
190028
7F40BE
7F40BF
2E007D
000000
000000
000000
007E00
007E00
007E00
007E00
007E00
007E00
007E00
007E00
007E00
007E00
007E00
007E00
007E00
007E00
007E00
007E00
007E00
007E00
007E00
ENDCHAR
STARTCHAR uni0458
ENCODING 1112
SWIDTH 223 0
DWIDTH 8 0
BBX 7 33 -1 -7
BITMAP
01A0
02F4
02F8
01F4
0000
0000
0000
02F8
02F8
02F8
02F8
02F8
02F8
02F8
02F8
02F8
02F8
02F8
02F8
02F8
02F8
02F8
02F8
02F8
02F8
02F8
02F8
02F4
02F4
03F4
6FF0
7FE0
7F40
ENDCHAR
STARTCHAR uni0459
ENCODING 1113
SWIDTH 729 0
DWIDTH 26 0
BBX 24 19 1 0
BITMAP
01FFFFF00000
01FFFFF00000
02FEABF00000
02F803F00000
02F403F00000
02F403F00000
02F403F00000
02F403FFFF80
02F403FFFFF4
02F403FAABFC
03F003F000FE
03F003F0007E
03F003F0007F
07E003F0007F
0BE003F0007E
1FD003F000FE
FFC003FAABFC
FF4003FFFFF4
F90003FFFE80
ENDCHAR
STARTCHAR uni045A
ENCODING 1114
SWIDTH 743 0
DWIDTH 27 0
BBX 24 19 2 0
BITMAP
7E0007E00000
7E0007E00000
7E0007E00000
7E0007E00000
7E0007E00000
7E0007E00000
7E0007E00000
7FFFFFFFFE40
7FFFFFFFFFE0
7FAAABFAAFF8
7E0007E002FC
7E0007E000BD
7E0007E000BE
7E0007E000BE
7E0007E000FD
7E0007E001FC
7E0007FAABF8
7E0007FFFFE0
7E0007FFFE40
ENDCHAR
STARTCHAR uni045B
ENCODING 1115
SWIDTH 499 0
DWIDTH 18 0
BBX 15 27 0 0
BITMAP
0BD00000
0BD00000
0BD00000
BFFFF000
BFFFF000
6FEAA000
0BD00000
0BD00000
0BD1BE40
0BDBFFE0
0BFFFFF4
0BFD07F8
0BF001FC
0BE000FC
0BD000FC
0BD000FC
0BD000FC
0BD000FC
0BD000FC
0BD000FC
0BD000FC
0BD000FC
0BD000FC
0BD000FC
0BD000FC
0BD000FC
0BD000FC
ENDCHAR
STARTCHAR uni045C
ENCODING 1116
SWIDTH 479 0
DWIDTH 17 0
BBX 15 26 2 0
BITMAP
0001FD00
0007F400
000FE000
002F8000
002E0000
00000000
00000000
7E000BE0
7E002FC0
7E007F40
7E00BE00
7E01FC00
7E03F400
7E0BE000
7E1FC000
7FFF4000
7FFF4000
7FFF8000
7E0FE000
7E07F400
7E02FC00
7E01FE00
7E00BF40
7E003FC0
7E001FE0
7E000BF4
ENDCHAR
STARTCHAR uni045D
ENCODING 1117
SWIDTH 509 0
DWIDTH 18 0
BBX 14 26 2 0
BITMAP
0BF00000
03F80000
00FE0000
007F4000
001E8000
00000000
00000000
7E000BE0
7E000FE0
7E002FE0
7E003FE0
7E00BFE0
7E00FBE0
7E02F7E0
7E03D7E0
7E0BC7E0
7E0F47E0
7E2F07E0
7E3D07E0
7EBC07E0
7FF407E0
7FF007E0
7FD007E0
7FC007E0
7F4007E0
7F0007E0
ENDCHAR
STARTCHAR uni045E
ENCODING 1118
SWIDTH 416 0
DWIDTH 15 0
BBX 14 33 0 -7
BITMAP
07D00BC0
07E00FC0
02F46F40
00FFFE00
002FE400
00000000
00000000
7F0003F0
3F4007F0
2F800BE0
1FC00FD0
0FD01FC0
0BD01F80
07E02F40
03F03F00
02F47E00
01F47D00
01F8BD00
00FCFC00
00BDF800
007FF400
003FF000
002FE000
001FD000
000FC000
000FC000
000F8000
001F4000
003F0000
00BE0000
1FFC0000
1FF40000
1F900000
ENDCHAR
STARTCHAR uni045F
ENCODING 1119
SWIDTH 509 0
DWIDTH 18 0
BBX 14 25 2 -6
BITMAP
7E0007E0
7E0007E0
7E0007E0
7E0007E0
7E0007E0
7E0007E0
7E0007E0
7E0007E0
7E0007E0
7E0007E0
7E0007E0
7E0007E0
7E0007E0
7E0007E0
7E0007E0
7E0007E0
7FAAABE0
7FFFFFE0
7FFFFFE0
001F8000
001F8000
001F8000
001F8000
001F8000
001F8000
ENDCHAR
STARTCHAR uni0460
ENCODING 1120
SWIDTH 754 0
DWIDTH 27 0
BBX 23 26 2 0
BITMAP
7E000FD001F8
7E000FD001F8
7E000FD001F8
7E000FD001F8
7E000FD001F8
7E000FD001F8
7E000FD001F8
7E000FD001F8
7E000FD001F8
7E000FD001F8
7E000FD001F8
7E000FD001F8
7E000FD001F8
7E000FD001F8
7E000FD001F8
7E000FD001F8
7E000FD001F8
7E000FD001F8
7E000FD001F8
7F000FD002F8
7F001FE002F8
3F402FF003F4
2FC07FF80BF0
1FFBFDFFBFD0
07FFF87FFF80
01BF901BF900
ENDCHAR
STARTCHAR uni0461
ENCODING 1121
SWIDTH 650 0
DWIDTH 23 0
BBX 20 19 2 0
BITMAP
FD00BD00BE
FD00BD00BE
FD00BD00BE
FD00BD00BE
FD00BD00BE
FD00BD00BE
FD00BD00BE
FD00BD00BE
FD00BD00BE
FD00BD00BE
FD00BD00BE
FD00BD00BE
FD00BD00BD
FD00FD00BD
BD00FE00FD
7F02FF41FC
3FEFFFEBF8
1FFFCBFFE0
06FE01BE40
ENDCHAR
STARTCHAR uni0462
ENCODING 1122
SWIDTH 551 0
DWIDTH 20 0
BBX 20 26 -1 0
BITMAP
01FC000000
01FC000000
01FC000000
01FC000000
BFFFF00000
BFFFF00000
6AFEA00000
01FC000000
01FC000000
01FC000000
01FC000000
01FFFFF900
01FFFFFF80
01FEAABFE0
01FC000BF8
01FC0002FC
01FC0000FD
01FC0000FD
01FC0000FD
01FC0000FD
01FC0001FD
01FC0002FC
01FC000BF4
01FEAABFE0
01FFFFFF80
01FFFFF900
ENDCHAR
STARTCHAR uni0463
ENCODING 1123
SWIDTH 477 0
DWIDTH 17 0
BBX 17 27 -1 0
BITMAP
01F8000000
01F8000000
01F8000000
01F8000000
01F8000000
01F8000000
7FFFFD0000
7FFFFD0000
2AFEA90000
01F8000000
01F8000000
01F8000000
01F8000000
01F8000000
01FFFF9000
01FFFFF800
01FEABFD00
01F800BF00
01F8003F40
01F8002F40
01F8002F80
01F8002F40
01F8003F40
01F800BF00
01FEABFD00
01FFFFF800
01FFFF9000
ENDCHAR
STARTCHAR uni0464
ENCODING 1124
SWIDTH 772 0
DWIDTH 28 0
BBX 23 26 3 0
BITMAP
FC0001BF9000
FC001FFFFD00
FC007FFBFF40
FC00FE406FC0
FC02F8000FE0
FC07F40007F0
FC0BE00003F4
FC0BD00003F4
FC0FD0000154
FC0FC0000000
FC1FC0000000
FFFFFFFFC000
FFFFFFFFC000
FEAFEAAA8000
FC1FC0000000
FC1FC0000000
FC0FC0000000
FC0FD0000154
FC0BD00003F4
FC07E00003F4
FC03F40007F0
FC02F8000FE0
FC00FE006FC0
FC007FFBFF40
FC001FFFFD00
FC0001BF9000
ENDCHAR
STARTCHAR uni0465
ENCODING 1125
SWIDTH 646 0
DWIDTH 23 0
BBX 20 19 2 0
BITMAP
7E0006FE40
7E003FFFD0
7E00FFAFF4
7E02FC02FC
7E03F400BD
7E07E0007E
7E0BD00029
7E0BD00000
7FFFFFFE00
7FFFFFFE00
7FAFEAA900
7E0BD00000
7E0BD00000
7E07E0007E
7E03F400BD
7E02FC02FC
7E00FFAFF4
7E002FFFD0
7E0006FE00
ENDCHAR
STARTCHAR uni0466
ENCODING 1126
SWIDTH 526 0
DWIDTH 19 0
BBX 18 26 1 0
BITMAP
0001F80000
0002FC0000
0003FD0000
0007FD0000
000BFE0000
000FFF0000
001FAF4000
002F5F8000
003F4FC000
003F0FD000
007E0BE000
00BD07E000
00FC03F000
01F802F400
02F401F800
03FFFFFC00
07FFFFFD00
0BFFFFFE00
0BD2F87F00
0FC2F83F00
1F82F82F40
2F42F81F80
3F42F81FC0
7F02F80FD0
BE02F80BE0
FD02F807F0
ENDCHAR
STARTCHAR uni0467
ENCODING 1127
SWIDTH 470 0
DWIDTH 17 0
BBX 16 19 0 0
BITMAP
0007E000
000BF000
000FF400
001FFC00
002FFD00
003F7E00
007E3F00
00BD2F40
00FC1F80
01F80FC0
02F40BD0
03FFFFE0
07FFFFF0
0BEBFBF4
0FC7F1F8
1F87F0FC
2F47F0BD
3F07F0BE
7E07F07F
ENDCHAR
STARTCHAR uni0468
ENCODING 1128
SWIDTH 759 0
DWIDTH 27 0
BBX 24 26 3 0
BITMAP
BD00002F4000
BD00003F8000
BD00007FC000
BD0000BFD000
BD0000FFE000
BD0001FFF000
BD0001FBF000
BD0002F6F400
BD0003F1F800
BD0007E0FC00
BD000BD0BD00
BD000FC07E00
BD001F803F00
BD002F803F40
BD003F402F40
BFFFFFFFFF80
BFFFFFFFFFC0
BFFFFFFFFFD0
BD00FC3F47E0
BD01FC3F47F0
BD02F83F43F4
BD03F43F42F8
BD07F03F41F8
BD0BE03F40FC
BD0BD03F40FD
BD0FD03F40BE
ENDCHAR
STARTCHAR uni0469
ENCODING 1129
SWIDTH 654 0
DWIDTH 24 0
BBX 20 19 3 0
BITMAP
FD000BD000
FD000FE000
FD001FF000
FD002FF400
FD003FF800
FD007EFC00
FD00BDBD00
FD00FC7E00
FD01F83F00
FD02F42F80
FD03F01FC0
FFFFFFFFD0
FFFFFFFFE0
FEAFEFFBF0
FD1F8BE3F4
FD2F4BE2F8
FD3F0BE1FC
FD7E0BE0FD
FDBD0BE0BE
ENDCHAR
STARTCHAR uni046A
ENCODING 1130
SWIDTH 747 0
DWIDTH 27 0
BBX 23 26 2 0
BITMAP
07FFFFFFFF40
02FFFFFFFF00
01FFAAABFD00
00BF0002FC00
007F4003F400
002F800BF000
001FD00FE000
000FE02FC000
0007F03F8000
0003F87F0000
0001FCFE0000
0000FEFC0000
006FFFFFE400
07FFFFFFFF40
1FFEAFFAFFC0
2FD00FD01FE0
3F400FC007F0
7F000FC003F4
7E000FC003F4
BE000FC002F4
BE000FC002F4
BE000FC002F4
BE000FC002F4
BE000FC002F4
BE000FC002F4
BE000FC002F4
ENDCHAR
STARTCHAR uni046B
ENCODING 1131
SWIDTH 645 0
DWIDTH 23 0
BBX 19 19 2 0
BITMAP
07FFFFFF80
02FFFFFF00
00FEAAFE00
00BE01FC00
003F42F800
002F87F000
000FCBD000
000BEFC000
00BFFFF900
07FFFFFF80
1FFAFEBFD0
2F80FD0BF0
3F00FD03F4
7F00FD02F8
7E00FD01F8
7E00FD01F8
7E00FD01F8
7E00FD01F8
7E00FD01F8
ENDCHAR
STARTCHAR uni046C
ENCODING 1132
SWIDTH 980 0
DWIDTH 35 0
BBX 30 26 3 0
BITMAP
FC000BFFFFFFFE00
FC0007FFFFFFFD00
FC0002FEAAABF800
FC0001FD0007F400
FC0000BE000BE000
FC00007F401FD000
FC00002FC02F8000
FC00000FD07F0000
FC00000BF0FE0000
FC000003F5FC0000
FC000002FFF80000
FFFFFFFFFFFFA400
FFFFFFFFFFFFFD00
FEAABFFEBFEBFF40
FC007F802F806FC0
FC00BE002F800FD0
FC00FD002F800BE0
FC00FD002F8007E0
FC00FC002F8007E0
FC00FC002F8007F0
FC00FC002F8007F0
FC00FC002F8007F0
FC00FC002F8007F0
FC00FC002F8007F0
FC00FC002F8007F0
FC00FC002F8007F0
ENDCHAR
STARTCHAR uni046D
ENCODING 1133
SWIDTH 856 0
DWIDTH 31 0
BBX 27 19 2 0
BITMAP
7E000BFFFFFF40
7E0003FFFFFE00
7E0002FEAAFC00
7E0000FD02F800
7E0000BE03F000
7E00003F4BE000
7E00001F8FC000
7E00000FEF8000
7FFFFFFFFFE800
7FFFFFFFFFFF40
7FAABFFAFEBFC0
7E007F41F80FE0
7E00BE01F807F0
7E00BD01F803F0
7E00FD01F803F4
7E00FD01F802F4
7E00FD01F802F4
7E00FD01F802F4
7E00FD01F802F4
ENDCHAR
STARTCHAR uni046E
ENCODING 1134
SWIDTH 454 0
DWIDTH 16 0
BBX 13 42 1 -8
BITMAP
07D03E00
01F4BC00
00B9F000
003FD000
000F8000
00000000
00000000
00000000
2FFE4000
2FFFF400
2AABFD00
0000BF00
00003F40
00002F80
00001F80
00001F80
00002F40
00007F00
0001FD00
02FFF400
02FFE000
02ABFC00
0000BF00
00002F40
00001F80
00001FC0
00000FC0
00001FC0
00001F80
00003F80
0000BF00
01ABFD00
1FFFF400
3FFF8000
7E000000
BD000000
BD000000
7E000000
3F400000
2FD00000
0BC00000
01800000
ENDCHAR
STARTCHAR uni046F
ENCODING 1135
SWIDTH 423 0
DWIDTH 15 0
BBX 13 36 1 -8
BITMAP
1F40F800
07D2F000
02F7D000
00BF4000
003E0000
00000000
00000000
00000000
00000000
2FFE8000
2FFFF400
2AABFD00
0000BE00
00003F00
00003F00
00007F00
0001FD00
02FFF400
02FFE000
02ABFD00
0000BF00
00002F40
00002F40
00003F40
0000BF00
01ABFE00
1FFFF800
3FFF9000
7F400000
BD000000
BD000000
7E000000
3F400000
1FD00000
0BD00000
01800000
ENDCHAR
STARTCHAR uni0470
ENCODING 1136
SWIDTH 600 0
DWIDTH 22 0
BBX 19 26 1 0
BITMAP
BE00FC01FC
BE00FC01FC
BE00FC01FC
BE00FC01FC
BE00FC01FC
BE00FC01FC
BE00FC01FC
BE00FC01FC
BE00FC01FC
7E00FC01FC
7E00FC01F8
7F00FC02F8
7F00FC02F8
3F40FC03F4
2F80FC0BF0
1FE0FC1FD0
0BF9FDBF80
02FFFFFF00
00BFFFF800
000AFF9000
0000FC0000
0000FC0000
0000FC0000
0000FC0000
0000FC0000
0000FC0000
ENDCHAR
STARTCHAR uni0471
ENCODING 1137
SWIDTH 612 0
DWIDTH 22 0
BBX 20 27 1 -8
BITMAP
7E00BD07F0
7E00BD03F4
7E00BD02F8
7E00BD01FC
7E00BD00FD
7E00BD00FD
7E00BD00BD
7E00BD00BD
7E00BD00BE
7E00BD00BE
7F00BD00BD
3F00BD00FD
3F40BD01FC
2F80BD02F8
1FD0BD07F4
0BF4BD2FE0
02FFFFFFC0
00BFFFFE00
001BFFA400
0000BD0000
0000BD0000
0000BD0000
0000BD0000
0000BD0000
0000BD0000
0000BD0000
0000BD0000
ENDCHAR
STARTCHAR uni0472
ENCODING 1138
SWIDTH 593 0
DWIDTH 21 0
BBX 19 26 1 0
BITMAP
0006FE4000
002FFFF400
01FFFFFD00
03FD01FF00
0BF4003F80
0FD0001FC0
1FC0000FD0
2F80000BE0
3F400007F0
3F400003F0
3F000003F4
7F000003F4
7FFFFFFFF4
7FFFFFFFF4
7FAAAAABF4
3F000003F4
3F000003F0
3F400007F0
2F800007E0
1FC0000BD0
0FD0001FC0
0BF0003F80
03FD01FF00
01FFFFFD00
002FFFF400
0006FE4000
ENDCHAR
STARTCHAR uni0473
ENCODING 1139
SWIDTH 497 0
DWIDTH 18 0
BBX 16 19 1 0
BITMAP
002BE800
01FFFF40
07FEBFD0
0BE00BF0
1FC003F4
2F4001F8
3F0000FC
7F0000FD
7FFFFFFD
7FFFFFFD
7FAAAAFD
7F0000FD
3F0000FC
2F4001F8
1FC003F4
0FE00BF0
07FEBFD0
01FFFF40
002BE800
ENDCHAR
STARTCHAR uni0474
ENCODING 1140
SWIDTH 553 0
DWIDTH 20 0
BBX 19 26 0 0
BITMAP
7F400000B8
3F800002F8
2F800007F8
1FC0000BE0
0FD0000FC0
0BE0001F80
07E0002F40
07F0003F40
03F4007F00
02F8007E00
01F800BD00
00FC00FC00
00BD00F800
007E01F400
003F02F400
003F03F000
002F43E000
001F87D000
000FCBC000
000BCF8000
0007EF8000
0003FF4000
0002FF0000
0002FE0000
0001FD0000
0000FC0000
ENDCHAR
STARTCHAR uni0475
ENCODING 1141
SWIDTH 443 0
DWIDTH 16 0
BBX 15 19 1 0
BITMAP
BD0002F4
BE000BF8
7E000FF4
3F002F80
2F403F40
1F803F00
0FC07E00
0BC0BD00
07D0BC00
03E0FC00
03F1F800
02F1F400
01F6F000
00FBE000
00BFD000
007FC000
003F8000
002F4000
001F0000
ENDCHAR
STARTCHAR uni0476
ENCODING 1142
SWIDTH 553 0
DWIDTH 20 0
BBX 19 31 0 0
BITMAP
0BE2F80000
03F8FD0000
00FD7E0000
007F6F4000
001E8A8000
7F400000B8
3F800002F8
2F800007F8
1FC0000BE0
0FD0000FC0
0BE0001F80
07E0002F40
07F0003F40
03F4007F00
02F8007E00
01F800BD00
00FC00FC00
00BD00F800
007E01F400
003F02F400
003F03F000
002F43E000
001F87D000
000FCBC000
000BCF8000
0007EF8000
0003FF4000
0002FF0000
0002FE0000
0001FD0000
0000FC0000
ENDCHAR
STARTCHAR uni0477
ENCODING 1143
SWIDTH 443 0
DWIDTH 16 0
BBX 16 26 0 0
BITMAP
7F5FC000
1FCBE000
0BF2F400
02F8FC00
00B97900
00000000
00000000
2F4000BD
2F8002FE
1F8003FD
0FC00BE0
0BD00FD0
07E00FC0
03F01F80
02F02F40
01F42F00
00F83F00
00FC7E00
00BC7D00
007DBC00
003EF800
002FF400
001FF000
000FE000
000BD000
0007C000
ENDCHAR
STARTCHAR uni0478
ENCODING 1144
SWIDTH 1017 0
DWIDTH 37 0
BBX 34 33 2 -7
BITMAP
001BFE400000000000
01FFFFE00000000000
07FFFFF80000000000
0FF406FE0000000000
2FD0007F0000000000
3F40002F8000000000
7F00001FC000000000
7E00000FC0BE000BE0
BE00000FD07F000BD0
BD00000FD03F400FD0
BD00000BD02F801FC0
BD00000BD01F802F80
BD00000BD00FC02F40
BD00000BD00BD03F00
BD00000BD007E07E00
BD00000BD007F0BD00
BD00000FD003F0BC00
BE00000FD002F4F800
7E00000FC001F9F800
7F00001FC000FEF400
3F40002F8000BFF000
2FC0007F40007FE000
0FF402FE00003FD000
07FFFFF800002FC000
01FFFFE000001F8000
001BFE4000001F4000
0000000000002F4000
0000000000003F0000
0000000000007E0000
000000000001FD0000
00000000002FF80000
00000000002FF00000
00000000002F800000
ENDCHAR
STARTCHAR uni0479
ENCODING 1145
SWIDTH 918 0
DWIDTH 33 0
BBX 32 26 1 -7
BITMAP
002FF8000FD000FD
01FFFF400FD001FC
07FEBFD00BE002F8
0FE00BF407F003F4
2F8002F803F403F0
3F4001FC02F807E0
3F0000FD01F80BD0
7F0000BD00FC0FC0
7E0000BD00BD0FC0
7E0000BD007E1F80
7E0000BD003E2F40
7F0000BD002F3F00
3F0000FD001F7E00
3F4000FC001FFD00
2F8002F8000FFC00
0FE007F4000BF800
07FEBFD00007F800
01FFFF400003F400
002FF9000002F000
000000000003E000
000000000007D000
00000000000BC000
00000000002F8000
0000000007FF0000
0000000007FD0000
0000000007E40000
ENDCHAR
STARTCHAR uni047A
ENCODING 1146
SWIDTH 593 0
DWIDTH 21 0
BBX 19 31 1 -3
BITMAP
0000FD0000
0000FD0000
0006FF8000
007FFFF400
01FFFFFD00
03FDFDBF00
0BF0A83F80
0FD0001FC0
1FC0000BD0
2F800007E0
3F400007F0
3F400003F0
3F000003F4
7F000003F4
7F000003F4
7F000003F4
7F000003F4
3F000003F4
3F400003F0
3F400007F0
2F800007E0
1FC0000BD0
0FD0001FC0
0BF0A82F80
03FDFDBF00
01FFFFFD00
007FFFF400
000BFF8000
0000FD0000
0000FD0000
0000540000
ENDCHAR
STARTCHAR uni047B
ENCODING 1147
SWIDTH 498 0
DWIDTH 18 0
BBX 16 23 1 -2
BITMAP
000BE000
000BE000
006FF900
01FFFF40
07FFFFD0
0FEBEBF0
1FC553F4
2F4001F8
3F0000FC
7F0000FD
7F0000FD
7E0000BD
7F0000BD
7F0000FD
3F0000FC
2F4001F8
1FC692F4
0FEBEBF0
07FFFFD0
01FFFF40
006FF900
000BE000
000BD000
ENDCHAR
STARTCHAR uni047C
ENCODING 1148
SWIDTH 752 0
DWIDTH 27 0
BBX 23 34 2 0
BITMAP
000004000000
0000BF900000
0002FFFE5000
0003D1BFF000
0003C006F000
000003D00000
000007D00000
000007D00000
00B80F807900
07F80A007F40
0FF800007FD0
2FD000000BF0
3F40000003F4
7F00000002F4
7F00000002F8
7E00000002F8
7E00000002F8
7E00000002F8
7E00000002F8
7E000FD002F8
7E000FD002F8
7E000FD002F8
7E000FD002F8
7E000FD002F8
7E000FD002F8
7E000FD002F8
7E000FD002F8
7F000FD002F8
7F001FE002F4
3F402FF003F4
2FC07FF80BF0
0FFBFDFFBFD0
07FFF87FFF40
00BF900BF900
ENDCHAR
STARTCHAR uni047D
ENCODING 1149
SWIDTH 654 0
DWIDTH 24 0
BBX 20 27 2 0
BITMAP
0000100000
0007FE0000
000FFFE540
001F46FF80
001E006F80
00001F4000
00001F4000
00002F0000
02D03D0A40
1FD0280BE0
2FD0000BF4
7F000001FC
BE000000FD
BD000000BD
FD000000BE
FD000000BE
FD005400BE
FD00BD00BE
FD00BD00BE
FD00BD00BE
FD00BD00BE
BD00FD00BD
BE00FE00FD
7F02FF41FC
3FEFFFEBF8
1FFFD7FFE0
02FE01BE40
ENDCHAR
STARTCHAR uni047E
ENCODING 1150
SWIDTH 754 0
DWIDTH 27 0
BBX 23 32 2 0
BITMAP
001FFFFFE000
001FFFFFF000
00000BC00000
00000BC00000
000000000000
000000000000
7E000FD001F8
7E000FD001F8
7E000FD001F8
7E000FD001F8
7E000FD001F8
7E000FD001F8
7E000FD001F8
7E000FD001F8
7E000FD001F8
7E000FD001F8
7E000FD001F8
7E000FD001F8
7E000FD001F8
7E000FD001F8
7E000FD001F8
7E000FD001F8
7E000FD001F8
7E000FD001F8
7E000FD001F8
7F000FD002F8
7F001FE002F8
3F402FF003F4
2FC07FF80BF0
1FFBFDFFBFD0
07FFF87FFF80
01BF901BF900
ENDCHAR
STARTCHAR uni047F
ENCODING 1151
SWIDTH 650 0
DWIDTH 23 0
BBX 20 25 2 0
BITMAP
01FFFFFF00
01FFFFFF00
0000BD0000
0000BD0000
0000000000
0000000000
FD00BD00BE
FD00BD00BE
FD00BD00BE
FD00BD00BE
FD00BD00BE
FD00BD00BE
FD00BD00BE
FD00BD00BE
FD00BD00BE
FD00BD00BE
FD00BD00BE
FD00BD00BE
FD00BD00BD
FD00FD00BD
BD00FE00FD
7F02FF41FC
3FEFFFEBF8
1FFFCBFFE0
06FE01BE40
ENDCHAR
STARTCHAR uni0480
ENCODING 1152
SWIDTH 570 0
DWIDTH 21 0
BBX 17 33 2 -7
BITMAP
001BF90000
01FFFFD000
07FFBFF400
0FF407FC00
2FC000FE00
3F40007F00
7F00003F00
BE00003F40
BD00002A40
FD00000000
FD00000000
FD00000000
FD00000000
FD00000000
FD00000000
FD00000000
FD00000000
FD00000000
BE00000000
7F00000000
3F40000000
2FC0000000
0FE0000000
07FEA00000
01FFF40000
002FF40000
0003F40000
0003F40000
0003F40000
0003F40000
0003F40000
0003F40000
0003F40000
ENDCHAR
STARTCHAR uni0481
ENCODING 1153
SWIDTH 472 0
DWIDTH 17 0
BBX 14 26 1 -7
BITMAP
002FE400
01FFFE00
07FEBF80
0BE01FD0
1FC00BE0
2F4003F0
3F4003F0
3F000000
7F000000
7F000000
7F000000
3F000000
3F000000
2F400000
1FC00000
0FE00000
07FA5000
01FFD000
006FD000
000BD000
000BD000
000BD000
000BD000
000BD000
000BD000
000BD000
ENDCHAR
STARTCHAR uni0482
ENCODING 1154
SWIDTH 547 0
DWIDTH 20 0
BBX 16 24 2 0
BITMAP
000000F8
000002F0
000003E0
007407C0
00BD0F80
007F9F40
001FFE00
0002FE00
0000FFD0
0001FBF8
0002F1FE
0007D02C
740BC004
FE0F4000
7FEF0000
0BFE0000
01FE0000
00FFD000
02FBF800
03E1FD00
07D02C00
0F800000
1F400000
3E000000
ENDCHAR
STARTCHAR uni0483
ENCODING 1155
SWIDTH 0 0
DWIDTH 0 0
BBX 12 7 -14 20
BITMAP
000069
00007D
BFFFFD
BFFFFD
BD0000
BD0000
140000
ENDCHAR
STARTCHAR uni0484
ENCODING 1156
SWIDTH 0 0
DWIDTH 0 0
BBX 12 5 -14 23
BITMAP
000040
001BF8
16FFFE
7FF91F
7E400F
ENDCHAR
STARTCHAR uni0485
ENCODING 1157
SWIDTH 0 0
DWIDTH 0 0
BBX 4 6 -10 23
BITMAP
BD
BD
7D
2E
0F
05
ENDCHAR
STARTCHAR uni0486
ENCODING 1158
SWIDTH 0 0
DWIDTH 0 0
BBX 5 6 -9 23
BITMAP
2F40
2F40
2F00
3D00
7800
2000
ENDCHAR
STARTCHAR uni0488
ENCODING 1160
SWIDTH 0 0
DWIDTH 0 0
BBX 35 32 -27 -6
BITMAP
00000002F900000000
0000000BAF40000000
0000001E03C0000000
000000050140000000
000000000000000000
002F900000001BE000
00FAF40000007EBC00
01E07C000000F42D00
005014000000501400
000000000000000000
000000000000000000
000000000000000000
000000000000000000
000000000000000000
0BE400000000006F90
3EBD0000000001FAF4
781E0000000002D078
100500000000014014
000000000000000000
000000000000000000
000000000000000000
000000000000000000
000000000000000000
002F900000001FD000
00FAF4000000BEB800
01E078000000F03C00
014014000000501400
000000000000000000
00000002FD00000000
0000000BAF80000000
0000000F03C0000000
000000050140000000
ENDCHAR
STARTCHAR uni0489
ENCODING 1161
SWIDTH 0 0
DWIDTH 0 0
BBX 34 33 -27 -7
BITMAP
000000003C00000000
000000007800000000
00000000B800000000
00000000F400000000
00090001F000000000
000E0002F000000000
000B80004000019000
0007D00000001FD000
0002E0000001FE4000
0001F0000001F80000
000080000000500000
000000000000000000
000000000000000000
000000000000000000
000000000000000000
794000000000029000
7FF80000000002FE00
06FC0000000002FFD0
001800000000000690
000000000000000000
000000000000000000
000000000000000000
000000000000000000
000000000000200000
000050000000F40000
0001F8000000BC0000
000BF80014003D0000
007F8000BC001F0000
00740000F4000B4000
00000000F000020000
00000001E000000000
00000002D000000000
00000002C000000000
ENDCHAR
STARTCHAR uni048A
ENCODING 1162
SWIDTH 666 0
DWIDTH 24 0
BBX 20 38 3 -6
BITMAP
01F801F400
00F802F000
00BE5BE000
002FFF8000
0006F90000
0000000000
FC00003F40
FC0000BF40
FC0000FF40
FC0002FF40
FC0003FF40
FC000BFF40
FC000FFF40
FC002F7F40
FC003F3F40
FC00BD3F40
FC00FC3F40
FC02F43F40
FC03F03F40
FC0BD03F40
FC0FC03F40
FC2F403F40
FC3F003F40
FCBD003F40
FDFC003F40
FEF4003F40
FFF0003F40
FFD0003F40
FFC0003F40
FF40003FBE
FF00003FFE
FD00003FFE
00000000BE
00000000BD
00000000FC
00000001F8
00000003F0
0000000180
ENDCHAR
STARTCHAR uni048B
ENCODING 1163
SWIDTH 550 0
DWIDTH 20 0
BBX 17 32 2 -6
BITMAP
07D007D000
03E00BC000
02F96F8000
00BFFE0000
001BE40000
0000000000
0000000000
7E000BE000
7E000FE000
7E002FE000
7E003FE000
7E00BFE000
7E00FBE000
7E02F7E000
7E03D7E000
7E0BC7E000
7E0F47E000
7E2F07E000
7E3D07E000
7EBC07E000
7FF407E000
7FF007E000
7FD007E000
7FC007FFC0
7F4007FFC0
7F0007FFC0
0000001FC0
0000001F80
0000002F40
0000003F00
000000BD00
0000002400
ENDCHAR
STARTCHAR uni048C
ENCODING 1164
SWIDTH 551 0
DWIDTH 20 0
BBX 20 26 -1 0
BITMAP
01FC000000
01FC000000
01FC000000
01FC000000
BFFFF00000
BFFFF00000
6AFEA00000
01FC000000
01FC000000
01FC000000
01FC000000
01FFFFF900
01FFFFFF80
01FEAABFE0
01FC000BF8
01FC0002FC
01FC0000FD
01FC0000FD
01FC0000FD
01FC0000FD
01FC0001FD
01FC0002FC
01FC000BF4
01FEAABFE0
01FFFFFF80
01FFFFF900
ENDCHAR
STARTCHAR uni048D
ENCODING 1165
SWIDTH 477 0
DWIDTH 17 0
BBX 17 30 -1 0
BITMAP
0154000000
01F8000000
01F8000000
01F8000000
7FFFFD0000
7FFFFD0000
2AFEA90000
01F8000000
01F8000000
01F8000000
01F8000000
01F8000000
01F8000000
01F8000000
01F8000000
01F8000000
01F8000000
01FFFF9000
01FFFFF800
01FEABFD00
01F800BF00
01F8003F40
01F8002F40
01F8002F80
01F8002F40
01F8003F40
01F800BF00
01FEABFD00
01FFFFF800
01FFFF9000
ENDCHAR
STARTCHAR uni048E
ENCODING 1166
SWIDTH 557 0
DWIDTH 20 0
BBX 17 26 2 0
BITMAP
7FFFFE4000
7FFFFFE000
7FAABFF800
7F0002FD00
7F0000BF00
7F00003F40
7F00002F40
7F00002F80
7F00012F80
7F000B6F40
7F000FFF40
7F0007FF00
7F0007FD00
7FFFFFFD00
7FFFFFFF40
7FAAA91FC0
7F00000740
7F00000100
7F00000000
7F00000000
7F00000000
7F00000000
7F00000000
7F00000000
7F00000000
7F00000000
ENDCHAR
STARTCHAR uni048F
ENCODING 1167
SWIDTH 496 0
DWIDTH 18 0
BBX 14 26 2 -7
BITMAP
BD2FE400
BDFFFE00
BFFBFF40
BF807FC0
BE001FD0
BD000BE0
BD0007E0
BD0007F0
BD0003F0
BD0003F0
BD0003F0
BD0007F0
BD0057E0
BD01FFE0
BE00FFD0
BF807FC0
BFFAFF80
BEFFFFE0
BD2FE7F0
BD0000D0
BD000000
BD000000
BD000000
BD000000
BD000000
BD000000
ENDCHAR
STARTCHAR uni0490
ENCODING 1168
SWIDTH 479 0
DWIDTH 17 0
BBX 14 32 2 0
BITMAP
000003F0
000003F0
000003F0
000003F0
000003F0
000003F0
7FFFFFF0
7FFFFFF0
7FAAAAA0
7F000000
7F000000
7F000000
7F000000
7F000000
7F000000
7F000000
7F000000
7F000000
7F000000
7F000000
7F000000
7F000000
7F000000
7F000000
7F000000
7F000000
7F000000
7F000000
7F000000
7F000000
7F000000
7F000000
ENDCHAR
STARTCHAR uni0491
ENCODING 1169
SWIDTH 395 0
DWIDTH 14 0
BBX 11 25 2 0
BITMAP
0001A4
0001F8
0001F8
0001F8
0001F8
0001F8
BFFFF8
BFFFF8
BFAAA4
BE0000
BE0000
BE0000
BE0000
BE0000
BE0000
BE0000
BE0000
BE0000
BE0000
BE0000
BE0000
BE0000
BE0000
BE0000
BE0000
ENDCHAR
STARTCHAR uni0492
ENCODING 1170
SWIDTH 487 0
DWIDTH 18 0
BBX 17 26 0 0
BITMAP
03FFFFFF40
03FFFFFF40
03FAAAAA40
03F0000000
03F0000000
03F0000000
03F0000000
03F0000000
03F0000000
03F0000000
03F0000000
BFFFE00000
BFFFE00000
ABFA900000
03F0000000
03F0000000
03F0000000
03F0000000
03F0000000
03F0000000
03F0000000
03F0000000
03F0000000
03F0000000
03F0000000
03F0000000
ENDCHAR
STARTCHAR uni0493
ENCODING 1171
SWIDTH 371 0
DWIDTH 13 0
BBX 13 19 0 0
BITMAP
07FFFF80
07FFFF80
07FAAA80
07E00000
07E00000
07E00000
07E00000
07E00000
BFFFE000
BFFFE000
6BFAA000
07E00000
07E00000
07E00000
07E00000
07E00000
07E00000
07E00000
07E00000
ENDCHAR
STARTCHAR uni0494
ENCODING 1172
SWIDTH 539 0
DWIDTH 19 0
BBX 15 31 3 -5
BITMAP
FFFFFFD0
FFFFFFD0
FEAAAA90
FC000000
FC000000
FC000000
FC000000
FC000000
FC000000
FC000000
FC000000
FFFE9000
FFFFF800
FFFFFF00
FC007F80
FC001FD0
FC000BE0
FC0003F0
FC0002F4
FC0002F4
FC0002F8
FC0002F8
FC0002F8
FC0002F4
FC0002F4
FC0003F0
000007E0
00001FD0
0001BF80
0002FE00
0001E400
ENDCHAR
STARTCHAR uni0495
ENCODING 1173
SWIDTH 443 0
DWIDTH 16 0
BBX 13 24 2 -5
BITMAP
BFFFF800
BFFFF800
BFAAA400
BE000000
BE000000
BE000000
BE000000
BE000000
BFFE4000
BFFFE000
BFFFF800
BE02FD00
BE00BF00
BE003F40
BE002F40
BE002F80
BE002F80
BE002F40
BE003F40
00007F00
0001FD00
000BF800
000BE000
00064000
ENDCHAR
STARTCHAR uni0496
ENCODING 1174
SWIDTH 833 0
DWIDTH 30 0
BBX 29 32 1 -6
BITMAP
7F4001FC000BF000
3F8001FC000FE000
1FD001FC001FC000
0FE001FC003F8000
07F001FC007F0000
03F801FC00BE0000
01FC01FC01FC0000
00FD01FC02F80000
007F01FC03F00000
003F41FC0BE00000
001F81FC0FC00000
000FD1FC1F800000
0007FFFFFF000000
0007FFFFFF400000
000FFBFEBF800000
002FC1FC1FD00000
003F81FC0FE00000
00BF01FC07F40000
01FE01FC03FC0000
02FC01FC01FD0000
07F801FC00BF0000
0BF001FC007F8000
1FE001FC002FC000
3FC001FC001FFF40
7F8001FC000BFF40
FF0001FC0007FF40
0000000000003F40
0000000000003F40
0000000000003F40
0000000000003F40
0000000000003F40
0000000000003F40
ENDCHAR
STARTCHAR uni0497
ENCODING 1175
SWIDTH 696 0
DWIDTH 25 0
BBX 23 25 1 -6
BITMAP
BF002F401FD0
3F802F402F80
2FC02F407F40
0FD02F40BE00
07F02F41FD00
03F42F42F800
01FC2F43F000
00BD2F4BE000
007FFFFFC000
003FFFFF8000
00BFFFFFD000
00FD2F47F000
02F82F43F400
07F42F41FC00
0BE02F40FE00
1FD02F40BF00
3F802F403FFC
BF402F402FFC
FE002F400FFC
0000000000FC
0000000000FC
0000000000FC
0000000000FC
0000000000FC
0000000000FC
ENDCHAR
STARTCHAR uni0498
ENCODING 1176
SWIDTH 517 0
DWIDTH 19 0
BBX 16 33 1 -7
BITMAP
002BF900
02FFFFD0
0BFFBFF4
1FE007FC
2F8001FD
3F4000BE
3F0000BE
000000BE
000000BE
000001FC
000007F4
000FFFD0
000FFF80
000ABFF4
000006FC
000000FD
0000007E
0000007F
5500003F
7E00007F
7F0000BE
3F8000FE
2FE007FC
0BFEBFF4
02FFFFD0
006FF900
0007E000
0007E000
0007E000
0007E000
0007E000
0007E000
0007E000
ENDCHAR
STARTCHAR uni0499
ENCODING 1177
SWIDTH 446 0
DWIDTH 16 0
BBX 14 26 1 -7
BITMAP
00BFE400
07FFFD00
1FFAFF40
2F802F80
3F001FC0
15000FC0
00001F80
00007F40
00BFFE00
00BFFC00
006AFF40
00002FC0
00000FD0
6A000FD0
7F000FD0
3F802FC0
1FFAFF40
0BFFFE00
01BFE400
002F8000
002F8000
002F8000
002F8000
002F8000
002F8000
002F8000
ENDCHAR
STARTCHAR uni049A
ENCODING 1178
SWIDTH 617 0
DWIDTH 22 0
BBX 18 32 3 -6
BITMAP
FC0000FF00
FC0002FD00
FC0007F800
FC000FF000
FC002FD000
FC007F8000
FC00FF0000
FC02FD0000
FC07F80000
FC0FF00000
FC2FD00000
FFFF800000
FFFF400000
FFBFC00000
FC0FE00000
FC07F40000
FC02FC0000
FC01FE0000
FC00BF4000
FC003F8000
FC001FD000
FC000BF000
FC0007F800
FC0002FFE0
FC0000FFE0
FC00007FE0
0000000BE0
0000000BE0
0000000BE0
0000000BE0
0000000BE0
0000000BE0
ENDCHAR
STARTCHAR uni049B
ENCODING 1179
SWIDTH 524 0
DWIDTH 19 0
BBX 16 25 2 -6
BITMAP
7E000BE0
7E002FC0
7E007F40
7E00BE00
7E01FC00
7E03F400
7E0BE000
7E1FC000
7FFF4000
7FFF4000
7FFF8000
7E0FE000
7E07F400
7E02FC00
7E01FE00
7E00BF40
7E003FFE
7E001FFE
7E000BFE
0000007E
0000007E
0000007E
0000007E
0000007E
0000007E
ENDCHAR
STARTCHAR uni049C
ENCODING 1180
SWIDTH 553 0
DWIDTH 20 0
BBX 18 26 2 0
BITMAP
7F00003F80
7F00007F40
7F0000BE00
7F0000FD00
7F0002F800
7F0003F400
7F0007F000
7F190BD000
7F2E0FC000
7F2E1F8000
7F2E2F0000
7F2E3E0000
7FFFFD0000
7FFFFD0000
7FBFFF0000
7F2E3F4000
7F2E2FC000
7F2E0FD000
7F2E0BF000
7F0007F400
7F0003F800
7F0001FD00
7F0000FE00
7F0000BF40
7F00007F80
7F00002FD0
ENDCHAR
STARTCHAR uni049D
ENCODING 1181
SWIDTH 498 0
DWIDTH 18 0
BBX 16 19 2 0
BITMAP
7E0002FC
7E0007F4
7E000BE0
7E000FD0
7E292F80
7E3D3F00
7E3D7E00
7E3DFC00
7FFFF400
7FFFF800
7FFFFC00
7E3DBE00
7E3D7F40
7E3D2F80
7E141FD0
7E000FE0
7E0007F4
7E0003FC
7E0001FD
ENDCHAR
STARTCHAR uni049E
ENCODING 1182
SWIDTH 570 0
DWIDTH 21 0
BBX 20 26 0 0
BITMAP
02F40002FD
02F40007F8
02F4000FF0
02F4002FD0
BFFFE07F80
BFFFE0FF00
6BFAA2FD00
02F407F800
02F40FF000
02F42FD000
02F47F8000
02FFFF0000
02FFFE0000
02FEBF4000
02F42FC000
02F40FE000
02F407F400
02F402FC00
02F401FE00
02F400BF40
02F4003F80
02F4001FD0
02F4000BF0
02F40007F8
02F40002FD
02F40000FF
ENDCHAR
STARTCHAR uni049F
ENCODING 1183
SWIDTH 462 0
DWIDTH 17 0
BBX 17 27 -1 0
BITMAP
01FC000000
01FC000000
01FC000000
FFFFE00000
FFFFE00000
AAFE900000
01FC000000
01FC000000
01FC007F40
01FC00FE00
01FC01FC00
01FC03F800
01FC07F000
01FC0FD000
01FC1F8000
01FC3F4000
01FFFE0000
01FFFD0000
01FEBF0000
01FC2F8000
01FC1FD000
01FC0BF000
01FC03F800
01FC01FD00
01FC00BE00
01FC007F40
01FC002FC0
ENDCHAR
STARTCHAR uni04A0
ENCODING 1184
SWIDTH 710 0
DWIDTH 26 0
BBX 24 26 1 0
BITMAP
BFFFF40002FD
BFFFF40007F8
6AABF4000FF0
0002F4002FD0
0002F4007F80
0002F400FF00
0002F402FD00
0002F407F800
0002F40FF000
0002F42FD000
0002F47F8000
0002FFFF0000
0002FFFE0000
0002FEBF4000
0002F42FC000
0002F40FE000
0002F407F400
0002F403FC00
0002F401FE00
0002F400BF00
0002F4003F80
0002F4001FD0
0002F4000BF0
0002F40007F8
0002F40002FD
0002F40000FF
ENDCHAR
STARTCHAR uni04A1
ENCODING 1185
SWIDTH 607 0
DWIDTH 22 0
BBX 21 19 1 0
BITMAP
BFFFE000FE00
BFFFE002FC00
6AAFE007F400
000BE00FE000
000BE02F8000
000BE07F4000
000BE0FD0000
000BE2F80000
000BFFF00000
000BFFF00000
000BFFF80000
000BE1FD0000
000BE0BF0000
000BE03F8000
000BE01FD000
000BE00BF000
000BE003F800
000BE001FD00
000BE000BF40
ENDCHAR
STARTCHAR uni04A2
ENCODING 1186
SWIDTH 662 0
DWIDTH 24 0
BBX 21 32 2 -6
BITMAP
7F00000BE000
7F00000BE000
7F00000BE000
7F00000BE000
7F00000BE000
7F00000BE000
7F00000BE000
7F00000BE000
7F00000BE000
7F00000BE000
7F00000BE000
7FFFFFFFE000
7FFFFFFFE000
7FAAAAAFE000
7F00000BE000
7F00000BE000
7F00000BE000
7F00000BE000
7F00000BE000
7F00000BE000
7F00000BE000
7F00000BE000
7F00000BE000
7F00000BFF40
7F00000BFF40
7F00000BFF40
000000003F40
000000003F40
000000003F40
000000003F40
000000003F40
000000003F40
ENDCHAR
STARTCHAR uni04A3
ENCODING 1187
SWIDTH 541 0
DWIDTH 19 0
BBX 17 25 2 -6
BITMAP
7E0007E000
7E0007E000
7E0007E000
7E0007E000
7E0007E000
7E0007E000
7E0007E000
7E0007E000
7FFFFFE000
7FFFFFE000
7FAAABE000
7E0007E000
7E0007E000
7E0007E000
7E0007E000
7E0007E000
7E0007FF40
7E0007FF40
7E0007FF40
0000002F40
0000002F40
0000002F40
0000002F40
0000002F40
0000002F40
ENDCHAR
STARTCHAR uni04A4
ENCODING 1188
SWIDTH 829 0
DWIDTH 30 0
BBX 27 26 2 0
BITMAP
7F00000BFFFFF4
7F00000BFFFFF4
7F00000BFAAAA4
7F00000BE00000
7F00000BE00000
7F00000BE00000
7F00000BE00000
7F00000BE00000
7F00000BE00000
7F00000BE00000
7F00000BE00000
7FFFFFFFE00000
7FFFFFFFE00000
7FAAAAAFE00000
7F00000BE00000
7F00000BE00000
7F00000BE00000
7F00000BE00000
7F00000BE00000
7F00000BE00000
7F00000BE00000
7F00000BE00000
7F00000BE00000
7F00000BE00000
7F00000BE00000
7F00000BE00000
ENDCHAR
STARTCHAR uni04A5
ENCODING 1189
SWIDTH 614 0
DWIDTH 22 0
BBX 19 19 2 0
BITMAP
BE000BFFF8
BE000BFFF8
BE000BFAA4
BE000BD000
BE000BD000
BE000BD000
BE000BD000
BE000BD000
BFFFFFD000
BFFFFFD000
BFAAAFD000
BE000BD000
BE000BD000
BE000BD000
BE000BD000
BE000BD000
BE000BD000
BE000BD000
BE000BD000
ENDCHAR
STARTCHAR uni04A6
ENCODING 1190
SWIDTH 880 0
DWIDTH 32 0
BBX 27 31 3 -5
BITMAP
FFFFFFFF400000
FFFFFFFF400000
FEAAAABF400000
FC00002F400000
FC00002F400000
FC00002F400000
FC00002F400000
FC00002F400000
FC00002F400000
FC00002F400000
FC00002F400000
FC00002FFF9000
FC00002FFFFD00
FC00002FFFFF40
FC00002F407FC0
FC00002F400FE0
FC00002F4007F0
FC00002F4002F4
FC00002F4002F8
FC00002F4001F8
FC00002F4001F8
FC00002F4001F8
FC00002F4001F8
FC00002F4001F8
FC00002F4002F8
FC00002F4002F4
000000000007F0
00000000000BE0
0000000000BFC0
0000000001FF00
0000000001E400
ENDCHAR
STARTCHAR uni04A7
ENCODING 1191
SWIDTH 755 0
DWIDTH 27 0
BBX 24 24 2 -5
BITMAP
BFFFFFE00000
BFFFFFE00000
BFAAAFE00000
BE000BE00000
BE000BE00000
BE000BE00000
BE000BE00000
BE000BE00000
BE000BFFF900
BE000BFFFF80
BE000BFFFFE0
BE000BE00BF8
BE000BE001FC
BE000BE000BD
BE000BE0007E
BE000BE0007E
BE000BE0007E
BE000BE0007E
BE000BE000BD
0000000000FC
0000000003F8
000000001FF0
000000001FC0
000000000E00
ENDCHAR
STARTCHAR uni04A8
ENCODING 1192
SWIDTH 641 0
DWIDTH 23 0
BBX 20 26 2 0
BITMAP
006802FD00
02F80FFF80
0BF82FFFE0
1FD07F47F4
3F80FD02F8
7F01FC01FC
7E01F800FD
BE02F800BD
FD02F400BD
FD02F400BE
FD02F400BE
FD02F400BE
FD02F400BE
FD02F400BE
FD02F400BD
FD02F800BD
FD01F800FD
BE01FC01FC
7F00FD01F8
3F407F03F4
2F803F8BF0
0FE01FEFD0
07F907FF80
02FFFFFFFE
007FFFFFFE
000AFE45AE
ENDCHAR
STARTCHAR uni04A9
ENCODING 1193
SWIDTH 528 0
DWIDTH 19 0
BBX 16 19 2 0
BITMAP
02D07E40
0FD2FFD0
2FC7FFF0
7F0BD2F4
BE0FC1F8
FD1FC0FC
FC1F80FC
FC1F80FC
FC1F80FD
FC1F80FC
FC1FC0FC
FD0FC0FC
BD0BD1F8
7F07F2F4
3F42FFF0
1FD0FFE0
0BFEFFFE
02FFFFFF
006FE46F
ENDCHAR
ENDFONT
